<svg width="865" height="231" fill="none" xmlns="http://www.w3.org/2000/svg"><path fill-rule="evenodd" clip-rule="evenodd" d="M410.763 3.036c72.335-4.495 154.377-5.124 217.3 5.995 62.661 11.073 75.474 34.85 114.621 52.659 40.83 18.573 133.413 32.983 121.219 54.624-12.821 22.754-137.309 25.366-177.552 45.354-40.414 20.073 21.852 55.21-48.34 66.841-70.092 11.615-146.173-21.161-227.248-21.174-80.999-.014-148.857 27.074-227.096 21.1-75.702-5.781-117.96-29.65-150.68-49.95C1.814 159.147-4.768 137.483 2.94 116.314c7.236-19.87 28.38-39.679 72.762-55.14 41.544-14.474 110.3-18.437 166.338-28.161 57.59-9.992 102.848-25.886 168.722-29.978Z" fill="url(#a)"/><path fill-rule="evenodd" clip-rule="evenodd" d="M410.763 3.036c72.335-4.495 154.377-5.124 217.3 5.995 62.661 11.073 75.474 34.85 114.621 52.659 40.83 18.573 133.413 32.983 121.219 54.624-12.821 22.754-137.309 25.366-177.552 45.354-40.414 20.073 21.852 55.21-48.34 66.841-70.092 11.615-146.173-21.161-227.248-21.174-80.999-.014-148.857 27.074-227.096 21.1-75.702-5.781-117.96-29.65-150.68-49.95C1.814 159.147-4.768 137.483 2.94 116.314c7.236-19.87 28.38-39.679 72.762-55.14 41.544-14.474 110.3-18.437 166.338-28.161 57.59-9.992 102.848-25.886 168.722-29.978Z" fill="#000" fill-opacity=".2"/><defs><linearGradient id="a" x1="432.5" y1="0" x2="410.869" y2="150.034" gradientUnits="userSpaceOnUse"><stop offset=".029" stop-color="red"/><stop offset=".797" stop-color="#FF6E05"/><stop offset="1" stop-color="#FFD1A7"/></linearGradient></defs></svg>