<svg width="865" height="724" fill="none" xmlns="http://www.w3.org/2000/svg"><path fill-rule="evenodd" clip-rule="evenodd" d="M410.763 9.514c72.335-14.085 154.377-16.06 217.3 18.79 62.661 34.705 75.474 109.231 114.621 165.044 40.83 58.213 133.413 103.377 121.219 171.204-12.821 71.315-137.309 79.502-177.552 142.148-40.414 62.911 21.852 173.039-48.34 209.494-70.092 36.402-146.173-66.324-227.248-66.366-80.999-.041-148.857 84.858-227.096 66.132-75.702-18.119-117.96-92.929-150.68-156.551C1.814 498.798-4.768 430.898 2.94 364.552c7.236-62.28 28.38-124.362 72.762-172.823 41.543-45.362 110.299-57.78 166.338-88.256 57.59-31.319 102.848-81.131 168.722-93.959Z" fill="url(#a)"/><path fill-rule="evenodd" clip-rule="evenodd" d="M410.763 9.514c72.335-14.085 154.377-16.06 217.3 18.79 62.661 34.705 75.474 109.231 114.621 165.044 40.83 58.213 133.413 103.377 121.219 171.204-12.821 71.315-137.309 79.502-177.552 142.148-40.414 62.911 21.852 173.039-48.34 209.494-70.092 36.402-146.173-66.324-227.248-66.366-80.999-.041-148.857 84.858-227.096 66.132-75.702-18.119-117.96-92.929-150.68-156.551C1.814 498.798-4.768 430.898 2.94 364.552c7.236-62.28 28.38-124.362 72.762-172.823 41.543-45.362 110.299-57.78 166.338-88.256 57.59-31.319 102.848-81.131 168.722-93.959Z" fill="#000" fill-opacity=".2"/><defs><linearGradient id="a" x1="432.5" y1="0" x2="252.374" y2="398.617" gradientUnits="userSpaceOnUse"><stop offset=".029" stop-color="#14FF00"/><stop offset=".797" stop-color="#A6CE39"/><stop offset="1" stop-color="#FFEBA4"/></linearGradient></defs></svg>