<svg width="34" height="34" fill="none" xmlns="http://www.w3.org/2000/svg"><path d="M29.752 5.31H8.509a2.124 2.124 0 0 0 0 4.25h21.243a2.124 2.124 0 0 0 0-4.25ZM4.26 7.435a2.125 2.125 0 0 0-4.248 0 1.808 1.808 0 0 0 0 .414c.024.139.063.274.117.404.057.126.124.246.202.36a1.944 1.944 0 0 0 .584.585c.112.081.233.15.36.202.142.073.292.126.447.16.138.015.277.015.414 0 .561 0 1.1-.222 1.498-.617.1-.1.189-.21.265-.33.078-.114.145-.234.202-.36.068-.129.121-.264.16-.404a1.81 1.81 0 0 0 0-.414Zm0 9.559a1.817 1.817 0 0 0 0-.414 1.722 1.722 0 0 0-.16-.393 2.123 2.123 0 0 0-.2-.372 1.53 1.53 0 0 0-.266-.319 2.124 2.124 0 0 0-3.622 1.498c.004.28.058.557.159.818.053.125.117.246.191.361.081.115.174.222.276.319.094.102.201.191.319.265a1.806 1.806 0 0 0 .765.319c.136.03.275.044.414.042.138.016.277.016.414 0 .135-.023.267-.062.393-.117.132-.052.256-.12.372-.201.118-.074.225-.163.319-.266.102-.094.191-.2.265-.319.082-.111.15-.232.202-.36.072-.142.126-.292.16-.447a1.758 1.758 0 0 0 0-.414Zm0 9.559a1.825 1.825 0 0 0 0-.414 1.81 1.81 0 0 0-.159-.404 2.465 2.465 0 0 0-.202-.36 1.55 1.55 0 0 0-.265-.32 2.124 2.124 0 0 0-2.995 0 1.55 1.55 0 0 0-.266.32 2.464 2.464 0 0 0-.202.36 1.78 1.78 0 0 0-.117.404c-.03.136-.044.275-.042.414.002.563.228 1.101.627 1.498.093.102.2.192.318.265a1.806 1.806 0 0 0 .765.319c.136.03.275.045.414.042.138.016.277.016.414 0a1.74 1.74 0 0 0 .393-.116c.132-.053.257-.12.372-.202.118-.074.225-.163.319-.266.102-.094.191-.2.265-.318a1.7 1.7 0 0 0 .202-.361c.073-.142.126-.292.16-.447a1.757 1.757 0 0 0 0-.414ZM31.876 14.87H8.509a2.124 2.124 0 1 0 0 4.248h23.367a2.124 2.124 0 0 0 0-4.248Zm-9.559 9.559H8.509a2.124 2.124 0 0 0 0 4.248h13.808a2.124 2.124 0 1 0 0-4.248Z" fill="#fff"/></svg>