<svg width="21" height="29" fill="none" xmlns="http://www.w3.org/2000/svg"><path d="M10.5 0C7.715 0 5.045 1.12 3.075 3.114A10.7 10.7 0 0 0 0 10.632c0 5.615 9.355 17.494 9.755 18.006A.956.956 0 0 0 10.5 29a.945.945 0 0 0 .745-.362c.4-.512 9.755-12.39 9.755-18.006a10.7 10.7 0 0 0-3.075-7.518A10.434 10.434 0 0 0 10.5 0Zm0 13.531a3.785 3.785 0 0 1-2.121-.651 3.856 3.856 0 0 1-1.407-1.735 3.911 3.911 0 0 1-.217-2.234A3.881 3.881 0 0 1 7.8 6.931a3.804 3.804 0 0 1 1.955-1.058 3.774 3.774 0 0 1 2.206.22 3.829 3.829 0 0 1 1.714 1.424A3.901 3.901 0 0 1 13.2 12.4a3.795 3.795 0 0 1-2.7 1.132Z" fill="#fff"/></svg>