<svg width="20" height="21" fill="none" xmlns="http://www.w3.org/2000/svg"><path d="m1.935 13.097 5.154-2.914-1.571-2.78a5.992 5.992 0 0 0-.919-.37l-1.468.83a.674.674 0 0 0-.296.082 1.01 1.01 0 0 1-1.166-.354.213.213 0 0 1-.02-.208c.031-.074.149-.274.577-.516 1.544-.873 3.334-.09 3.89.198l1.572 2.78 3.59-2.03-1.57-2.78c.04-.627.293-2.564 1.836-3.436a1.23 1.23 0 0 1 .74-.228.212.212 0 0 1 .167.124 1.01 1.01 0 0 1-.298 1.182.674.674 0 0 0-.222.211l-1.469.83a5.98 5.98 0 0 0-.156.978l1.571 2.78 5.155-2.914a.675.675 0 0 0-.03-.593L15.65 1.575a.688.688 0 0 0-.937-.26l-.22.124a2.28 2.28 0 0 1-1.064 2.096.683.683 0 0 1-.248.081 2.407 2.407 0 0 0 .467-2.798 1.583 1.583 0 0 0-1.156-.805 2.54 2.54 0 0 0-1.625.389C8.748 1.6 8.395 4.033 8.337 4.92l-1.611.91c-.79-.406-3.058-1.358-5.177-.16A2.54 2.54 0 0 0 .378 6.862a1.582 1.582 0 0 0 .094 1.405A2.407 2.407 0 0 0 3.11 9.31a.683.683 0 0 1-.197.171A2.28 2.28 0 0 1 .57 9.312l-.22.124a.687.687 0 0 0-.26.937l1.353 2.394a.675.675 0 0 0 .493.33Z" fill="url(#a)"/><path d="M10.358 6.272a.67.67 0 0 0-.322-.09.684.684 0 0 0-.681.657l1.003-.567Z" fill="url(#b)"/><path d="M9.349 10.194v9.738a.688.688 0 0 0 1.375 0h1.375a.688.688 0 0 0 1.375 0V7.862l-4.125 2.332Z" fill="url(#c)"/><path d="M3.161 13.692v5.552a.687.687 0 0 0 .688.688H8.66v-9.35l-5.5 3.11Z" fill="url(#d)"/><path d="M18.974 6.87h-3.745l-1.068.603v12.459h4.813a.688.688 0 0 0 .687-.688V7.557a.688.688 0 0 0-.687-.688Z" fill="url(#e)"/><defs><linearGradient id="a" x1="8.543" y1="0" x2="8.543" y2="13.097" gradientUnits="userSpaceOnUse"><stop stop-color="#3FE110"/><stop offset="1" stop-color="#ECE48D"/></linearGradient><linearGradient id="b" x1="9.856" y1="6.182" x2="9.856" y2="6.839" gradientUnits="userSpaceOnUse"><stop stop-color="#3FE110"/><stop offset="1" stop-color="#ECE48D"/></linearGradient><linearGradient id="c" x1="11.411" y1="7.862" x2="11.411" y2="20.619" gradientUnits="userSpaceOnUse"><stop stop-color="#3FE110"/><stop offset="1" stop-color="#ECE48D"/></linearGradient><linearGradient id="d" x1="5.911" y1="10.582" x2="5.911" y2="19.932" gradientUnits="userSpaceOnUse"><stop stop-color="#3FE110"/><stop offset="1" stop-color="#ECE48D"/></linearGradient><linearGradient id="e" x1="16.911" y1="6.869" x2="16.911" y2="19.932" gradientUnits="userSpaceOnUse"><stop stop-color="#3FE110"/><stop offset="1" stop-color="#ECE48D"/></linearGradient></defs></svg>