<svg width="211" height="216" fill="none" xmlns="http://www.w3.org/2000/svg"><path d="m104.598 213.482 1.013-.43c.134.137.237.242.311.314a3.377 3.377 0 0 0 .928.526c.609.241 1.352.356 2.229.345.92-.012 1.609-.196 2.064-.553.348-.275.518-.625.513-1.049a.98.98 0 0 0-.183-.59.972.972 0 0 0-.498-.356 3.31 3.31 0 0 0-.626-.179 6.725 6.725 0 0 0-.703-.079l-1.185-.094a68.144 68.144 0 0 1-1.317-.115 4.518 4.518 0 0 1-.78-.188c-.272-.091-.5-.22-.685-.386-.369-.332-.557-.761-.564-1.288-.01-.79.341-1.379 1.052-1.769.609-.344 1.458-.523 2.547-.537 1.848-.024 3.144.479 3.888 1.509l-1.003.418a3.866 3.866 0 0 0-1.227-.774c-.44-.17-.986-.251-1.636-.243-.314.004-.61.03-.887.078a4.35 4.35 0 0 0-.808.196 1.351 1.351 0 0 0-.609.414.937.937 0 0 0-.222.639 1 1 0 0 0 .127.504c.09.13.219.231.388.302.169.064.33.113.484.147.154.028.347.051.582.07l2.402.2c.805.07 1.429.281 1.872.634.443.353.668.84.676 1.462.004.322-.051.622-.164.902a2.395 2.395 0 0 1-.571.808c-.267.252-.659.459-1.176.619-.516.153-1.133.234-1.849.243-.964.012-1.843-.119-2.635-.395-.793-.275-1.376-.71-1.748-1.305Zm17.265.614-1.109.141-.973-7.685 1.109-.141.973 7.685Zm15.602-3.171-1.042.26-7.431-4.747c.956 3.772 1.48 5.843 1.572 6.212l-1.021.255-1.874-7.516 1.095-.273 7.385 4.747c-.989-3.877-1.516-5.943-1.579-6.199l1.02-.255 1.875 7.516Zm14.146-7.75 1.164-.229c-.088 1.712-1.168 3.006-3.241 3.882-.828.35-1.619.525-2.372.525a3.792 3.792 0 0 1-2.086-.631c-.631-.424-1.119-1.047-1.466-1.869-.474-1.126-.471-2.191.009-3.196.481-1.005 1.388-1.789 2.72-2.352 1.919-.811 3.546-.685 4.882.379l-.982.689a2.52 2.52 0 0 0-1.623-.577c-.608-.013-1.229.114-1.861.381-.33.14-.634.304-.911.492-.28.182-.535.405-.765.669-.223.261-.395.54-.516.837-.12.297-.175.638-.164 1.022.012.384.104.782.277 1.193.404.957 1.023 1.553 1.86 1.787.833.228 1.755.128 2.764-.299 1.434-.605 2.204-1.506 2.311-2.703Zm15.257-5.718-6.349 3.842-4.002-6.629 6.105-3.695.494.817-5.168 3.127 1.19 1.972 5.037-3.048.476.789-5.037 3.048 1.35 2.235 5.411-3.275.493.817Zm17.719-14.629-4.436 4.31-.717-.74c.486-1.389.819-2.442 1-3.159.072-.293.122-.505.149-.634.033-.134.067-.34.103-.619.04-.284.049-.511.025-.682a2.214 2.214 0 0 0-.154-.585 1.567 1.567 0 0 0-.348-.564c-.381-.393-.818-.57-1.309-.531-.492.029-.939.239-1.343.631-.519.505-.741 1.042-.667 1.612.018.176.069.351.155.522.085.162.168.295.25.4.076.099.19.233.342.401l-.877.623a9.856 9.856 0 0 1-.441-.581c-.333-.512-.456-1.096-.369-1.751.104-.723.439-1.359 1.005-1.91.535-.519 1.118-.831 1.75-.936a2.478 2.478 0 0 1 1.223.096 2.48 2.48 0 0 1 1.052.645c.448.461.693 1.008.735 1.64.043.59-.061 1.313-.311 2.168a17.73 17.73 0 0 1-.809 2.269l3.366-3.27.626.645Zm6.67-13.54c.511.402.909.836 1.194 1.302.285.466.446.924.484 1.372.038.449-.004.881-.126 1.297a3.57 3.57 0 0 1-.612 1.151 3.613 3.613 0 0 1-1.022.912 2.955 2.955 0 0 1-1.112.368c-.36.032-.73.006-1.109-.078a4.783 4.783 0 0 1-1.068-.38 6.114 6.114 0 0 1-.931-.608c-.862-.678-1.398-1.486-1.609-2.425-.207-.944.015-1.83.666-2.658.347-.443.73-.77 1.147-.981.421-.218.821-.331 1.2-.34a3.6 3.6 0 0 1 1.152.167c.393.115.724.249.992.405.273.149.525.315.754.496Zm-3.515 4.547c.276.217.571.397.885.542.318.139.649.232.993.28.338.043.674 0 1.007-.129.338-.134.633-.362.886-.684.434-.552.566-1.165.397-1.837-.174-.677-.621-1.298-1.339-1.864-.775-.61-1.507-.903-2.196-.877-.69.015-1.234.275-1.632.781-.433.552-.564 1.175-.393 1.868.17.683.634 1.323 1.392 1.92Zm12.841-12.014-.551.936-5.071-2.99a3.437 3.437 0 0 1-.19.842c-.092.243-.279.626-.56 1.147l-.642-.378.055-.095c.252-.429.389-.87.411-1.324a2.021 2.021 0 0 0-.356-1.255l.417-.709 6.487 3.826Zm1.769-17.735-.042 1.089c-.369.067-.707.23-1.014.49a2.541 2.541 0 0 0-.707.976c-.304.721-.303 1.408.002 2.06.309.678.942 1.218 1.898 1.621-.323-.287-.516-.705-.578-1.255-.062-.55.033-1.125.285-1.725.343-.816.833-1.415 1.469-1.798.63-.385 1.322-.419 2.076-.102.714.301 1.196.814 1.446 1.538.244.722.175 1.538-.208 2.448a4.094 4.094 0 0 1-.742 1.199c-.3.318-.612.552-.936.701a3.284 3.284 0 0 1-1.063.266 4.122 4.122 0 0 1-1.115-.064 5.742 5.742 0 0 1-1.093-.342c-.639-.269-1.161-.604-1.563-1.004-.407-.409-.677-.84-.812-1.294a3.718 3.718 0 0 1-.167-1.356 4.1 4.1 0 0 1 .316-1.319 3.474 3.474 0 0 1 1.076-1.428c.473-.372.964-.605 1.472-.701Zm3.046 2.343c-.519-.219-.999-.179-1.441.119-.442.298-.777.716-1.004 1.256-.263.627-.318 1.183-.166 1.668.156.478.46.812.911 1.002.377.159.74.173 1.088.042.348-.131.633-.328.855-.592a3.72 3.72 0 0 0 .531-.895c.227-.54.287-1.05.18-1.532-.104-.488-.422-.844-.954-1.068Zm3.485-39.543.399 1.144.914-.685.402.529-.937.718.928.654-.398.546-.928-.654-.314 1.096-.623-.191.303-1.117-1.129-.008.005-.68 1.15.008-.365-1.133.593-.227Zm-1.859-18.628.602 1.05.772-.842.493.446-.788.878 1.032.471-.291.61-1.032-.47-.107 1.134-.647-.072.092-1.154-1.111.201-.121-.67 1.132-.204-.568-1.046.542-.332Zm-5.261-17.966.785.922.604-.971.566.347-.612 1.01 1.101.272-.173.653-1.101-.272.104 1.135-.65.048-.122-1.151-1.055.403-.242-.636 1.075-.41-.751-.923.471-.427Zm-2.547-16.4-.905-.628c.045-.186.078-.33.1-.431a2.85 2.85 0 0 0 .02-.432 3.552 3.552 0 0 0-.071-.634c-.122-.645-.422-1.335-.9-2.071-.501-.773-1.024-1.258-1.569-1.453-.418-.147-.804-.105-1.16.126a.978.978 0 0 0-.4.47.987.987 0 0 0-.035.611c.046.232.107.441.184.627.073.18.176.391.308.636l.553 1.054c.293.56.495.951.606 1.176.101.222.187.476.258.761.068.279.081.54.04.786-.083.49-.345.878-.787 1.165-.661.43-1.347.448-2.055.054-.616-.332-1.221-.955-1.814-1.869-1.006-1.552-1.274-2.918-.801-4.097l.889.625a3.87 3.87 0 0 0 .001 1.452c.091.464.314.969.668 1.515.171.264.351.5.539.71.182.213.381.406.598.579.213.167.437.265.674.294a.933.933 0 0 0 .659-.153.997.997 0 0 0 .357-.377.865.865 0 0 0 .048-.489 3.583 3.583 0 0 0-.134-.489 6.356 6.356 0 0 0-.252-.53l-1.114-2.14c-.37-.719-.525-1.36-.463-1.923.061-.563.353-1.014.873-1.353.27-.175.553-.29.85-.343a2.39 2.39 0 0 1 .987.052c.355.091.739.313 1.15.665.405.356.803.834 1.193 1.436.525.81.883 1.623 1.074 2.441.19.818.134 1.544-.169 2.177Zm-8.7-14.944.711.863-5.97 4.928-.711-.864 5.97-4.927Zm-11.008-11.515.776.743-.041 8.825a5479.16 5479.16 0 0 1 4.406-4.647l.761.728-5.347 5.6-.816-.782.066-8.786a3277.035 3277.035 0 0 1-4.391 4.647l-.76-.728 5.346-5.6Zm-14.097-7.838-.816-.862c1.493-.84 3.162-.617 5.009.67.737.514 1.308 1.09 1.71 1.727.399.643.592 1.345.581 2.103-.022.76-.287 1.507-.796 2.24-.698 1.002-1.599 1.568-2.704 1.698-1.105.13-2.251-.22-3.439-1.047-1.708-1.191-2.471-2.636-2.286-4.335l1.106.464a2.534 2.534 0 0 0 .38 1.682c.313.521.752.979 1.316 1.372a5.2 5.2 0 0 0 .901.508c.304.14.628.237.973.29.34.05.667.047.983-.01.315-.056.632-.192.95-.407.319-.214.605-.505.86-.871.593-.852.765-1.695.516-2.528-.253-.827-.829-1.554-1.728-2.181-1.277-.89-2.449-1.061-3.516-.513Zm-12.976-9.864 6.635 3.324-3.462 6.928-6.38-3.196.426-.854 5.401 2.706 1.03-2.061-5.264-2.637.412-.824 5.263 2.636 1.168-2.335-5.656-2.833.427-.854Zm-21.814-7.189 6.008 1.454-.242 1.002c-1.433.331-2.5.61-3.202.84-.286.096-.491.167-.615.212a5.883 5.883 0 0 0-.577.244 2.564 2.564 0 0 0-.59.343 2.22 2.22 0 0 0-.412.442 1.577 1.577 0 0 0-.29.596c-.129.533-.045.998.25 1.393.287.4.704.667 1.251.799.703.17 1.275.072 1.717-.296.139-.109.259-.246.358-.41.091-.158.159-.3.204-.424.044-.118.096-.286.156-.505l.994.41a9.618 9.618 0 0 1-.255.684c-.254.555-.681.971-1.282 1.247-.665.298-1.382.354-2.149.169-.724-.175-1.299-.503-1.725-.982a2.49 2.49 0 0 1-.572-1.086 2.496 2.496 0 0 1-.017-1.235 2.532 2.532 0 0 1 .993-1.498c.475-.352 1.141-.65 1.997-.894a17.705 17.705 0 0 1 2.348-.527l-4.559-1.103.211-.875Zm-14.997 1.583c.067-.648.222-1.217.463-1.706.242-.49.542-.871.9-1.143a3.502 3.502 0 0 1 1.163-.585 3.558 3.558 0 0 1 1.299-.097c.494.05.933.177 1.316.379.375.208.676.456.903.744.22.288.396.615.527.981.13.374.213.743.249 1.107.029.363.024.734-.015 1.113-.113 1.091-.51 1.977-1.189 2.656-.688.68-1.554.965-2.601.856-.56-.058-1.04-.207-1.441-.447-.409-.24-.718-.52-.927-.835a3.596 3.596 0 0 1-.474-1.064 4.479 4.479 0 0 1-.189-1.057 5.517 5.517 0 0 1 .016-.902Zm5.717.548c.036-.35.031-.696-.014-1.039a3.76 3.76 0 0 0-.294-.99 2.06 2.06 0 0 0-.646-.784 2.118 2.118 0 0 0-1.051-.385c-.698-.072-1.286.143-1.764.645-.478.51-.765 1.219-.859 2.128-.101.983.043 1.759.432 2.329.381.576.891.897 1.531.963.698.073 1.293-.149 1.787-.664.486-.508.779-1.243.878-2.203ZM104.34.216l1.084-.033.182 5.89c.288-.142.559-.238.814-.29.254-.051.676-.097 1.267-.138l.023.746-.109.004a2.843 2.843 0 0 0-1.338.36 2.01 2.01 0 0 0-.869.97l-.821.026-.233-7.535ZM88.418 8.188l.942-.547c.254.277.572.476.955.598a2.54 2.54 0 0 0 1.202.078c.77-.129 1.35-.496 1.739-1.102.407-.624.525-1.449.355-2.473-.07.427-.32.813-.752 1.16-.43.346-.967.572-1.608.68-.873.144-1.64.05-2.303-.285-.662-.327-1.06-.894-1.194-1.703-.127-.765.048-1.446.526-2.045.48-.592 1.206-.969 2.179-1.13.511-.086.981-.09 1.409-.013.428.084.792.224 1.091.419.3.202.565.454.793.757.23.31.41.637.54.978.131.342.23.711.296 1.108.114.685.11 1.305-.013 1.86-.129.562-.349 1.022-.66 1.378-.31.363-.662.651-1.056.865-.394.214-.822.36-1.283.437a3.462 3.462 0 0 1-1.78-.149c-.567-.202-1.026-.492-1.378-.871Zm.352-3.83c.092.556.382.941.87 1.157.488.215 1.02.275 1.596.179.67-.112 1.17-.362 1.498-.75.32-.388.44-.823.36-1.306-.067-.405-.249-.72-.545-.944a2.023 2.023 0 0 0-.957-.408c-.34-.04-.687-.03-1.04.029-.576.096-1.04.318-1.389.665-.357.349-.488.808-.393 1.378ZM53.516 22.52l.753-.948-1.067-.408.232-.623 1.107.41.056-1.135.674.046-.057 1.134 1.093-.32.172.63-1.105.34.596.96-.577.36-.608-.979-.761.914-.508-.381Zm-14.74 11.52.566-1.07-1.124-.204.114-.655 1.163.198-.154-1.125.67-.08.154 1.125 1.015-.515.285.587-1.024.538.763.833-.5.46-.778-.85-.58 1.04-.57-.282ZM26.413 48.086l.359-1.157-1.142.007-.01-.665 1.18-.02-.358-1.077.644-.203.358 1.078.903-.694.388.524-.907.718.903.678-.407.544-.92-.69-.38 1.128-.611-.171ZM13.924 58.999l-.049 1.101c-.18.062-.32.11-.417.146a3.454 3.454 0 0 0-.873.612c-.479.448-.902 1.07-1.269 1.867-.385.838-.514 1.539-.388 2.104.098.433.34.737.725.915a.978.978 0 0 0 .611.088.983.983 0 0 0 .535-.297c.171-.162.315-.326.43-.49.113-.157.237-.358.373-.6l.595-1.031c.316-.547.54-.928.67-1.141.134-.204.302-.413.504-.625.2-.206.414-.357.643-.453.458-.191.926-.177 1.404.043.717.331 1.098.901 1.143 1.712.049.698-.155 1.543-.61 2.533-.773 1.68-1.784 2.636-3.032 2.866l.053-1.087c.475-.192.883-.45 1.226-.775.343-.325.65-.784.922-1.375.131-.286.235-.564.312-.835.083-.268.14-.54.17-.816a1.354 1.354 0 0 0-.112-.727.933.933 0 0 0-.48-.476.99.99 0 0 0-.51-.102.856.856 0 0 0-.438.22c-.13.126-.244.25-.341.375a6.407 6.407 0 0 0-.313.496l-1.213 2.086c-.41.698-.868 1.17-1.377 1.42-.508.248-1.045.242-1.609-.018a2.293 2.293 0 0 1-.743-.536 2.401 2.401 0 0 1-.483-.863c-.113-.35-.13-.793-.053-1.329.085-.533.277-1.125.576-1.776.403-.877.9-1.615 1.489-2.213.589-.598 1.232-.938 1.929-1.02ZM5.947 74.343l.35-1.064 7.349 2.424-.35 1.063-7.349-2.424ZM2.1 89.81l.214-1.055 7.475-4.676a2944.34 2944.34 0 0 1-6.278-1.25l.209-1.032 7.583 1.537-.223 1.107-7.456 4.636c3.921.772 6.011 1.184 6.269 1.236l-.209 1.033-7.583-1.537Zm.908 16.119-.293 1.151c-1.506-.815-2.209-2.348-2.108-4.599.04-.899.223-1.689.546-2.37.33-.68.819-1.218 1.466-1.614.653-.388 1.425-.562 2.316-.522 1.219.055 2.178.516 2.878 1.382.7.867 1.017 2.023.952 3.47-.094 2.083-.908 3.5-2.44 4.251l-.2-1.184a2.531 2.531 0 0 0 1.218-1.22c.273-.544.425-1.159.456-1.846a5.257 5.257 0 0 0-.052-1.035 3.644 3.644 0 0 0-.274-.979 3.055 3.055 0 0 0-.533-.826 2.496 2.496 0 0 0-.852-.588 3.31 3.31 0 0 0-1.194-.262c-1.037-.047-1.84.257-2.411.913-.564.655-.87 1.531-.92 2.627-.07 1.557.412 2.64 1.445 3.251ZM1.606 122.18l-.735-7.392 7.699-.768.707 7.108-.949.095-.598-6.017-2.29.229.583 5.863-.916.092-.584-5.864-2.595.259.627 6.3-.949.095Zm5.576 22.306-1.98-5.863.975-.33c1.045 1.036 1.85 1.79 2.419 2.262.234.191.403.327.508.407.106.088.278.207.514.359.239.159.44.264.604.317.167.059.365.096.594.111.23.023.45-.001.658-.072.519-.176.866-.494 1.042-.955.185-.457.188-.952.008-1.485-.232-.686-.621-1.118-1.167-1.296a1.504 1.504 0 0 0-.538-.085 2.832 2.832 0 0 0-.467.054 6.556 6.556 0 0 0-.51.138l-.184-1.061a9.45 9.45 0 0 1 .713-.149c.605-.081 1.185.059 1.738.419.607.405 1.037.981 1.29 1.73.239.706.27 1.368.092 1.984a2.472 2.472 0 0 1-.612 1.064 2.49 2.49 0 0 1-1.034.675 2.529 2.529 0 0 1-1.795-.041c-.55-.215-1.158-.62-1.821-1.214a17.705 17.705 0 0 1-1.699-1.706l1.503 4.448-.851.289Zm9.343 11.851c-.583.289-1.145.462-1.688.519-.543.057-1.024.006-1.445-.153a3.494 3.494 0 0 1-1.115-.671 3.57 3.57 0 0 1-.776-1.048 3.61 3.61 0 0 1-.383-1.316 2.963 2.963 0 0 1 .147-1.163 3.6 3.6 0 0 1 .547-.97c.246-.309.514-.577.802-.801a6.06 6.06 0 0 1 .948-.581c.982-.487 1.941-.625 2.878-.412.94.219 1.644.801 2.111 1.745.25.504.38.991.392 1.458.015.475-.055.885-.21 1.231-.155.347-.37.67-.645.97a4.523 4.523 0 0 1-.792.723c-.252.182-.51.339-.771.469Zm-2.59-5.133a4.398 4.398 0 0 0-.869.567 3.763 3.763 0 0 0-.679.777 2.05 2.05 0 0 0-.317.966c-.024.363.054.728.236 1.095.312.629.807 1.012 1.486 1.149.686.133 1.438-.003 2.256-.409.884-.439 1.462-.975 1.736-1.609.283-.63.282-1.234-.004-1.811-.311-.629-.816-1.015-1.515-1.158-.689-.14-1.465.005-2.33.433Zm5.315 16.773-.608-.901 4.876-3.298a3.43 3.43 0 0 1-.678-.535c-.18-.187-.444-.52-.793-.999l.617-.418.062.091c.278.412.617.726 1.018.94.4.215.828.287 1.284.218l.46.682-6.239 4.22Zm15.232 9.222-.964-.506a2.152 2.152 0 0 0-.006-1.127 2.552 2.552 0 0 0-.575-1.059c-.52-.584-1.14-.879-1.86-.884-.744-.011-1.503.329-2.278 1.02.398-.169.858-.163 1.381.017s1 .513 1.433.999c.588.661.918 1.361.99 2.101.077.735-.19 1.375-.8 1.92-.579.516-1.248.732-2.01.646-.755-.09-1.46-.503-2.117-1.24a4.133 4.133 0 0 1-.763-1.186 3.074 3.074 0 0 1-.23-1.148c.011-.362.083-.721.218-1.076.14-.36.318-.686.537-.979.218-.293.478-.574.778-.841.518-.463 1.043-.79 1.577-.982.544-.192 1.05-.251 1.516-.178a3.73 3.73 0 0 1 1.295.432c.391.219.742.504 1.053.853.423.475.699 1.004.826 1.586.132.588.131 1.132 0 1.632Zm-3.422 1.747c.42-.375.59-.826.512-1.354-.078-.528-.312-1.01-.7-1.447-.453-.508-.93-.797-1.434-.867a1.557 1.557 0 0 0-1.295.392c-.306.273-.474.594-.506.966-.031.371.024.713.167 1.027.148.309.34.598.579.865.389.437.823.71 1.304.821.485.116.942-.019 1.373-.403Zm34.16 20.149-1.202-.132.225 1.121-.65.136-.245-1.155-.988.557-.321-.595.987-.557-.852-.755.44-.481.877.754.492-1.017.611.296-.501 1.037 1.178.157-.05.634Zm17.6 6.327-1.207.092.428 1.06-.614.254-.454-1.09-.868.73-.425-.525.868-.73-.977-.584.343-.555 1.001.58.296-1.091.656.178-.302 1.112 1.187-.064.067.633Zm18.462 2.967-1.169.314.616.963-.557.362-.646-.987-.72.878-.514-.437.719-.879-1.068-.393.235-.609 1.091.385.09-1.127.677.054-.091 1.149 1.154-.282.183.609Z" fill="#A6CE39"/></svg>