<svg width="695" height="651" fill="none" xmlns="http://www.w3.org/2000/svg"><path fill-rule="evenodd" clip-rule="evenodd" d="M329.791 8.55C387.866-4.108 453.736-5.882 504.255 25.436c50.309 31.19 60.597 98.164 92.026 148.323 32.782 52.315 107.114 92.903 97.323 153.858-10.293 64.09-110.241 71.448-142.551 127.746-32.447 56.537 17.544 155.508-38.811 188.269-56.275 32.715-117.358-59.604-182.451-59.641-65.032-.038-119.514 76.26-182.33 59.431-60.779-16.284-94.707-83.514-120.977-140.69C1.457 448.262-3.827 387.241 2.36 327.617c5.81-55.97 22.786-111.762 58.419-155.313 33.354-40.766 88.556-51.926 133.548-79.314 46.238-28.146 82.574-72.912 135.463-84.44Z" fill="url(#a)"/><path fill-rule="evenodd" clip-rule="evenodd" d="M329.791 8.55C387.866-4.108 453.736-5.882 504.255 25.436c50.309 31.19 60.597 98.164 92.026 148.323 32.782 52.315 107.114 92.903 97.323 153.858-10.293 64.09-110.241 71.448-142.551 127.746-32.447 56.537 17.544 155.508-38.811 188.269-56.275 32.715-117.358-59.604-182.451-59.641-65.032-.038-119.514 76.26-182.33 59.431-60.779-16.284-94.707-83.514-120.977-140.69C1.457 448.262-3.827 387.241 2.36 327.617c5.81-55.97 22.786-111.762 58.419-155.313 33.354-40.766 88.556-51.926 133.548-79.314 46.238-28.146 82.574-72.912 135.463-84.44Z" fill="#000" fill-opacity=".2"/><defs><linearGradient id="a" x1="347.243" y1="0" x2="173.5" y2="343.5" gradientUnits="userSpaceOnUse"><stop offset=".029" stop-color="#14FF00"/><stop offset=".797" stop-color="#A6CE39"/><stop offset="1" stop-color="#FFEBA4"/></linearGradient></defs></svg>