<svg width="45" height="45" fill="none" xmlns="http://www.w3.org/2000/svg"><path d="M31.203 4.895a.45.45 0 0 0-.448-.413H14.473a.45.45 0 0 0-.449.413 5.26 5.26 0 0 1-4.811 4.81.45.45 0 0 0-.412.449v10.514c0 8.643 4.831 15.796 13.273 19.633l.357.16a.448.448 0 0 0 .365 0l.375-.168c8.424-3.829 13.256-10.982 13.256-19.625V10.154a.45.45 0 0 0-.412-.448 5.26 5.26 0 0 1-4.812-4.811Zm4.324 15.773c0 8.275-4.64 15.129-12.728 18.805l-.185.084-.185-.083C14.34 35.797 9.701 28.942 9.701 20.668V10.554a6.155 6.155 0 0 0 5.171-5.172h15.483a6.155 6.155 0 0 0 5.172 5.172v10.114Z" fill="#E4E4E4"/></svg>