<svg width="635" height="127" fill="none" xmlns="http://www.w3.org/2000/svg"><path fill-rule="evenodd" clip-rule="evenodd" d="M333.457 125.331c-53.101 2.471-113.329 2.817-159.52-3.296-46-6.088-55.407-19.16-84.145-28.951C59.82 82.873-8.146 74.95.806 63.052c9.411-12.51 100.799-13.946 130.341-24.934 29.668-11.036-16.042-30.354 35.487-36.749 51.454-6.385 107.306 11.634 166.823 11.642 59.462.007 109.277-14.886 166.713-11.6 55.572 3.178 86.594 16.3 110.615 27.46 22.883 10.633 27.714 22.543 22.056 34.181-5.312 10.925-20.834 21.815-53.415 30.316-30.497 7.957-80.971 10.135-122.109 15.481-42.277 5.494-75.501 14.232-123.86 16.482Z" fill="url(#a)"/><path fill-rule="evenodd" clip-rule="evenodd" d="M333.457 125.331c-53.101 2.471-113.329 2.817-159.52-3.296-46-6.088-55.407-19.16-84.145-28.951C59.82 82.873-8.146 74.95.806 63.052c9.411-12.51 100.799-13.946 130.341-24.934 29.668-11.036-16.042-30.354 35.487-36.749 51.454-6.385 107.306 11.634 166.823 11.642 59.462.007 109.277-14.886 166.713-11.6 55.572 3.178 86.594 16.3 110.615 27.46 22.883 10.633 27.714 22.543 22.056 34.181-5.312 10.925-20.834 21.815-53.415 30.316-30.497 7.957-80.971 10.135-122.109 15.481-42.277 5.494-75.501 14.232-123.86 16.482Z" fill="#000" fill-opacity=".2"/><defs><linearGradient id="a" x1="317.5" y1="102.848" x2="326.487" y2="19.617" gradientUnits="userSpaceOnUse"><stop offset=".029" stop-color="red"/><stop offset=".797" stop-color="#FF6E05"/><stop offset="1" stop-color="#FFD1A7"/></linearGradient></defs></svg>