<svg width="99" height="98" viewBox="0 0 99 98" fill="none" xmlns="http://www.w3.org/2000/svg">
<path d="M40.5037 75.0427L49.042 76.5316L48.3584 78.1536C47.6033 79.1604 46.2907 80.3602 44.4204 81.753L43.5761 82.3759C41.9091 83.6255 40.5466 84.7273 39.4886 85.6813C38.3505 86.7106 37.2952 88.0334 36.3227 89.6497C35.3284 91.2622 34.7107 92.7617 34.4694 94.1483C34.3563 94.7983 34.4625 95.3414 34.7879 95.7777C35.1134 96.2139 35.6117 96.4905 36.2826 96.6075C37.1267 96.7547 37.8307 96.5538 38.3945 96.0048C38.9367 95.4519 39.568 94.3231 40.2884 92.6182L40.917 91.1205L42.4429 91.3866L41.5445 93.4734C40.7544 95.3224 39.9452 96.5765 39.1169 97.2357C38.2632 97.9128 37.1978 98.14 35.9209 97.9173C34.7954 97.7211 33.9697 97.2757 33.4439 96.5813C32.8926 95.9048 32.7056 95.0574 32.8828 94.0391C33.0298 93.1941 33.4555 92.0294 34.1598 90.5449C34.8425 89.0567 35.4884 87.9081 36.0975 87.099C37.1331 85.7616 38.9239 84.1207 41.47 82.1761L43.1262 80.9246C45.004 79.4885 46.2908 78.3735 46.9865 77.5795L39.9415 76.351L40.5037 75.0427Z" fill="url(#paint0_linear_1867_449)"/>
<path d="M24.578 86.7025L31.6611 76.6234C32.7881 75.0167 33.9178 74.0165 35.0501 73.6228C36.1538 73.2412 37.3467 73.3113 38.6288 73.8333C39.8295 74.3221 40.6679 75.0313 41.144 75.9611C41.5914 76.903 41.6 77.9036 41.1696 78.9629C40.9462 79.513 40.528 80.2212 39.9152 81.0875L32.8446 91.1361C31.6889 92.7549 30.5592 93.7551 29.4555 94.1367C28.3518 94.5183 27.1589 94.4482 25.8768 93.9262C24.6761 93.4374 23.8478 92.7323 23.3921 91.8108C22.9161 90.881 22.8932 89.8864 23.3236 88.8271C23.5553 88.2567 23.9735 87.5485 24.578 86.7025ZM32.9039 77.5922L26.4939 86.6278C25.6506 87.8277 25.1297 88.6721 24.9311 89.161C24.6166 89.9351 24.6065 90.6314 24.9008 91.2497C25.195 91.8681 25.7593 92.3471 26.5937 92.6868C27.6316 93.1093 28.517 93.0899 29.2499 92.6285C29.9746 92.1876 30.7544 91.3773 31.5893 90.1978L38.0117 81.1317C38.8467 79.9522 39.3635 79.118 39.5621 78.629C39.8766 77.8549 39.8909 77.1485 39.6049 76.5097C39.3106 75.8914 38.7463 75.4124 37.9119 75.0727C36.8943 74.6584 36.0191 74.682 35.2862 75.1434C34.5329 75.5964 33.7388 76.4127 32.9039 77.5922Z" fill="url(#paint1_linear_1867_449)"/>
<path d="M30.6672 69.0416L37.8202 73.9405L36.5262 75.1327C35.4221 75.7355 33.7307 76.2825 31.4519 76.7735L30.4255 76.9899C28.391 77.4351 26.6947 77.8722 25.3368 78.3012C23.8748 78.7655 22.3666 79.5312 20.8121 80.5982C19.2394 81.6529 18.0561 82.761 17.2622 83.9227C16.89 84.4672 16.7617 85.0055 16.8772 85.5376C16.9927 86.0697 17.3315 86.5282 17.8935 86.9131C18.6007 87.3975 19.3245 87.5068 20.065 87.2412C20.7874 86.9632 21.8295 86.198 23.1912 84.9456L24.3836 83.8437L25.6619 84.7192L23.98 86.2453C22.4952 87.5999 21.2393 88.4052 20.2125 88.6612C19.1552 88.923 18.0916 88.6876 17.0218 87.9549C16.079 87.3091 15.5121 86.5612 15.3212 85.711C15.0998 84.8665 15.2806 84.0178 15.8637 83.1647C16.3475 82.4568 17.2173 81.5737 18.4731 80.5152C19.7108 79.4443 20.7743 78.6671 21.6637 78.1838C23.16 77.3966 25.4694 76.6466 28.5918 75.9339L30.6173 75.4825C32.9209 74.9551 34.5537 74.4746 35.5156 74.0409L29.6137 69.9988L30.6672 69.0416Z" fill="url(#paint2_linear_1867_449)"/>
<path d="M7.37019 77.5721L19.9843 70.0901L18.1285 68.1239L19.3609 67.4122L21.2167 69.3785L27.7832 65.5282L28.8695 66.6792L22.3029 70.5295L26.7839 75.2773L25.433 76.0557L8.77331 79.0588L7.37019 77.5721ZM10.3077 77.5623L24.5331 74.91L21.0705 71.2412L10.3077 77.5623Z" fill="url(#paint3_linear_1867_449)"/>
<path d="M3.01953 55.1692L4.46017 58.1718L6.92686 56.0341L7.78959 57.0052L5.36431 59.1643L8.11724 60.6401L7.43561 61.7579L4.60989 60.2707L3.98652 63.3089L2.72882 63.0524L3.26937 59.9715L0.10785 60.2534L0 58.9375L3.22432 58.6355L1.90791 55.6971L3.01953 55.1692Z" fill="url(#paint4_linear_1867_449)"/>
<path d="M23.4638 41.3132L22.2571 49.9045L20.6152 49.2737C19.5852 48.5513 18.3443 47.2774 16.8924 45.4518L16.2428 44.6275C14.9405 43.0007 13.7957 41.6736 12.8086 40.6464C11.7435 39.5415 10.3882 38.5291 8.7426 37.609C7.10004 36.6672 5.58259 36.0983 4.19024 35.9023C3.53758 35.8104 2.9988 35.9345 2.5739 36.2744C2.149 36.6144 1.88914 37.1219 1.79432 37.797C1.67503 38.6464 1.89872 39.3441 2.4654 39.8902C3.03513 40.4146 4.18291 41.0092 5.90874 41.674L7.42467 42.2538L7.20903 43.7892L5.09601 42.9588C3.22401 42.2289 1.94535 41.4605 1.26003 40.6533C0.556021 39.8214 0.294246 38.763 0.47471 37.4781C0.633763 36.3456 1.05134 35.5049 1.72744 34.9561C2.38484 34.3823 3.2248 34.1674 4.2473 34.3113C5.09577 34.4307 6.27261 34.8185 7.77782 35.4745C9.2861 36.1087 10.4541 36.7173 11.2818 37.3001C12.6511 38.2923 14.3482 40.0303 16.3733 42.5139L17.6771 44.1298C19.1725 45.9615 20.3279 47.2123 21.1435 47.8823L22.1391 40.7936L23.4638 41.3132Z" fill="url(#paint5_linear_1867_449)"/>
<path d="M11.2998 25.7618L21.5954 32.5178C23.2365 33.5927 24.2721 34.6902 24.7023 35.8102C25.1195 36.9019 25.0886 38.0977 24.6095 39.3976C24.1609 40.6149 23.4802 41.4769 22.5674 41.9837C21.6417 42.4623 20.643 42.5036 19.5712 42.1078C19.0147 41.9022 18.2939 41.5071 17.4088 40.9224L7.14412 34.1777C5.49002 33.0745 4.45436 31.9771 4.03715 30.8853C3.61993 29.7936 3.65087 28.5978 4.12996 27.298C4.57863 26.0806 5.25552 25.2289 6.16063 24.7428C7.07334 24.236 8.06559 24.1805 9.13738 24.5763C9.7145 24.7895 10.4353 25.1846 11.2998 25.7618ZM20.6687 33.793L11.4372 27.6761C10.2115 26.8718 9.35137 26.3783 8.8567 26.1956C8.07347 25.9063 7.37798 25.919 6.77024 26.2337C6.1625 26.5484 5.70273 27.1287 5.39095 27.9747C5.00311 29.0269 5.05153 29.9121 5.53618 30.6303C6.00023 31.3408 6.83478 32.0944 8.03983 32.8911L17.3023 39.0194C18.5073 39.8161 19.3572 40.3058 19.8519 40.4885C20.6351 40.7778 21.3409 40.7689 21.9692 40.4618C22.577 40.1471 23.0367 39.5668 23.3485 38.7209C23.7288 37.6892 23.6765 36.8144 23.1919 36.0962C22.7148 35.3574 21.8738 34.5897 20.6687 33.793Z" fill="url(#paint6_linear_1867_449)"/>
<path d="M29.1331 31.2755L24.4764 38.5927L23.2436 37.3372C22.6055 36.2523 22.004 34.5779 21.439 32.314L21.1893 31.2943C20.6781 29.2734 20.1861 27.5906 19.7133 26.2461C19.2017 24.7986 18.3878 23.3147 17.2714 21.7944C16.1669 20.2556 15.0217 19.1081 13.8358 18.3518C13.28 17.9973 12.7383 17.8866 12.2108 18.0195C11.6834 18.1525 11.2367 18.5065 10.8707 19.0815C10.4104 19.8049 10.3249 20.5326 10.6144 21.2648C10.9156 21.9785 11.7138 22.9959 13.0089 24.3173L14.1482 25.4741L13.316 26.7817L11.7371 25.1491C10.3359 23.7079 9.49071 22.4778 9.20141 21.4589C8.90538 20.4096 9.10559 19.3378 9.80203 18.2435C10.4159 17.279 11.1441 16.6874 11.9867 16.4685C12.8225 16.2193 13.6759 16.3724 14.5468 16.9277C15.2694 17.3886 16.1797 18.2299 17.2777 19.4516C18.3875 20.6548 19.1983 21.6934 19.7101 22.5673C20.5451 24.0386 21.3695 26.3245 22.1835 29.4251L22.7006 31.4368C23.3027 33.7242 23.836 35.3421 24.3006 36.2902L28.1429 30.2529L29.1331 31.2755Z" fill="url(#paint7_linear_1867_449)"/>
<path d="M19.8519 8.24679L27.7357 20.6218L29.638 18.7006L30.389 19.9103L28.4867 21.8314L32.5462 28.275L31.4326 29.3995L27.3731 22.956L22.7796 27.5948L21.9582 26.2688L18.4135 9.69934L19.8519 8.24679ZM19.9579 11.1854L23.0726 25.3308L26.6221 21.7463L19.9579 11.1854Z" fill="url(#paint8_linear_1867_449)"/>
<path d="M42.0772 3.15963L39.1265 4.69942L41.3417 7.09723L40.4004 7.99223L38.1652 5.63655L36.782 8.43921L35.6436 7.7939L37.0358 4.91802L33.9819 4.39396L34.1967 3.12723L37.2906 3.56704L36.9054 0.413203L38.2158 0.262156L38.623 3.47816L41.5136 2.06476L42.0772 3.15963Z" fill="url(#paint9_linear_1867_449)"/>
<path d="M56.5813 23.1592L47.9638 22.2336L48.5398 20.5702C49.2273 19.516 50.4586 18.2327 52.2336 16.7203L53.0354 16.0433C54.6169 14.687 55.9044 13.4982 56.8977 12.4768C57.9659 11.3751 58.9323 9.98588 59.797 8.30929C60.6835 6.63504 61.2018 5.09819 61.3518 3.69873C61.4221 3.04274 61.2806 2.50776 60.9272 2.09379C60.5739 1.67983 60.0586 1.43648 59.3814 1.36375C58.5295 1.27225 57.8402 1.51893 57.3135 2.10379C56.8087 2.69099 56.2526 3.85883 55.6454 5.60731L55.1162 7.14299L53.5762 6.97758L54.336 4.8363C55.0034 2.93945 55.7287 1.63497 56.5121 0.92285C57.3197 0.191213 58.3679 -0.105391 59.6567 0.0330356C60.7925 0.155039 61.6456 0.54526 62.2158 1.2037C62.8102 1.84261 63.0523 2.67593 62.9421 3.70366C62.8507 4.55646 62.5022 5.74659 61.8965 7.27406C61.3128 8.80387 60.7435 9.9924 60.1886 10.8397C59.2429 12.2421 57.5633 13.9971 55.15 16.1045L53.5793 17.462C51.7995 19.0182 50.5885 20.2152 49.9463 21.0531L57.0566 21.8168L56.5813 23.1592Z" fill="url(#paint10_linear_1867_449)"/>
<path d="M71.7101 10.4796L65.3021 21.0018C64.2827 22.6789 63.2209 23.7511 62.1168 24.2182C61.0404 24.6714 59.8455 24.6797 58.532 24.243C57.3019 23.834 56.4188 23.1812 55.8829 22.2847C55.3748 21.3742 55.3007 20.3763 55.6608 19.291C55.8478 18.7275 56.2187 17.9934 56.7735 17.0887L63.171 6.59784C64.2183 4.90676 65.28 3.83461 66.3564 3.3814C67.4327 2.92818 68.6277 2.91993 69.9412 3.35664C71.1713 3.76562 72.0439 4.41492 72.559 5.30453C73.0949 6.20108 73.1828 7.192 72.8227 8.27729C72.6288 8.86168 72.2579 9.59579 71.7101 10.4796ZM63.9985 20.1165L69.8032 10.6799C70.5661 9.42724 71.0306 8.55047 71.1968 8.04956C71.4599 7.25646 71.4244 6.56105 71.0903 5.96333C70.7562 5.3656 70.1617 4.92464 69.3069 4.64043C68.2436 4.28691 67.3613 4.36437 66.6602 4.87281C65.966 5.36038 65.2409 6.22005 64.485 7.45182L58.6699 16.9197C57.914 18.1515 57.4529 19.0178 57.2867 19.5187C57.0236 20.3118 57.0556 21.0177 57.3828 21.6363C57.717 22.234 58.3114 22.675 59.1663 22.9592C60.2087 23.3058 61.0805 23.2248 61.7817 22.7164C62.5037 22.2149 63.2426 21.3483 63.9985 20.1165Z" fill="url(#paint11_linear_1867_449)"/>
<path d="M66.7889 28.5021L59.3306 24.0829L60.5437 22.8084C61.606 22.1344 63.258 21.4777 65.4998 20.8382L66.5098 20.5549C68.5108 19.9772 70.1748 19.4298 71.5017 18.9127C72.9301 18.3535 74.385 17.4905 75.8663 16.3237C77.3665 15.1681 78.4747 13.9847 79.1909 12.7735C79.5266 12.2058 79.6194 11.6602 79.4694 11.1368C79.3193 10.6135 78.9512 10.1782 78.3651 9.8309C77.6278 9.39403 76.8984 9.33239 76.1768 9.64598C75.4742 9.97078 74.4845 10.8027 73.2076 12.1417L72.09 13.3195L70.7571 12.5298L72.3355 10.8967C73.7285 9.44754 74.9289 8.56155 75.9367 8.2387C76.9746 7.90813 78.0513 8.0733 79.1668 8.73421C80.1499 9.31671 80.7645 10.0259 81.0106 10.8617C81.2869 11.6898 81.162 12.5486 80.636 13.4381C80.1996 14.1762 79.3895 15.1145 78.2057 16.2531C77.0408 17.4029 76.0304 18.2482 75.1746 18.7889C73.733 19.6725 71.4777 20.5724 68.4087 21.4884L66.4171 22.0717C64.1529 22.7491 62.5551 23.3357 61.6237 23.8316L67.7775 27.4778L66.7889 28.5021Z" fill="url(#paint12_linear_1867_449)"/>
<path d="M89.4774 18.4615L77.3803 26.7549L79.3608 28.5952L78.1776 29.3862L76.1971 27.5459L69.8968 31.8187L68.7375 30.7415L75.0378 26.4687L70.2557 22.025L71.5527 21.1597L87.98 17.07L89.4774 18.4615ZM86.5468 18.664L72.5257 22.2439L76.221 25.6777L86.5468 18.664Z" fill="url(#paint13_linear_1867_449)"/>
<path d="M95.2853 40.5309L93.6512 37.6292L91.3298 39.9241L90.4053 39.0117L92.684 36.6982L89.8404 35.4061L90.4474 34.246L93.3644 35.5446L93.7875 32.4721L95.0593 32.6455L94.7216 35.7553L97.8579 35.2665L98.0516 36.5726L94.854 37.0854L96.36 39.9312L95.2853 40.5309Z" fill="url(#paint14_linear_1867_449)"/>
<path d="M75.7931 55.6983L76.4347 47.0462L78.1143 47.568C79.1894 48.2212 80.5111 49.411 82.0794 51.1374L82.7816 51.9173C84.1876 53.4552 85.4167 54.7043 86.469 55.6646C87.6041 56.6972 89.0228 57.6186 90.7251 58.4287C92.4258 59.2608 93.9772 59.7289 95.3794 59.8331C96.0367 59.8819 96.5662 59.7228 96.9679 59.3557C97.3697 58.9886 97.5957 58.4651 97.6461 57.7853C97.7096 56.9299 97.4407 56.2484 96.8395 55.7406C96.2366 55.2547 95.0524 54.7367 93.2868 54.1865L91.7361 53.7074L91.8508 52.1612L94.0136 52.8512C95.9294 53.4567 97.2556 54.1396 97.9923 54.9C98.7493 55.684 99.0798 56.723 98.9838 58.017C98.8992 59.1574 98.5376 60.0237 97.8989 60.6157C97.2804 61.2314 96.4564 61.5009 95.4266 61.4244C94.5722 61.3609 93.3725 61.0512 91.8276 60.4954C90.281 59.9614 89.0757 59.4308 88.2115 58.9035C86.7803 58.0033 84.973 56.3804 82.7897 54.035L81.3829 52.508C79.7708 50.7784 78.536 49.6061 77.6783 48.991L77.149 56.1298L75.7931 55.6983Z" fill="url(#paint15_linear_1867_449)"/>
<path d="M88.9482 70.4183L78.2324 64.3522C76.5245 63.3872 75.4192 62.3601 74.9166 61.2707C74.4288 60.2087 74.3814 59.0134 74.7743 57.6849C75.1423 56.4408 75.7651 55.536 76.6427 54.9704C77.5351 54.4321 78.529 54.3254 79.6244 54.65C80.1932 54.8186 80.9383 55.1656 81.8597 55.691L92.5439 61.7478C94.2667 62.7401 95.372 63.7672 95.8598 64.8292C96.3476 65.8913 96.395 67.0865 96.002 68.415C95.634 69.6591 95.0143 70.5535 94.143 71.0979C93.2654 71.6635 92.2789 71.784 91.1835 71.4593C90.5937 71.2845 89.8486 70.9374 88.9482 70.4183ZM79.0736 63.0189L88.6857 68.5171C89.9614 69.2392 90.852 69.6752 91.3576 69.8251C92.1581 70.0624 92.8512 70.004 93.4371 69.6502C94.0229 69.2963 94.4437 68.6871 94.6994 67.8225C95.0175 66.747 94.9113 65.8669 94.3806 65.1821C93.8711 64.5035 92.989 63.8063 91.7344 63.0904L82.0906 57.5829C80.836 56.867 79.9559 56.4341 79.4503 56.2842C78.6499 56.047 77.9462 56.1021 77.3393 56.4498C76.7534 56.8037 76.3326 57.4129 76.0769 58.2775C75.765 59.3318 75.8744 60.2014 76.4051 60.8862C76.9294 61.5921 77.819 62.303 79.0736 63.0189Z" fill="url(#paint16_linear_1867_449)"/>
<path d="M70.7934 66.0863L74.9611 58.4793L76.2734 59.6513C76.9812 60.692 77.691 62.3233 78.403 64.5452L78.719 65.5464C79.3614 67.5294 79.9625 69.1763 80.5223 70.4869C81.1275 71.8977 82.0368 73.325 83.2503 74.7688C84.4533 76.2319 85.6711 77.3018 86.9039 77.9786C87.4818 78.2959 88.0296 78.3709 88.5472 78.2036C89.0648 78.0363 89.4874 77.6537 89.8149 77.056C90.2269 76.304 90.2645 75.5722 89.9278 74.8605C89.5804 74.1682 88.7174 73.2053 87.3386 71.9717L86.126 70.8921L86.8708 69.5327L88.5531 71.0583C90.0456 72.4045 90.9696 73.5764 91.325 74.5742C91.6891 75.6018 91.5594 76.6844 90.9361 77.8221C90.3868 78.8248 89.6989 79.4629 88.8724 79.7366C88.0547 80.0401 87.1931 79.9433 86.2878 79.4463C85.5365 79.0339 84.5731 78.2541 83.3975 77.107C82.2113 75.9792 81.3343 74.9961 80.7663 74.1575C79.8368 72.7443 78.8644 70.5173 77.8492 67.4768L77.2015 65.5034C76.451 63.2603 75.8129 61.681 75.2873 60.7653L71.8485 67.0417L70.7934 66.0863Z" fill="url(#paint17_linear_1867_449)"/>
<path d="M81.5619 88.4566L72.8849 76.6255L71.1124 78.6672L70.2838 77.5094L72.0563 75.4677L67.5837 69.3043L68.6212 68.1091L73.0939 74.2725L77.3738 69.3423L78.2803 70.6115L82.9021 86.9128L81.5619 88.4566ZM81.2637 85.5312L77.2297 71.6206L73.9225 75.4303L81.2637 85.5312Z" fill="url(#paint18_linear_1867_449)"/>
<path d="M59.7176 94.9909L62.5611 93.2609L60.1937 91.0135L61.0744 90.0587L63.459 92.2627L64.6558 89.3753L65.834 89.9445L64.633 92.9056L67.7146 93.2282L67.5832 94.5063L64.4672 94.2704L65.058 97.3922L63.7604 97.6288L63.1435 94.4465L60.3516 96.0465L59.7176 94.9909Z" fill="url(#paint19_linear_1867_449)"/>
<defs>
<linearGradient id="paint0_linear_1867_449" x1="101.631" y1="98" x2="-17.5676" y2="27.6" gradientUnits="userSpaceOnUse">
<stop stop-color="#14FF00"/>
<stop offset="0.541667" stop-color="#A6CE39"/>
<stop offset="1" stop-color="#FFEBA4"/>
</linearGradient>
<linearGradient id="paint1_linear_1867_449" x1="101.631" y1="98" x2="-17.5676" y2="27.6" gradientUnits="userSpaceOnUse">
<stop stop-color="#14FF00"/>
<stop offset="0.541667" stop-color="#A6CE39"/>
<stop offset="1" stop-color="#FFEBA4"/>
</linearGradient>
<linearGradient id="paint2_linear_1867_449" x1="101.631" y1="98" x2="-17.5676" y2="27.6" gradientUnits="userSpaceOnUse">
<stop stop-color="#14FF00"/>
<stop offset="0.541667" stop-color="#A6CE39"/>
<stop offset="1" stop-color="#FFEBA4"/>
</linearGradient>
<linearGradient id="paint3_linear_1867_449" x1="101.631" y1="98" x2="-17.5676" y2="27.6" gradientUnits="userSpaceOnUse">
<stop stop-color="#14FF00"/>
<stop offset="0.541667" stop-color="#A6CE39"/>
<stop offset="1" stop-color="#FFEBA4"/>
</linearGradient>
<linearGradient id="paint4_linear_1867_449" x1="101.631" y1="98" x2="-17.5676" y2="27.6" gradientUnits="userSpaceOnUse">
<stop stop-color="#14FF00"/>
<stop offset="0.541667" stop-color="#A6CE39"/>
<stop offset="1" stop-color="#FFEBA4"/>
</linearGradient>
<linearGradient id="paint5_linear_1867_449" x1="101.631" y1="98" x2="-17.5676" y2="27.6" gradientUnits="userSpaceOnUse">
<stop stop-color="#14FF00"/>
<stop offset="0.541667" stop-color="#A6CE39"/>
<stop offset="1" stop-color="#FFEBA4"/>
</linearGradient>
<linearGradient id="paint6_linear_1867_449" x1="101.631" y1="98" x2="-17.5676" y2="27.6" gradientUnits="userSpaceOnUse">
<stop stop-color="#14FF00"/>
<stop offset="0.541667" stop-color="#A6CE39"/>
<stop offset="1" stop-color="#FFEBA4"/>
</linearGradient>
<linearGradient id="paint7_linear_1867_449" x1="101.631" y1="98" x2="-17.5676" y2="27.6" gradientUnits="userSpaceOnUse">
<stop stop-color="#14FF00"/>
<stop offset="0.541667" stop-color="#A6CE39"/>
<stop offset="1" stop-color="#FFEBA4"/>
</linearGradient>
<linearGradient id="paint8_linear_1867_449" x1="101.631" y1="98" x2="-17.5676" y2="27.6" gradientUnits="userSpaceOnUse">
<stop stop-color="#14FF00"/>
<stop offset="0.541667" stop-color="#A6CE39"/>
<stop offset="1" stop-color="#FFEBA4"/>
</linearGradient>
<linearGradient id="paint9_linear_1867_449" x1="101.631" y1="98" x2="-17.5676" y2="27.6" gradientUnits="userSpaceOnUse">
<stop stop-color="#14FF00"/>
<stop offset="0.541667" stop-color="#A6CE39"/>
<stop offset="1" stop-color="#FFEBA4"/>
</linearGradient>
<linearGradient id="paint10_linear_1867_449" x1="101.631" y1="98" x2="-17.5676" y2="27.6" gradientUnits="userSpaceOnUse">
<stop stop-color="#14FF00"/>
<stop offset="0.541667" stop-color="#A6CE39"/>
<stop offset="1" stop-color="#FFEBA4"/>
</linearGradient>
<linearGradient id="paint11_linear_1867_449" x1="101.631" y1="98" x2="-17.5676" y2="27.6" gradientUnits="userSpaceOnUse">
<stop stop-color="#14FF00"/>
<stop offset="0.541667" stop-color="#A6CE39"/>
<stop offset="1" stop-color="#FFEBA4"/>
</linearGradient>
<linearGradient id="paint12_linear_1867_449" x1="101.631" y1="98" x2="-17.5676" y2="27.6" gradientUnits="userSpaceOnUse">
<stop stop-color="#14FF00"/>
<stop offset="0.541667" stop-color="#A6CE39"/>
<stop offset="1" stop-color="#FFEBA4"/>
</linearGradient>
<linearGradient id="paint13_linear_1867_449" x1="101.631" y1="98" x2="-17.5676" y2="27.6" gradientUnits="userSpaceOnUse">
<stop stop-color="#14FF00"/>
<stop offset="0.541667" stop-color="#A6CE39"/>
<stop offset="1" stop-color="#FFEBA4"/>
</linearGradient>
<linearGradient id="paint14_linear_1867_449" x1="101.631" y1="98" x2="-17.5676" y2="27.6" gradientUnits="userSpaceOnUse">
<stop stop-color="#14FF00"/>
<stop offset="0.541667" stop-color="#A6CE39"/>
<stop offset="1" stop-color="#FFEBA4"/>
</linearGradient>
<linearGradient id="paint15_linear_1867_449" x1="101.631" y1="98" x2="-17.5676" y2="27.6" gradientUnits="userSpaceOnUse">
<stop stop-color="#14FF00"/>
<stop offset="0.541667" stop-color="#A6CE39"/>
<stop offset="1" stop-color="#FFEBA4"/>
</linearGradient>
<linearGradient id="paint16_linear_1867_449" x1="101.631" y1="98" x2="-17.5676" y2="27.6" gradientUnits="userSpaceOnUse">
<stop stop-color="#14FF00"/>
<stop offset="0.541667" stop-color="#A6CE39"/>
<stop offset="1" stop-color="#FFEBA4"/>
</linearGradient>
<linearGradient id="paint17_linear_1867_449" x1="101.631" y1="98" x2="-17.5676" y2="27.6" gradientUnits="userSpaceOnUse">
<stop stop-color="#14FF00"/>
<stop offset="0.541667" stop-color="#A6CE39"/>
<stop offset="1" stop-color="#FFEBA4"/>
</linearGradient>
<linearGradient id="paint18_linear_1867_449" x1="101.631" y1="98" x2="-17.5676" y2="27.6" gradientUnits="userSpaceOnUse">
<stop stop-color="#14FF00"/>
<stop offset="0.541667" stop-color="#A6CE39"/>
<stop offset="1" stop-color="#FFEBA4"/>
</linearGradient>
<linearGradient id="paint19_linear_1867_449" x1="101.631" y1="98" x2="-17.5676" y2="27.6" gradientUnits="userSpaceOnUse">
<stop stop-color="#14FF00"/>
<stop offset="0.541667" stop-color="#A6CE39"/>
<stop offset="1" stop-color="#FFEBA4"/>
</linearGradient>
</defs>
</svg>
