<svg width="33" height="33" viewBox="0 0 33 33" fill="none" xmlns="http://www.w3.org/2000/svg">
<path d="M6.38156 21.6773H5.7949C3.22823 21.6773 1.10156 19.624 1.10156 17.05V5.72731C1.10156 3.16064 3.22823 1.09998 5.80223 1.09998H17.2202C19.7942 1.09998 21.9209 3.16064 21.9209 5.72731V6.13798C25.2136 6.13798 27.1716 7.89064 27.1716 11.3153C29.7749 11.3153 31.9016 13.3393 31.9016 15.9426V27.2286C31.9016 29.8026 29.8116 31.8926 27.2376 31.8926H15.7096C13.1722 31.8926 11.0822 29.8026 11.0822 27.2286V26.6786C8.40556 26.4366 6.38156 24.926 6.38156 22.0806V21.6773ZM25.4189 11.3226V10.7726C25.4189 9.15931 24.0842 7.89064 22.5002 7.89064H11.0456C9.43223 7.89064 8.09756 9.15931 8.09756 10.7726V22.088C8.09756 23.9433 9.36623 24.7646 11.0822 24.9333V15.95C11.0822 13.4126 13.1722 11.3226 15.7096 11.3226H25.4189ZM27.2376 13.0386H15.7096C14.1329 13.0386 12.8276 14.344 12.8276 15.9573V27.2433C12.8276 28.8566 14.1329 30.162 15.7096 30.162H27.2302C28.8436 30.162 30.1489 28.8566 30.1489 27.2433V15.95C30.1489 14.3366 28.8509 13.0386 27.2376 13.0386ZM20.1682 6.14531V5.73464C20.1682 4.12131 18.8336 2.85264 17.2202 2.85264H5.80223C4.1889 2.85264 2.85423 4.12131 2.85423 5.73464V17.05C2.85423 18.6633 4.1889 19.932 5.80223 19.932H6.3889V10.7726C6.3889 8.19864 8.51556 6.14531 11.0529 6.14531H20.1682Z" fill="#696969"/>
</svg>
