<svg width="10" height="10" fill="none" xmlns="http://www.w3.org/2000/svg"><g clip-path="url(#a)"><path d="M9.657 7.998 7.123 5.472c.266-.523.41-1.103.41-1.706A3.742 3.742 0 0 0 6.43 1.103 3.741 3.741 0 0 0 3.767 0a3.742 3.742 0 0 0-2.664 1.103A3.743 3.743 0 0 0 0 3.766 3.74 3.74 0 0 0 1.103 6.43a3.741 3.741 0 0 0 2.663 1.103c.603 0 1.184-.143 1.706-.409l2.526 2.534a1.17 1.17 0 0 0 1.658 0 1.173 1.173 0 0 0 0-1.66ZM2.098 5.434a2.344 2.344 0 0 1-.69-1.668c0-.63.245-1.222.69-1.668a2.343 2.343 0 0 1 1.668-.69c.63 0 1.223.245 1.669.69.445.446.69 1.038.69 1.668 0 .63-.245 1.223-.69 1.668a2.345 2.345 0 0 1-1.669.691c-.63 0-1.222-.245-1.668-.69Z" fill="#A5A5A5"/></g><defs><clipPath id="a"><path fill="#fff" d="M0 0h10v10H0z"/></clipPath></defs></svg>