<svg width="24" height="24" fill="none" xmlns="http://www.w3.org/2000/svg"><path fill-rule="evenodd" clip-rule="evenodd" d="M20.53 4.53a.75.75 0 0 0-1.06-1.06L12 10.94 4.53 3.47a.75.75 0 1 0-1.06 1.06L10.94 12l-7.47 7.47a.75.75 0 1 0 1.06 1.06L12 13.06l7.47 7.47a.75.75 0 1 0 1.06-1.06L13.06 12l7.47-7.47Z" fill="#2F3336"/><path d="m20.53 3.47.46-.46-.46.46Zm0 1.06.46.46-.46-.46Zm-1.06-1.06-.46-.46.46.46ZM12 10.94l-.46.459.46.46.46-.46-.46-.46ZM4.53 3.47l.46-.46-.46.46Zm-1.06 0-.46-.46.46.46Zm0 1.06.46-.46-.46.46ZM10.94 12l.459.46.46-.46-.46-.46-.46.46Zm-7.47 7.47.46.46-.46-.46Zm0 1.06.46-.46-.46.46Zm1.06 0 .46.46-.46-.46ZM12 13.06l.46-.459-.46-.46-.46.46.46.46Zm7.47 7.47-.46.46.46-.46Zm1.06 0 .46.46-.46-.46Zm0-1.06.46-.46-.46.46ZM13.06 12l-.459-.46-.46.46.46.46.46-.46Zm7.01-8.07a.1.1 0 0 1 0 .14l.92.92a1.4 1.4 0 0 0 0-1.98l-.92.92Zm-.14 0a.1.1 0 0 1 .14 0l.92-.92a1.4 1.4 0 0 0-1.98 0l.92.92Zm-7.47 7.469 7.47-7.47-.92-.919-7.47 7.47.92.919Zm-8.39-7.47 7.47 7.47.92-.92L4.99 3.01l-.92.92Zm-.14 0a.1.1 0 0 1 .14 0l.92-.919a1.4 1.4 0 0 0-1.98 0l.92.92Zm0 .142a.1.1 0 0 1 0-.142l-.92-.919a1.4 1.4 0 0 0 0 1.98l.92-.92Zm7.469 7.47-7.47-7.47-.919.919 7.47 7.47.919-.92Zm-7.47 8.388 7.47-7.47-.92-.919-7.469 7.47.92.92Zm0 .142a.1.1 0 0 1 0-.142l-.919-.919a1.4 1.4 0 0 0 0 1.98l.92-.92Zm.142 0a.1.1 0 0 1-.142 0l-.919.919a1.4 1.4 0 0 0 1.98 0l-.92-.92Zm7.47-7.47-7.47 7.47.919.919 7.47-7.47-.92-.919Zm8.388 7.47-7.47-7.47-.919.92 7.47 7.469.92-.92Zm.142 0a.1.1 0 0 1-.142 0l-.919.919a1.4 1.4 0 0 0 1.98 0l-.92-.92Zm0-.142a.1.1 0 0 1 0 .142l.919.919a1.4 1.4 0 0 0 0-1.98l-.92.92Zm-7.47-7.47 7.47 7.47.919-.919-7.47-7.47-.919.92Zm7.47-8.388-7.47 7.47.92.919 7.469-7.47-.92-.92Z" fill="#2F3336"/></svg>