<svg width="382" height="132" viewBox="0 0 382 132" fill="none" xmlns="http://www.w3.org/2000/svg">
<g clip-path="url(#clip0_528_49)">
<path d="M62.0876 111.899C61.5598 111.239 61.0321 111.635 61.0321 111.239C57.8659 112.03 51.9291 109.92 49.4225 110.183C49.9502 109.392 48.6309 109.524 48.6309 108.996C48.1032 109.788 47.5755 108.996 46.7839 109.26C45.9924 107.281 42.8261 108.732 42.4303 106.226C40.5833 106.226 39.9237 105.17 38.0767 104.115C38.2086 103.983 38.3405 103.983 38.4725 103.851C37.549 103.719 37.549 103.191 36.7574 103.191L37.0213 102.664C35.5701 102.4 35.0423 100.157 32.9315 99.3654C32.2719 99.2334 30.8206 96.9907 30.0291 96.463C29.6333 96.1991 28.9737 96.1991 29.8972 96.0672C29.7652 95.9352 29.7652 95.6714 29.8972 95.5395C28.9737 95.2756 28.8417 94.484 27.6544 94.0882C27.5225 93.6925 27.9182 93.4286 27.6544 93.1648C27.3905 93.0328 26.9947 93.2967 26.7309 93.1648C26.599 95.5395 29.2375 95.8033 30.0291 97.7822C29.7652 97.5184 29.3694 96.7268 29.1056 97.2545C28.9737 97.6503 30.161 99.1015 30.161 98.3099C29.7652 98.5738 29.6333 97.9142 29.8972 97.7822C30.2929 98.4419 31.0845 98.3099 31.0845 98.8377C30.6887 99.2334 30.161 98.4419 30.2929 99.1015C31.4803 99.7612 31.3484 100.421 32.008 101.344C31.4803 100.685 31.3484 101.872 30.8206 101.344C30.6887 99.3654 28.4459 99.7612 28.4459 97.7822C28.1821 97.1226 27.9182 97.6503 27.5224 97.3864C28.0502 96.8587 25.9393 95.0118 25.9393 95.6714C25.2797 94.8798 25.6755 94.616 25.5435 94.0882C25.0158 93.9563 25.4116 94.616 25.0158 94.2202C25.5435 93.2967 24.3562 92.1093 23.5646 91.1858L24.0923 90.922C23.1688 90.3943 23.0369 89.3388 22.3773 88.1515C21.5857 89.3388 23.9604 91.9774 23.5646 92.5051C23.5646 92.637 24.4881 93.6925 24.752 94.2202C25.8074 96.0672 26.599 98.3099 28.0502 99.3654C27.7863 99.2334 27.9182 98.4419 28.314 98.8377C28.314 99.2334 28.0502 99.6292 28.0502 100.025C28.8417 100.817 29.5014 101.476 30.2929 102.268C28.5779 101.212 26.8628 100.157 25.6755 98.5738C26.3351 98.4419 26.9947 99.6292 27.5224 99.4973C26.2032 98.4419 26.599 98.0461 26.0712 96.7268C25.5435 96.331 26.2032 97.2545 25.6755 97.3864C23.9604 95.8033 22.6411 94.8798 21.8496 93.4286C21.9815 93.2967 22.1134 93.1648 22.1134 92.9009C21.9815 92.769 21.9815 92.769 21.8496 92.637C22.6411 93.4286 22.905 94.0883 23.8285 94.2202C23.4327 93.8244 23.8285 93.6925 23.3008 93.2967C23.0369 92.769 22.6411 93.5605 22.3773 93.1648C22.6411 92.769 22.3773 92.2413 22.3773 91.8455C22.1134 91.8455 21.8496 91.8455 21.7176 91.4497C21.4538 91.3178 21.3218 91.4497 21.1899 91.7136C21.058 91.5816 21.058 91.3178 20.9261 91.1858V91.0539C20.7941 90.922 20.6622 90.6581 20.5303 90.5262C19.4749 87.7557 18.8152 84.0617 17.364 81.687C17.7598 80.1039 17.1001 76.9376 16.7044 76.1461C17.1001 75.4864 16.8363 72.4521 16.5724 71.9244C15.9128 72.1882 16.7044 73.6394 16.0447 74.0352C15.3851 71.1328 16.4405 67.8346 16.1767 65.196C16.4405 65.196 16.7044 65.196 16.7044 65.0641C16.3086 64.6683 16.9682 63.8768 16.8363 62.9533C17.364 61.7659 15.6489 64.6683 15.6489 65.8557C15.517 66.1195 14.9893 65.8557 15.1212 66.5153C15.1212 67.4388 15.3851 69.2858 14.8574 70.6051C14.5935 70.6051 14.5935 70.3412 14.3297 70.4732C14.1977 71.1328 14.0658 71.9244 13.9339 72.584C13.802 72.3201 13.67 71.9244 13.67 71.7924C13.0104 68.4942 13.67 64.6683 13.4062 61.8978C13.9339 61.8978 13.9339 61.1063 14.3297 60.8424C14.1977 61.8978 13.9339 63.2171 14.5935 63.481C15.1212 58.3358 16.1767 52.6629 18.5514 47.1219C20.2664 43.0322 22.773 38.9424 25.8074 35.6442C26.0712 36.04 25.6755 36.9635 25.8074 37.3593C28.4459 34.5888 30.161 31.2906 33.0634 29.4436C33.1954 30.1032 31.8761 30.6309 31.8761 31.1586C33.0634 29.9713 33.4592 30.3671 34.7785 29.9713C35.1743 29.4436 34.2508 29.9713 34.1188 29.4436C34.9104 28.9159 35.4381 28.2562 35.9658 27.8604C35.9658 27.9924 35.8339 27.9924 35.8339 28.1243C37.2851 27.7285 37.417 26.937 38.4725 26.6731C38.3405 26.5412 38.0767 26.4092 37.6809 26.5412C37.9448 26.4092 38.3405 26.1454 38.7363 26.0135C38.6044 26.0135 38.6044 26.1454 38.4725 26.1454C39.264 25.7496 38.6044 26.2773 38.6044 26.5412C38.7363 26.5412 38.8683 26.4092 38.8683 26.4092C38.0767 26.937 37.549 27.2008 37.2851 28.1243C37.6809 27.8604 37.8128 28.1243 38.3405 27.7285C38.8682 27.4647 38.2086 27.0689 38.6044 26.805C39.0002 27.0689 39.5279 26.937 39.9237 26.937C39.9237 26.6731 40.0556 26.4092 40.3195 26.2773C40.4514 26.0135 40.3195 25.8815 40.1875 25.8815C40.3195 25.7496 40.4514 25.7496 40.7152 25.6177C40.7152 25.6177 40.8472 25.6177 40.8472 25.7496C43.0899 24.6942 45.5966 23.7707 47.9713 22.9791C49.4225 22.8472 51.2695 22.8472 52.061 21.9237C51.7972 21.9237 51.5333 22.0556 51.4014 21.9237C51.5333 21.9237 51.7972 21.7918 51.9291 21.7918C52.193 22.0556 52.5888 21.7918 52.193 22.3195C52.3249 22.3195 52.3249 22.3195 52.4568 22.1875C52.4568 22.3195 52.4568 22.3195 52.5887 22.4514C52.7207 22.4514 52.8526 22.3195 52.9845 22.0556C53.1165 22.0556 53.2484 22.0556 53.3803 21.9237L53.2484 22.0556C54.3038 21.7918 55.2273 21.9237 56.6785 21.6598C56.6785 21.5279 56.6785 21.396 56.6785 21.2641C56.9424 21.2641 57.0743 21.1321 57.3382 21.1321V21.2641C57.8659 21.0002 58.3936 21.5279 58.3936 21.2641C58.5255 21.2641 58.5255 21.2641 58.6574 21.2641C58.6574 21.5279 58.5255 21.6598 58.5255 21.7918C59.1851 21.7918 59.5809 21.7918 59.8448 21.396C59.7129 21.2641 59.5809 21.2641 59.449 21.2641C59.7129 21.2641 59.9767 21.1321 60.2406 21.0002C60.6364 21.1321 60.7683 21.2641 60.7683 21.7918C61.4279 20.6044 63.5388 22.0556 64.4623 21.7918C64.858 21.7918 64.7261 21.2641 64.99 21.0002C65.1219 21.0002 65.2538 21.0002 65.3858 21.0002C66.0454 21.5279 66.9689 22.0556 68.1562 22.1875C67.1008 21.9237 68.2882 21.7918 68.4201 21.6598C68.1562 21.6598 68.1562 21.5279 68.1562 21.396C68.552 21.396 68.9478 21.5279 69.3436 21.5279C69.3436 21.7918 69.4755 21.9237 69.7394 21.9237C70.0032 21.9237 70.0032 21.7918 70.0032 21.5279C70.399 21.5279 70.6629 21.5279 71.0587 21.6598C70.9267 22.1875 71.7183 22.3195 71.9822 22.7153C70.9267 22.4514 69.7394 22.0556 69.3436 22.7153C73.5653 23.6388 78.1828 24.958 82.6683 27.2008C82.6683 27.2008 82.6683 27.2008 82.6683 27.3327H82.8002C83.5918 27.7285 84.3834 28.1243 85.1749 28.5201C85.7027 28.7839 86.0984 29.0478 86.6261 29.4436C86.6261 29.5755 86.6262 29.7074 86.89 29.7074H87.0219C87.5496 30.1032 88.0774 30.3671 88.6051 30.7629C89.1328 31.5544 89.6605 32.6099 90.584 32.346C92.5629 35.3803 94.6737 36.5677 96.3888 39.734C96.5207 39.2062 96.9165 40.9213 97.5762 41.0532C96.5207 40.9213 98.2358 41.7129 97.1804 41.5809C98.1039 42.5044 98.3677 42.9002 98.4997 43.9557C98.2358 43.4279 98.1039 43.296 97.9719 43.8237C97.84 44.6153 98.8954 43.6918 99.2912 44.4834C98.4997 44.4834 98.7635 45.0111 98.8954 45.6707C99.2912 45.2749 99.1593 44.8791 99.5551 45.0111C100.083 45.5388 99.2912 45.6707 99.4232 46.0665C99.8189 45.5388 99.9509 45.8026 100.479 46.0665C99.8189 46.1984 100.874 47.1219 100.083 46.7261C100.611 47.3858 100.742 47.7816 100.479 48.4412C99.9509 47.6496 100.347 47.1219 99.5551 47.2538C101.138 48.5731 100.347 51.6075 102.194 51.8713C101.006 52.1352 102.194 52.6629 101.534 52.7948C102.326 53.0587 101.93 54.1141 102.853 54.3779C102.721 55.0376 102.457 55.4334 102.326 56.093C102.721 56.6207 102.853 57.6761 103.513 57.8081C103.117 58.2039 103.381 59.2593 102.985 59.6551C103.513 59.3912 103.777 59.3912 104.173 59.9189C103.513 60.4466 104.041 60.9743 103.645 61.1063C104.832 64.1406 103.381 70.3412 104.041 72.7159C103.249 72.3201 103.513 73.6394 102.985 73.6394C103.909 74.0352 103.117 74.6948 103.513 75.3545C101.666 76.4099 103.513 79.3123 101.006 79.972C101.27 81.819 100.215 82.6105 99.4232 84.5894C99.2912 84.4575 99.2912 84.3256 99.1593 84.1937C99.0274 85.1171 98.4997 85.2491 98.7635 86.0406L98.2358 85.7768C98.2358 87.228 95.993 88.0196 95.4653 90.2623C95.3334 90.922 93.3545 92.6371 92.8268 93.5605C92.5629 93.9563 92.6948 94.616 92.431 93.6925C92.299 93.8244 92.0352 93.8244 91.9033 93.8244C91.7713 94.7479 90.9798 95.0118 90.7159 96.1991C90.4521 96.331 90.0563 95.9352 89.7924 96.331C89.7924 96.5949 90.0563 96.9907 89.9243 97.2545C92.299 97.1226 92.2991 94.3521 94.146 93.4286C94.0141 93.8244 93.2225 94.2202 93.7503 94.484C94.146 94.484 95.3334 93.1648 94.6737 93.2967C95.0695 93.5605 94.278 93.8244 94.146 93.6925C94.8057 93.1648 94.5418 92.5051 95.0695 92.3732C95.4653 92.637 94.6738 93.2967 95.4653 93.1648C95.993 91.9774 96.6527 91.8455 97.4442 91.1858C96.9165 91.7135 98.1039 91.8455 97.5762 92.3732C95.5972 92.769 96.2569 95.0117 94.278 95.2756C93.7503 95.6714 94.146 95.8033 94.0141 96.1991C93.3545 95.8033 91.9033 98.0461 92.431 97.9142C91.7713 98.5738 91.3756 98.3099 90.8478 98.4419C90.7159 98.9696 91.3756 98.5738 91.1117 98.9696C90.1882 98.5738 89.0009 99.8931 88.2093 100.817L87.8135 100.421C87.4177 101.476 86.3623 101.608 85.1749 102.4C86.4942 103.059 88.737 100.289 89.3966 100.685C89.5286 100.685 90.584 99.6292 90.9798 99.2334C92.6948 97.9142 94.8057 96.8587 95.5972 95.4075C95.4653 95.6714 94.6737 95.6714 95.0695 95.2756C95.4653 95.1437 95.8611 95.4075 96.2569 95.4075C98.3677 92.5051 101.006 90.1304 102.985 86.7003C103.117 86.5684 103.249 86.3045 103.381 86.0406C103.117 86.8322 102.721 87.4919 102.457 88.2834C100.347 89.7346 99.5551 93.9563 97.0485 94.616C97.1804 96.0672 95.8611 96.463 95.2015 98.178C94.8057 98.7057 94.5418 97.7822 94.146 98.4419C94.5418 100.289 90.8478 100.157 90.9798 101.872C90.7159 102.004 90.3201 102.136 90.0563 102.4H89.9243C89.7924 102.532 89.7924 102.532 89.6605 102.664C89.0009 103.059 88.4731 103.455 87.9454 103.851C86.0984 104.906 83.5918 105.698 81.6129 106.753V106.621C81.0852 106.885 80.4255 106.753 80.5575 107.281C80.1617 107.545 79.7659 107.809 79.3701 108.073C79.2382 108.073 79.2382 108.073 79.1063 108.073C79.1063 108.073 78.9743 107.941 78.8424 107.941C78.5785 107.941 78.5785 107.941 78.4466 108.073C76.7316 108.205 74.4888 108.996 73.8291 109.524C73.1695 109.128 70.1352 109.788 69.6075 110.052C69.8713 110.447 70.6629 110.052 71.3225 110.052C70.9267 110.183 70.5309 110.315 70.399 110.579C70.2671 110.579 70.2671 110.579 70.1352 110.579C70.0032 110.183 69.6074 110.579 69.4755 110.447H69.6075C69.4755 109.92 69.0797 109.656 68.4201 109.788C68.4201 110.052 68.4201 110.183 68.2882 110.447C68.552 110.447 69.3436 110.052 69.3436 110.447C69.2117 110.447 69.2117 110.579 69.3436 110.579C69.0797 110.843 68.684 110.843 68.4201 110.975C67.8924 110.975 67.2327 110.975 66.705 110.975C66.5731 110.843 66.4412 110.843 66.1773 110.711C66.0454 110.843 65.7815 110.843 65.6496 110.975C64.858 110.975 63.9346 111.107 63.2749 111.239C63.2749 110.975 63.2749 110.711 63.0111 110.711C62.6153 111.239 61.8237 110.579 60.9002 110.843C59.9767 110.579 61.4279 111.239 62.7472 111.503C62.6153 111.635 62.4833 111.767 62.0876 111.899ZM43.6177 113.746C41.7707 112.03 37.9448 111.239 37.2851 109.92C36.2297 109.788 34.6466 107.809 33.3273 107.545C33.9869 107.545 33.4592 107.149 33.3273 106.885C33.0634 107.149 32.7996 107.281 32.5357 107.281C32.5357 106.226 31.4803 105.566 30.5568 104.906C31.2164 105.302 31.7441 105.566 32.5357 105.698C32.5357 105.434 32.5357 105.17 32.7996 105.17C33.7231 106.094 34.7785 107.017 35.9658 107.941C37.549 109.392 45.7285 113.086 47.1797 113.746C47.1797 113.746 46.9158 114.273 47.0478 114.273C47.7074 114.669 48.2351 113.877 48.3671 114.801C46.2562 115.065 45.4646 113.614 43.6177 113.746ZM104.436 83.1382V83.2702C104.304 83.2702 104.436 83.1382 104.436 83.1382ZM51.1375 22.0556C51.0056 22.1875 50.8737 22.1875 50.8737 22.1875C50.8737 22.0556 51.0056 22.0556 51.1375 22.0556ZM39.9237 25.4857C40.0556 25.3538 40.0556 25.3538 40.1875 25.3538C40.0556 25.3538 39.9237 25.4857 39.9237 25.4857ZM61.0321 21.1321C60.7683 21.1321 60.6364 21.1321 60.5044 21.0002C60.6364 21.0002 60.7683 21.0002 60.9002 21.0002H61.0321C61.0321 21.0002 61.0321 21.0002 61.0321 21.1321ZM63.4068 21.396C63.2749 21.2641 62.8791 21.1321 62.4833 21.1321C62.4833 21.0002 62.6153 20.8683 62.6153 20.8683C62.7472 20.8683 62.8791 20.8683 63.0111 20.8683C63.0111 20.8683 63.143 20.8683 63.143 21.0002C63.143 21.0002 63.143 21.0002 63.143 20.8683C63.2749 20.8683 63.2749 20.8683 63.4068 20.8683C63.5388 21.1321 63.6707 21.2641 63.4068 21.396ZM67.7605 21.7918C67.1008 21.9237 66.705 21.6598 66.0454 21.2641C66.4412 21.2641 66.9689 21.396 67.3647 21.5279C67.4966 21.5279 67.6285 21.6598 67.7605 21.7918ZM114.727 40.5255C114.463 40.6575 114.331 40.6575 114.067 40.1297C111.956 35.6442 108.13 29.1797 102.589 23.7707C97.1804 18.2297 89.9243 13.7442 83.3279 11.3695C83.7237 11.5014 84.2514 11.7652 83.9876 12.0291C78.1828 9.78633 72.6418 8.46705 67.3647 7.93933C53.1165 5.69656 38.2086 8.7309 26.7309 16.1189C26.8628 16.3827 26.8628 16.5146 26.467 16.7785C22.2453 19.4171 16.3086 24.0345 11.5592 30.1032C6.80977 36.1719 3.11579 43.8237 1.53266 50.684C1.66458 50.2882 1.79651 49.6285 2.06037 49.8924C-1.36976 63.481 -0.446263 75.0906 4.30314 85.1172C4.567 84.8533 3.6435 83.534 4.43507 83.6659C4.96278 85.1171 5.62242 86.7003 6.41399 88.1515C7.33748 90.2623 8.39291 93.0328 9.84411 93.6925C6.15013 86.4364 3.6435 78.125 3.37965 70.737C3.90736 71.7924 3.77543 74.0352 4.567 74.9587C4.83085 69.9454 3.6435 63.2171 5.35856 58.4677C4.96278 60.9743 4.69893 64.4045 4.96278 67.8346C4.96278 70.3412 6.15013 77.3334 6.9417 77.993C6.80977 77.8611 6.80977 77.2015 6.9417 77.2015C7.33748 77.993 6.41399 78.3888 7.07363 78.5208C7.07363 78.2569 7.20556 78.2569 7.33748 78.2569C8.65676 81.1593 10.3718 85.6449 11.6911 87.8876C13.2742 90.7901 15.3851 93.4286 17.7598 95.8033C17.7598 95.9352 17.8917 95.9352 17.8917 96.0672C18.1556 96.7268 19.0791 97.5184 19.3429 98.0461C19.4749 98.3099 19.211 98.7057 19.3429 98.9696C21.3218 102.664 24.2243 106.358 27.7863 109.26C30.0291 111.899 33.5911 114.669 37.9448 117.044C42.1664 119.286 47.0478 121.133 51.5333 122.189C54.6996 122.98 58.5255 123.112 60.9002 123.64C64.0665 124.3 69.6074 123.376 72.3779 122.849C89.0008 120.342 105.492 108.996 113.803 92.637C122.379 76.1461 122.115 55.9611 114.727 40.5255Z" fill="white"/>
<path d="M141.212 18.1712V0.00115509H211.416V18.1712H186.969V82.5934H165.495V18.1712H141.212ZM273.525 0.00317858H294.999V82.5934H273.525V50.3823H243.791V82.5934H222.153L222.318 0.00317858H243.792V32.2143H273.525L273.525 0.00317858ZM381.719 18.1712H332.991V32.2117H375.111V50.3817H332.991V64.4222H381.719V82.5923H323.905L311.516 70.2036V0H381.72L381.719 18.1712Z" fill="white"/>
<path d="M170.47 101.231H153.163V107.771H176.084L183.101 113.541V125.466L176.084 131.237H148.017L141.001 125.466V119.696H149.888L153.631 122.773H170.938V116.234H148.017L141 110.463V98.5382L148.017 92.7679H176.084L183.1 98.5382V104.308H174.212L170.47 101.231ZM221.552 92.7688H233.715V131.237H221.552V116.234H204.712V131.237H192.456L192.55 92.7688H204.712V107.772H221.552L221.552 92.7688ZM243.069 131.237V98.5382L250.086 92.7679H277.216L284.233 98.5382V131.237H272.071V120.466H255.23V131.237H243.069ZM255.232 112.002H272.073V101.231H255.232V112.002ZM323.996 92.7688H335.222V97.3851L319.598 131.238H306.968L291.251 97.3851V92.7688H302.478L313.236 117.773L323.996 92.7688ZM381.999 101.231H354.401V107.771H378.257V116.234H354.401V122.773H381.999V131.237H349.255L342.238 125.466V92.7673H382L381.999 101.231Z" fill="white"/>
</g>
<defs>
<clipPath id="clip0_528_49">
<rect width="381.72" height="131.371" fill="white"/>
</clipPath>
</defs>
</svg>
