<svg width="2234" height="418" fill="none" xmlns="http://www.w3.org/2000/svg"><path fill-rule="evenodd" clip-rule="evenodd" d="M1173.14 412.507c-186.817 8.132-398.705 9.272-561.212-10.849-161.833-20.036-194.925-63.063-296.028-95.287-105.45-33.609-344.558-59.684-313.066-98.845 33.112-41.173 354.623-45.9 458.556-82.068C565.765 89.136 404.953 25.554 586.236 4.507 767.259-16.51 963.75 42.799 1173.14 42.823c209.19.024 384.45-48.992 586.51-38.18 195.51 10.46 304.65 53.652 389.16 90.384 80.5 34.993 97.5 74.195 77.59 112.499-18.68 35.958-73.29 71.801-187.91 99.78-107.3 26.189-284.87 33.359-429.6 50.954-148.74 18.082-265.62 46.841-435.75 54.247Z" fill="url(#a)"/><path fill-rule="evenodd" clip-rule="evenodd" d="M1173.14 412.507c-186.817 8.132-398.705 9.272-561.212-10.849-161.833-20.036-194.925-63.063-296.028-95.287-105.45-33.609-344.558-59.684-313.066-98.845 33.112-41.173 354.623-45.9 458.556-82.068C565.765 89.136 404.953 25.554 586.236 4.507 767.259-16.51 963.75 42.799 1173.14 42.823c209.19.024 384.45-48.992 586.51-38.18 195.51 10.46 304.65 53.652 389.16 90.384 80.5 34.993 97.5 74.195 77.59 112.499-18.68 35.958-73.29 71.801-187.91 99.78-107.3 26.189-284.87 33.359-429.6 50.954-148.74 18.082-265.62 46.841-435.75 54.247Z" fill="#000" fill-opacity=".2"/><defs><linearGradient id="a" x1="1117" y1="338.507" x2="1144.71" y2="64.172" gradientUnits="userSpaceOnUse"><stop offset=".029" stop-color="#14FF00"/><stop offset=".797" stop-color="#A6CE39"/><stop offset="1" stop-color="#FFEBA4"/></linearGradient></defs></svg>