<?xml version="1.0" standalone="no"?>
<!DOCTYPE svg PUBLIC "-//W3C//DTD SVG 20010904//EN"
 "http://www.w3.org/TR/2001/REC-SVG-20010904/DTD/svg10.dtd">
<svg version="1.0" xmlns="http://www.w3.org/2000/svg"
 width="756.000000pt" height="756.000000pt" viewBox="0 0 756.000000 756.000000"
 preserveAspectRatio="xMidYMid meet">
<metadata>
Created by potrace 1.14, written by Peter Selinger 2001-2017
</metadata>
<g transform="translate(0.000000,756.000000) scale(0.100000,-0.100000)"
fill="#000000" stroke="none">
<path d="M1966 4407 c-15 -15 -26 -38 -27 -54 -2 -83 8 -736 15 -936 1 -54 7
-102 12 -107 6 -6 81 -13 167 -16 149 -6 157 -6 157 12 1 11 0 116 0 234 l-1
216 23 1 c49 4 114 -83 197 -262 104 -224 101 -219 151 -228 25 -5 52 -8 60
-8 8 0 56 -5 107 -11 81 -10 94 -9 118 6 14 9 23 21 20 26 -4 6 -1 10 5 10 14
0 6 58 -9 73 -6 6 -11 20 -11 32 0 11 -14 40 -30 64 -16 24 -27 47 -24 52 3 5
1 9 -4 9 -9 0 -39 59 -35 71 1 3 -31 40 -71 81 -71 73 -73 76 -55 92 11 9 25
16 32 16 30 1 103 59 122 98 11 22 24 38 29 35 5 -4 6 -1 2 5 -3 6 -1 23 5 39
17 40 19 53 8 53 -6 0 -6 8 1 19 12 24 13 34 1 27 -8 -5 -16 28 -23 98 -1 10
-15 31 -30 47 -15 15 -28 31 -28 36 0 5 -13 17 -30 26 -16 10 -35 23 -42 30
-26 23 -76 47 -102 47 -14 0 -26 5 -26 10 0 6 -3 9 -7 8 -5 -1 -19 1 -33 5
-69 16 -201 39 -245 42 -27 2 -72 6 -100 9 -27 2 -100 8 -162 11 -111 7 -112
7 -137 -18z m408 -228 c21 -6 46 -12 55 -14 33 -6 86 -33 109 -54 27 -27 30
-81 5 -103 -38 -33 -131 -39 -213 -14 l-45 13 -3 92 -3 91 28 0 c15 0 45 -5
67 -11z"/>
<path d="M1419 4386 c-6 -6 -214 -35 -284 -41 -33 -2 -69 -6 -80 -9 -11 -2
-56 -7 -100 -11 -98 -9 -114 -17 -117 -58 -1 -18 -3 -48 -5 -67 -2 -19 -3 -73
-3 -120 -1 -54 -5 -87 -13 -92 -9 -5 -9 -8 -1 -8 7 0 11 -14 9 -37 -2 -21 -7
-87 -10 -148 -7 -114 -9 -149 -20 -275 -3 -41 -8 -126 -10 -188 -5 -154 -11
-149 176 -145 144 3 165 4 269 17 191 25 380 98 459 178 24 24 57 72 75 108
27 57 31 76 32 154 2 83 0 92 -29 139 -27 45 -89 101 -127 115 -39 14 -39 23
0 63 187 193 114 412 -141 424 -42 3 -78 3 -80 1z m-42 -258 c35 -10 46 -32
39 -73 -10 -52 -27 -62 -176 -104 -33 -9 -57 -4 -64 15 -4 9 -2 12 5 8 8 -4 8
-1 1 12 -11 22 -14 95 -4 111 10 16 87 40 130 40 20 1 51 -3 69 -9z m53 -428
c44 -31 41 -84 -8 -141 -9 -10 -22 -19 -29 -19 -7 0 -13 -4 -13 -9 0 -5 -8
-12 -17 -15 -31 -9 -77 -18 -100 -20 -13 0 -23 -5 -23 -9 0 -5 -19 -7 -42 -5
l-43 3 -5 70 c-4 55 3 123 13 125 1 0 26 8 54 18 29 9 82 19 118 20 54 3 71
-1 95 -18z"/>
<path d="M3158 4333 c-30 -9 -49 -21 -53 -34 -4 -11 -11 -16 -18 -13 -7 4 -9
4 -5 -1 4 -4 2 -17 -4 -29 -7 -11 -12 -24 -13 -28 0 -3 -3 -9 -6 -12 -3 -3 -3
-25 0 -49 4 -23 5 -67 4 -97 -4 -83 -3 -153 2 -158 3 -3 0 -11 -6 -19 -6 -7
-8 -13 -3 -13 11 0 11 -171 0 -188 -4 -7 -2 -12 5 -12 8 0 8 -4 -1 -15 -7 -8
-8 -15 -3 -15 8 0 10 -32 3 -50 -1 -3 -2 -9 -1 -14 2 -11 2 -91 -2 -213 -1
-51 1 -93 5 -93 4 0 15 -16 24 -35 9 -19 20 -33 24 -30 4 3 13 -2 20 -10 7 -8
21 -15 31 -15 11 0 19 -4 19 -8 0 -4 10 -8 23 -9 12 -1 33 -4 47 -8 14 -3 45
-8 70 -11 40 -5 48 -2 73 24 31 33 37 57 42 197 2 55 7 165 11 245 3 80 7 180
8 222 0 42 4 80 8 84 4 4 4 12 -1 18 -4 6 -5 36 -2 66 10 85 -2 240 -18 240
-4 0 -7 9 -8 21 -2 24 -30 48 -55 49 -9 0 -18 5 -20 11 -5 16 -145 18 -200 2z"/>
<path d="M3633 4335 c-18 -5 -33 -13 -33 -17 0 -4 -7 -8 -16 -8 -8 0 -12 -4
-9 -10 3 -5 -1 -10 -9 -10 -9 0 -15 -3 -15 -7 4 -23 -2 -43 -10 -38 -6 3 -8
-4 -6 -15 2 -12 -1 -33 -8 -47 -9 -21 -9 -27 1 -31 6 -2 12 -12 12 -23 0 -11
11 -31 25 -45 25 -25 25 -26 3 -20 -21 6 -21 5 2 -6 14 -7 28 -17 32 -23 4 -5
11 -10 15 -11 4 0 28 -4 53 -8 25 -4 57 -9 72 -10 40 -5 78 -33 94 -71 15 -37
19 -131 6 -139 -13 -8 -1 -76 13 -76 28 0 28 -17 8 -360 -4 -69 -6 -147 -5
-174 1 -62 24 -90 67 -82 16 3 57 8 90 12 33 3 69 8 80 11 11 2 31 6 43 7 13
2 35 12 48 22 l25 19 4 250 c2 138 7 291 10 340 15 234 16 238 33 251 11 8 57
13 132 13 95 1 119 4 140 20 14 10 26 27 26 37 1 10 3 40 5 67 1 26 7 47 11
47 5 0 6 5 3 10 -3 6 -4 10 -1 10 7 0 56 -107 56 -122 0 -7 9 -30 20 -51 12
-21 30 -64 42 -95 11 -31 25 -62 30 -68 5 -7 8 -16 7 -20 -1 -5 6 -27 16 -49
10 -22 18 -43 17 -47 -1 -5 3 -8 8 -8 6 0 10 -8 10 -17 0 -10 12 -40 25 -68
14 -27 25 -55 25 -61 0 -5 9 -29 20 -52 11 -22 20 -46 20 -51 0 -6 7 -27 16
-48 9 -21 20 -47 25 -58 42 -103 53 -125 71 -131 30 -9 330 -6 339 3 5 5 17
31 27 59 9 27 22 56 27 64 5 8 10 20 10 25 1 6 5 19 10 30 4 11 37 94 72 185
35 91 76 197 92 235 16 39 41 102 56 140 15 39 38 96 51 127 l23 57 -20 15
c-12 8 -31 13 -43 11 -11 -2 -77 -6 -145 -9 -69 -4 -126 -8 -129 -10 -4 -5
-95 -276 -137 -411 -16 -49 -31 -92 -34 -95 -3 -3 -7 -12 -9 -20 -2 -8 -9 -33
-17 -55 l-13 -40 -15 35 c-8 19 -17 44 -19 55 -1 11 -6 22 -9 25 -3 3 -25 64
-48 135 -23 72 -46 139 -51 150 -15 32 -50 147 -50 162 0 7 -10 34 -22 59 -26
56 -59 74 -158 89 -82 11 -171 15 -166 6 7 -10 -19 -23 -28 -13 -4 3 -12 7
-19 8 -7 1 -32 10 -57 19 -34 12 -96 17 -255 21 -387 9 -580 9 -612 -1z"/>
<path d="M6321 4325 c0 -6 -11 -11 -23 -12 -26 0 -264 -41 -290 -49 -17 -5
-58 -74 -58 -99 0 -8 -6 -29 -14 -47 -8 -18 -28 -69 -45 -113 -17 -44 -36 -93
-42 -110 -7 -16 -13 -32 -14 -35 -1 -3 -9 -22 -18 -44 -9 -21 -17 -42 -17 -45
0 -8 -73 -199 -94 -246 -8 -16 -24 -55 -36 -85 -12 -30 -30 -76 -40 -101 -10
-25 -15 -51 -10 -58 9 -16 286 -24 313 -9 19 10 52 74 49 94 -1 7 2 24 8 39
l10 26 144 -4 c136 -5 186 -15 186 -38 0 -6 4 -8 9 -5 4 3 13 -12 19 -33 25
-82 63 -101 201 -101 113 0 121 1 151 21 31 21 35 70 10 137 -12 30 -19 61
-16 69 3 8 2 12 -2 9 -4 -2 -14 10 -21 27 -7 18 -17 40 -22 50 -6 11 -6 17 2
17 6 0 3 7 -5 16 -9 8 -16 24 -16 34 0 10 -4 21 -10 25 -5 3 -7 12 -3 20 3 8
0 15 -7 15 -6 0 -8 5 -5 10 3 6 1 10 -6 10 -7 0 -10 3 -6 6 3 4 0 13 -8 20 -8
8 -12 23 -10 34 2 11 0 20 -5 20 -4 0 -7 8 -6 17 2 9 -3 28 -11 42 -7 15 -13
32 -13 39 0 7 -4 10 -10 7 -6 -3 -7 1 -4 9 3 9 2 16 -3 16 -10 0 -33 58 -33
83 0 9 -4 17 -10 17 -14 0 -13 33 1 47 9 9 7 11 -8 7 -17 -5 -23 1 -31 28 -6
18 -12 42 -14 53 -2 11 -6 22 -9 25 -4 3 -19 29 -33 59 -15 29 -36 55 -46 58
-11 3 -21 12 -23 22 -3 9 -5 11 -6 6z m-131 -445 c0 -10 4 -20 9 -22 5 -1 12
-21 15 -42 4 -22 10 -44 15 -50 5 -6 11 -23 13 -38 5 -28 -5 -38 -49 -43 -11
-2 -31 -6 -43 -10 -16 -5 -20 -4 -15 5 5 8 0 7 -14 -2 -37 -23 -42 6 -14 81
13 36 27 74 30 83 3 10 10 15 15 12 7 -5 7 -1 0 11 -13 25 6 59 25 43 7 -6 13
-19 13 -28z"/>
</g>
</svg>
