<svg width="1064" height="450" fill="none" xmlns="http://www.w3.org/2000/svg"><path fill-rule="evenodd" clip-rule="evenodd" d="M507.152 429.289c-89.776-16.482-189.718-42.2-261.481-80.166-71.466-37.809-77.016-79.365-117.075-120.107-41.781-42.494-148.193-95.29-124.261-125.345 25.162-31.6 177.509 4.818 234.822-13.506 57.557-18.403-3.29-93.918 86.89-89.354 90.05 4.557 168.677 80.856 267.173 107.27 98.403 26.39 192.259 5.892 284.798 40.756 89.538 33.734 130.822 85.018 162.022 127.585 29.73 40.553 28.6 76.757 10.32 107.529-17.17 28.887-51.201 53.146-111.636 63.008-56.57 9.232-141.774-6.922-213.955-9.877-74.178-3.037-135.859 7.217-217.617-7.793Z" fill="url(#a)"/><path fill-rule="evenodd" clip-rule="evenodd" d="M507.152 429.289c-89.776-16.482-189.718-42.2-261.481-80.166-71.466-37.809-77.016-79.365-117.075-120.107-41.781-42.494-148.193-95.29-124.261-125.345 25.162-31.6 177.509 4.818 234.822-13.506 57.557-18.403-3.29-93.918 86.89-89.354 90.05 4.557 168.677 80.856 267.173 107.27 98.403 26.39 192.259 5.892 284.798 40.756 89.538 33.734 130.822 85.018 162.022 127.585 29.73 40.553 28.6 76.757 10.32 107.529-17.17 28.887-51.201 53.146-111.636 63.008-56.57 9.232-141.774-6.922-213.955-9.877-74.178-3.037-135.859 7.217-217.617-7.793Z" fill="#000" fill-opacity=".2"/><defs><linearGradient id="a" x1="497.971" y1="357.916" x2="603.736" y2="136.856" gradientUnits="userSpaceOnUse"><stop offset=".029" stop-color="#14FF00"/><stop offset=".797" stop-color="#A6CE39"/><stop offset="1" stop-color="#FFEBA4"/></linearGradient></defs></svg>