<svg width="1088" height="376" fill="none" xmlns="http://www.w3.org/2000/svg"><path fill-rule="evenodd" clip-rule="evenodd" d="M571.341 371.059c-90.983 7.315-194.176 8.34-273.321-9.758-78.815-18.024-94.932-56.728-144.171-85.714C102.493 245.355-13.957 221.9 1.38 186.674c16.127-37.036 172.708-41.288 223.326-73.822C275.538 80.18 197.22 22.987 285.508 4.054 373.67-14.85 469.365 38.498 571.341 38.52c101.88.022 187.233-44.07 285.642-34.344 95.218 9.41 148.367 48.261 189.527 81.302 39.21 31.478 47.49 66.741 37.79 101.197-9.1 32.344-35.7 64.585-91.519 89.753-52.254 23.558-138.735 30.007-209.221 45.834-72.437 16.266-129.362 42.135-212.219 48.797Z" fill="url(#a)"/><path fill-rule="evenodd" clip-rule="evenodd" d="M571.341 371.059c-90.983 7.315-194.176 8.34-273.321-9.758-78.815-18.024-94.932-56.728-144.171-85.714C102.493 245.355-13.957 221.9 1.38 186.674c16.127-37.036 172.708-41.288 223.326-73.822C275.538 80.18 197.22 22.987 285.508 4.054 373.67-14.85 469.365 38.498 571.341 38.52c101.88.022 187.233-44.07 285.642-34.344 95.218 9.41 148.367 48.261 189.527 81.302 39.21 31.478 47.49 66.741 37.79 101.197-9.1 32.344-35.7 64.585-91.519 89.753-52.254 23.558-138.735 30.007-209.221 45.834-72.437 16.266-129.362 42.135-212.219 48.797Z" fill="#000" fill-opacity=".2"/><defs><linearGradient id="a" x1="544" y1="304.494" x2="588.947" y2="63.592" gradientUnits="userSpaceOnUse"><stop offset=".029" stop-color="#00FF47"/><stop offset=".797" stop-color="#A6CE39"/><stop offset="1" stop-color="#FFF9BF"/></linearGradient></defs></svg>