<svg width="1419" height="1261" fill="none" xmlns="http://www.w3.org/2000/svg"><g filter="url(#a)"><path fill-rule="evenodd" clip-rule="evenodd" d="M912.162 315.012c61.984 21.32 126.058 56.287 159.028 111.115 32.84 54.601 9.57 117.705 14.9 178.107 5.56 62.999 56.8 138.962 17.24 185.785-41.59 49.231-141.129.172-199.988 30.529-59.109 30.486-60.121 143.007-130.403 139.87-70.182-3.132-83.104-116.097-145.538-152.186-62.376-36.056-152.405-.839-204.346-50.06-50.256-47.624-49.538-124.043-46.449-187.601 2.943-60.55 28.069-115.78 63.512-163.456 33.271-44.755 77.168-83.172 132.908-100.762 52.175-16.465 110.661 4.548 167.381 5.996 58.291 1.488 115.306-16.754 171.755 2.663Z" fill="url(#b)"/></g><g opacity=".5"><mask id="d" maskUnits="userSpaceOnUse" x=".246" y="205.48" width="1329" height="738" fill="#000"><path fill="#fff" d="M.246 205.48h1329v738H.246z"/><path d="m290.896 222.09-16.38 2.87c-2.427-4.806-6.557-7.21-12.39-7.21-4.807 0-8.633 1.494-11.48 4.48-2.567 2.707-3.85 6.37-3.85 10.99 0 4.014 1.073 7.374 3.22 10.08 2.707 3.454 6.487 5.18 11.34 5.18 3.453 0 6.393-.793 8.82-2.38 2.427-1.586 4.013-3.546 4.76-5.88l16.87 1.75c-1.167 3.827-3.033 7.047-5.6 9.66-5.32 5.367-13.743 8.05-25.27 8.05-7.28 0-13.393-1.166-18.34-3.5a47.855 47.855 0 0 1-3.43-1.82c-1.073-.7-2.31-1.703-3.71-3.01a25.043 25.043 0 0 1-3.64-4.41c-.98-1.586-1.82-3.57-2.52-5.95-.7-2.38-1.05-4.946-1.05-7.7 0-1.026.047-2.076.14-3.15.14-1.073.443-2.543.91-4.41a25.464 25.464 0 0 1 2.03-5.18c.887-1.633 2.17-3.336 3.85-5.11 1.68-1.773 3.64-3.29 5.88-4.55 2.24-1.26 5.11-2.31 8.61-3.15 3.547-.84 7.49-1.26 11.83-1.26 11.947 0 20.347 2.684 25.2 8.05 1.82 1.96 3.22 4.48 4.2 7.56Zm57.503-13.51V258h-17.78v-17.71c-4.246.934-8.913 1.4-14 1.4-8.493 0-14.396-1.236-17.71-3.71-3.266-2.52-4.9-6.743-4.9-12.67v-16.73h17.78v12.81c0 3.407.84 5.694 2.52 6.86 1.68 1.167 4.037 1.75 7.07 1.75 3.36 0 6.44-.466 9.24-1.4v-20.02h17.78ZM415.473 258h-19.25l-2.66-8.05h-18.9l-2.66 8.05h-19.46l21.35-49.42h20.16l21.42 49.42Zm-25.62-18.97-5.81-16.73-5.67 16.73h11.48Zm90.193-16.94-16.38 2.87c-2.426-4.806-6.556-7.21-12.39-7.21-4.806 0-8.633 1.494-11.48 4.48-2.566 2.707-3.85 6.37-3.85 10.99 0 4.014 1.074 7.374 3.22 10.08 2.707 3.454 6.487 5.18 11.341 5.18 3.453 0 6.393-.793 8.819-2.38 2.427-1.586 4.014-3.546 4.76-5.88l16.87 1.75c-1.166 3.827-3.033 7.047-5.6 9.66-5.32 5.367-13.743 8.05-25.27 8.05-7.28 0-13.393-1.166-18.34-3.5a48.069 48.069 0 0 1-3.43-1.82c-1.073-.7-2.31-1.703-3.71-3.01a25.043 25.043 0 0 1-3.64-4.41c-.98-1.586-1.82-3.57-2.52-5.95-.7-2.38-1.05-4.946-1.05-7.7 0-1.026.047-2.076.14-3.15.141-1.073.444-2.543.91-4.41a25.522 25.522 0 0 1 2.03-5.18c.887-1.633 2.17-3.336 3.85-5.11 1.68-1.773 3.64-3.29 5.88-4.55 2.24-1.26 5.11-2.31 8.61-3.15 3.547-.84 7.49-1.26 11.83-1.26 11.947 0 20.347 2.684 25.2 8.05 1.821 1.96 3.22 4.48 4.2 7.56Zm54.424-2.45h-17.5V258h-17.78v-38.36h-17.57v-11.06h52.85v11.06ZM600.094 258h-17.78v-36.82h-18.2v3.22c0 4.387-.14 8.144-.42 11.27-.234 3.08-.7 5.95-1.4 8.61-.654 2.614-1.564 4.737-2.73 6.37-1.12 1.634-2.614 3.034-4.48 4.2-1.82 1.167-3.99 1.984-6.51 2.45-2.474.467-5.437.7-8.89.7h-3.22v-12.6h2.24c2.473 0 4.246-.49 5.32-1.47 1.12-.98 1.936-3.173 2.45-6.58.56-3.406.84-8.866.84-16.38v-12.39h52.78V258Zm8.418 0v-49.42h17.78v26.53l24.08-20.16v-6.37h17.78V258h-17.78v-26.46l-24.08 20.16v6.3h-17.78Zm68.087-49.42h42.07c10.08 0 15.12 3.85 15.12 11.55 0 5.74-3.15 9.45-9.45 11.13 3.874.607 6.65 1.634 8.33 3.08 2.427 2.007 3.64 5.04 3.64 9.1 0 3.407-.956 6.277-2.87 8.61-2.006 2.427-4.62 4.037-7.84 4.83-3.173.747-6.836 1.12-10.99 1.12h-38.01v-49.42Zm17.85 18.83h17.5c3.267 0 4.9-1.306 4.9-3.92 0-2.52-1.516-3.78-4.55-3.78h-17.85v7.7Zm-.14 10.71v8.61h18.69c3.827 0 5.74-1.516 5.74-4.55 0-2.706-1.493-4.06-4.48-4.06h-19.95ZM822.373 258h-17.78v-49.42h17.78V258Zm-80.15-49.42h17.78v16.59h17.43c7.046 0 12.273 1.237 15.68 3.71 3.453 2.427 5.18 6.604 5.18 12.53 0 5.787-1.75 10.01-5.25 12.67-3.454 2.614-8.167 3.92-14.14 3.92h-36.68v-49.42Zm17.78 27.79v10.43h14.91c2.146 0 3.616-.443 4.41-1.33.793-.933 1.19-2.333 1.19-4.2 0-1.353-.537-2.496-1.61-3.43-1.074-.98-2.334-1.47-3.78-1.47h-15.12ZM883.528 258h-52.78v-49.42h52.15v11.06h-34.44v8.12h31.85v11.13h-31.85v7.91h35.07V258Zm84.071-49.42V258h-17.78v-17.71c-4.247.934-8.914 1.4-14 1.4-8.494 0-14.397-1.236-17.71-3.71-3.267-2.52-4.9-6.743-4.9-12.67v-16.73h17.78v12.81c0 3.407.84 5.694 2.52 6.86 1.68 1.167 4.036 1.75 7.07 1.75 3.36 0 6.44-.466 9.24-1.4v-20.02h17.78ZM1034.67 258h-19.25l-2.66-8.05h-18.898l-2.66 8.05h-19.46l21.35-49.42h20.158l21.42 49.42Zm-25.62-18.97-5.81-16.73-5.668 16.73h11.478Zm90.2-16.94-16.38 2.87c-2.43-4.806-6.56-7.21-12.39-7.21-4.81 0-8.64 1.494-11.48 4.48-2.57 2.707-3.85 6.37-3.85 10.99 0 4.014 1.07 7.374 3.22 10.08 2.7 3.454 6.48 5.18 11.34 5.18 3.45 0 6.39-.793 8.82-2.38 2.42-1.586 4.01-3.546 4.76-5.88l16.87 1.75c-1.17 3.827-3.04 7.047-5.6 9.66-5.32 5.367-13.75 8.05-25.27 8.05-7.28 0-13.4-1.166-18.34-3.5a47.223 47.223 0 0 1-3.43-1.82c-1.08-.7-2.31-1.703-3.71-3.01a24.739 24.739 0 0 1-3.64-4.41c-.98-1.586-1.82-3.57-2.52-5.95-.7-2.38-1.05-4.946-1.05-7.7 0-1.026.04-2.076.14-3.15.14-1.073.44-2.543.91-4.41a25.292 25.292 0 0 1 2.03-5.18c.88-1.633 2.17-3.336 3.85-5.11 1.68-1.773 3.64-3.29 5.88-4.55 2.24-1.26 5.11-2.31 8.61-3.15 3.54-.84 7.49-1.26 11.83-1.26 11.94 0 20.34 2.684 25.2 8.05 1.82 1.96 3.22 4.48 4.2 7.56Zm85.36 35.91h-17.78v-49.42h17.78V258Zm-80.15-49.42h17.78v16.59h17.43c7.05 0 12.27 1.237 15.68 3.71 3.45 2.427 5.18 6.604 5.18 12.53 0 5.787-1.75 10.01-5.25 12.67-3.45 2.614-8.17 3.92-14.14 3.92h-36.68v-49.42Zm17.78 27.79v10.43h14.91c2.15 0 3.62-.443 4.41-1.33.79-.933 1.19-2.333 1.19-4.2 0-1.353-.54-2.496-1.61-3.43-1.07-.98-2.33-1.47-3.78-1.47h-15.12Zm-703.344 62.72-16.38 2.87c-2.427-4.806-6.557-7.21-12.39-7.21-4.807 0-8.633 1.494-11.48 4.48-2.567 2.707-3.85 6.37-3.85 10.99 0 4.014 1.073 7.374 3.22 10.08 2.707 3.454 6.487 5.18 11.34 5.18 3.453 0 6.393-.793 8.82-2.38 2.427-1.586 4.013-3.546 4.76-5.88l16.87 1.75c-1.167 3.827-3.033 7.047-5.6 9.66-5.32 5.367-13.743 8.05-25.27 8.05-7.28 0-13.393-1.166-18.34-3.5a47.855 47.855 0 0 1-3.43-1.82c-1.073-.7-2.31-1.703-3.71-3.01a25.043 25.043 0 0 1-3.64-4.41c-.98-1.586-1.82-3.57-2.52-5.95-.7-2.38-1.05-4.946-1.05-7.7 0-1.026.047-2.076.14-3.15.14-1.073.443-2.543.91-4.41a25.464 25.464 0 0 1 2.03-5.18c.887-1.633 2.17-3.336 3.85-5.11 1.68-1.773 3.64-3.29 5.88-4.55 2.24-1.26 5.11-2.31 8.61-3.15 3.547-.84 7.49-1.26 11.83-1.26 11.947 0 20.347 2.684 25.2 8.05 1.82 1.96 3.22 4.48 4.2 7.56Zm57.503-13.51V335h-17.78v-17.71c-4.246.934-8.913 1.4-14 1.4-8.493 0-14.396-1.236-17.71-3.71-3.266-2.52-4.9-6.743-4.9-12.67v-16.73h17.78v12.81c0 3.407.84 5.694 2.52 6.86 1.68 1.167 4.037 1.75 7.07 1.75 3.36 0 6.44-.466 9.24-1.4v-20.02h17.78ZM543.473 335h-19.25l-2.66-8.05h-18.9l-2.66 8.05h-19.46l21.35-49.42h20.16l21.42 49.42Zm-25.62-18.97-5.81-16.73-5.67 16.73h11.48Zm90.194-16.94-16.38 2.87c-2.427-4.806-6.557-7.21-12.391-7.21-4.806 0-8.633 1.494-11.479 4.48-2.567 2.707-3.851 6.37-3.851 10.99 0 4.014 1.074 7.374 3.221 10.08 2.706 3.454 6.486 5.18 11.339 5.18 3.454 0 6.394-.793 8.82-2.38 2.427-1.586 4.014-3.546 4.76-5.88l16.87 1.75c-1.166 3.827-3.033 7.047-5.599 9.66-5.321 5.367-13.744 8.05-25.271 8.05-7.28 0-13.393-1.166-18.34-3.5a48.069 48.069 0 0 1-3.43-1.82c-1.073-.7-2.309-1.703-3.709-3.01a25.005 25.005 0 0 1-3.641-4.41c-.979-1.586-1.82-3.57-2.52-5.95-.7-2.38-1.05-4.946-1.05-7.7 0-1.026.047-2.076.14-3.15.141-1.073.444-2.543.91-4.41a25.466 25.466 0 0 1 2.031-5.18c.886-1.633 2.169-3.336 3.849-5.11 1.68-1.773 3.64-3.29 5.88-4.55 2.24-1.26 5.11-2.31 8.61-3.15 3.547-.84 7.49-1.26 11.83-1.26 11.947 0 20.347 2.684 25.2 8.05 1.821 1.96 3.221 4.48 4.201 7.56Zm54.423-2.45h-17.5V335h-17.78v-38.36h-17.57v-11.06h52.85v11.06ZM728.094 335h-17.78v-36.82h-18.2v3.22c0 4.387-.14 8.144-.42 11.27-.234 3.08-.7 5.95-1.4 8.61-.654 2.614-1.564 4.737-2.73 6.37-1.12 1.634-2.614 3.034-4.48 4.2-1.82 1.167-3.99 1.984-6.51 2.45-2.474.467-5.437.7-8.89.7h-3.22v-12.6h2.24c2.473 0 4.246-.49 5.32-1.47 1.12-.98 1.936-3.173 2.45-6.58.56-3.406.84-8.866.84-16.38v-12.39h52.78V335Zm8.418 0v-49.42h17.78v26.53l24.08-20.16v-6.37h17.78V335h-17.78v-26.46l-24.08 20.16v6.3h-17.78Zm68.087-49.42h42.07c10.08 0 15.12 3.85 15.12 11.55 0 5.74-3.15 9.45-9.45 11.13 3.874.607 6.65 1.634 8.33 3.08 2.427 2.007 3.64 5.04 3.64 9.1 0 3.407-.956 6.277-2.87 8.61-2.006 2.427-4.62 4.037-7.84 4.83-3.173.747-6.836 1.12-10.99 1.12h-38.01v-49.42Zm17.85 18.83h17.5c3.267 0 4.9-1.306 4.9-3.92 0-2.52-1.516-3.78-4.55-3.78h-17.85v7.7Zm-.14 10.71v8.61h18.69c3.827 0 5.74-1.516 5.74-4.55 0-2.706-1.493-4.06-4.48-4.06h-19.95ZM950.373 335h-17.78v-49.42h17.78V335Zm-80.15-49.42h17.78v16.59h17.43c7.046 0 12.273 1.237 15.68 3.71 3.453 2.427 5.18 6.604 5.18 12.53 0 5.787-1.75 10.01-5.25 12.67-3.454 2.614-8.167 3.92-14.14 3.92h-36.68v-49.42Zm17.78 27.79v10.43h14.91c2.146 0 3.616-.443 4.41-1.33.793-.933 1.19-2.333 1.19-4.2 0-1.353-.537-2.496-1.61-3.43-1.074-.98-2.334-1.47-3.78-1.47h-15.12ZM1011.53 335h-52.782v-49.42h52.152v11.06h-34.442v8.12h31.852v11.13h-31.852v7.91h35.072V335Zm84.07-49.42V335h-17.78v-17.71c-4.25.934-8.91 1.4-14 1.4-8.49 0-14.4-1.236-17.71-3.71-3.27-2.52-4.9-6.743-4.9-12.67v-16.73h17.78v12.81c0 3.407.84 5.694 2.52 6.86 1.68 1.167 4.04 1.75 7.07 1.75 3.36 0 6.44-.466 9.24-1.4v-20.02h17.78Zm67.07 49.42h-19.25l-2.66-8.05h-18.9l-2.66 8.05h-19.46l21.35-49.42h20.16l21.42 49.42Zm-25.62-18.97-5.81-16.73-5.67 16.73h11.48Zm90.2-16.94-16.38 2.87c-2.43-4.806-6.56-7.21-12.39-7.21-4.81 0-8.64 1.494-11.48 4.48-2.57 2.707-3.85 6.37-3.85 10.99 0 4.014 1.07 7.374 3.22 10.08 2.7 3.454 6.48 5.18 11.34 5.18 3.45 0 6.39-.793 8.82-2.38 2.42-1.586 4.01-3.546 4.76-5.88l16.87 1.75c-1.17 3.827-3.04 7.047-5.6 9.66-5.32 5.367-13.75 8.05-25.27 8.05-7.28 0-13.4-1.166-18.34-3.5a47.223 47.223 0 0 1-3.43-1.82c-1.08-.7-2.31-1.703-3.71-3.01a24.739 24.739 0 0 1-3.64-4.41c-.98-1.586-1.82-3.57-2.52-5.95-.7-2.38-1.05-4.946-1.05-7.7 0-1.026.04-2.076.14-3.15.14-1.073.44-2.543.91-4.41a25.292 25.292 0 0 1 2.03-5.18c.88-1.633 2.17-3.336 3.85-5.11 1.68-1.773 3.64-3.29 5.88-4.55 2.24-1.26 5.11-2.31 8.61-3.15 3.54-.84 7.49-1.26 11.83-1.26 11.94 0 20.34 2.684 25.2 8.05 1.82 1.96 3.22 4.48 4.2 7.56Zm85.36 35.91h-17.78v-49.42h17.78V335Zm-80.15-49.42h17.78v16.59h17.43c7.05 0 12.27 1.237 15.68 3.71 3.45 2.427 5.18 6.604 5.18 12.53 0 5.787-1.75 10.01-5.25 12.67-3.45 2.614-8.17 3.92-14.14 3.92h-36.68v-49.42Zm17.78 27.79v10.43h14.91c2.15 0 3.62-.443 4.41-1.33.79-.933 1.19-2.333 1.19-4.2 0-1.353-.54-2.496-1.61-3.43-1.07-.98-2.33-1.47-3.78-1.47h-15.12ZM209.896 374.09l-16.38 2.87c-2.427-4.806-6.557-7.21-12.39-7.21-4.807 0-8.633 1.494-11.48 4.48-2.567 2.707-3.85 6.37-3.85 10.99 0 4.014 1.073 7.374 3.22 10.08 2.707 3.454 6.487 5.18 11.34 5.18 3.453 0 6.393-.793 8.82-2.38 2.427-1.586 4.013-3.546 4.76-5.88l16.87 1.75c-1.167 3.827-3.033 7.047-5.6 9.66-5.32 5.367-13.743 8.05-25.27 8.05-7.28 0-13.393-1.166-18.34-3.5a47.855 47.855 0 0 1-3.43-1.82c-1.073-.7-2.31-1.703-3.71-3.01a25.043 25.043 0 0 1-3.64-4.41c-.98-1.586-1.82-3.57-2.52-5.95-.7-2.38-1.05-4.946-1.05-7.7 0-1.026.047-2.076.14-3.15.14-1.073.443-2.543.91-4.41a25.464 25.464 0 0 1 2.03-5.18c.887-1.633 2.17-3.336 3.85-5.11 1.68-1.773 3.64-3.29 5.88-4.55 2.24-1.26 5.11-2.31 8.61-3.15 3.547-.84 7.49-1.26 11.83-1.26 11.947 0 20.347 2.684 25.2 8.05 1.82 1.96 3.22 4.48 4.2 7.56Zm57.503-13.51V410h-17.78v-17.71c-4.246.934-8.913 1.4-14 1.4-8.493 0-14.396-1.236-17.71-3.71-3.266-2.52-4.9-6.743-4.9-12.67v-16.73h17.78v12.81c0 3.407.84 5.694 2.52 6.86 1.68 1.167 4.037 1.75 7.07 1.75 3.36 0 6.44-.466 9.24-1.4v-20.02h17.78ZM334.473 410h-19.25l-2.66-8.05h-18.9l-2.66 8.05h-19.46l21.35-49.42h20.16l21.42 49.42Zm-25.62-18.97-5.81-16.73-5.67 16.73h11.48Zm90.193-16.94-16.38 2.87c-2.426-4.806-6.556-7.21-12.39-7.21-4.806 0-8.633 1.494-11.48 4.48-2.566 2.707-3.85 6.37-3.85 10.99 0 4.014 1.074 7.374 3.22 10.08 2.707 3.454 6.487 5.18 11.341 5.18 3.453 0 6.393-.793 8.819-2.38 2.427-1.586 4.014-3.546 4.76-5.88l16.87 1.75c-1.166 3.827-3.033 7.047-5.6 9.66-5.32 5.367-13.743 8.05-25.27 8.05-7.28 0-13.393-1.166-18.34-3.5a48.069 48.069 0 0 1-3.43-1.82c-1.073-.7-2.31-1.703-3.71-3.01a25.043 25.043 0 0 1-3.64-4.41c-.98-1.586-1.82-3.57-2.52-5.95-.7-2.38-1.05-4.946-1.05-7.7 0-1.026.047-2.076.14-3.15.141-1.073.444-2.543.91-4.41a25.522 25.522 0 0 1 2.03-5.18c.887-1.633 2.17-3.336 3.85-5.11 1.68-1.773 3.64-3.29 5.88-4.55 2.24-1.26 5.11-2.31 8.61-3.15 3.547-.84 7.49-1.26 11.83-1.26 11.947 0 20.347 2.684 25.2 8.05 1.821 1.96 3.22 4.48 4.2 7.56Zm54.424-2.45h-17.5V410h-17.78v-38.36h-17.57v-11.06h52.85v11.06ZM519.094 410h-17.78v-36.82h-18.2v3.22c0 4.387-.14 8.144-.42 11.27-.234 3.08-.7 5.95-1.4 8.61-.654 2.614-1.564 4.737-2.73 6.37-1.12 1.634-2.614 3.034-4.48 4.2-1.82 1.167-3.99 1.984-6.51 2.45-2.474.467-5.437.7-8.89.7h-3.22v-12.6h2.24c2.473 0 4.246-.49 5.32-1.47 1.12-.98 1.936-3.173 2.45-6.58.56-3.406.84-8.866.84-16.38v-12.39h52.78V410Zm8.418 0v-49.42h17.78v26.53l24.08-20.16v-6.37h17.78V410h-17.78v-26.46l-24.08 20.16v6.3h-17.78Zm68.087-49.42h42.07c10.08 0 15.12 3.85 15.12 11.55 0 5.74-3.15 9.45-9.45 11.13 3.874.607 6.65 1.634 8.33 3.08 2.427 2.007 3.64 5.04 3.64 9.1 0 3.407-.956 6.277-2.87 8.61-2.006 2.427-4.62 4.037-7.84 4.83-3.173.747-6.836 1.12-10.99 1.12h-38.01v-49.42Zm17.85 18.83h17.5c3.267 0 4.9-1.306 4.9-3.92 0-2.52-1.516-3.78-4.55-3.78h-17.85v7.7Zm-.14 10.71v8.61h18.69c3.827 0 5.74-1.516 5.74-4.55 0-2.706-1.493-4.06-4.48-4.06h-19.95ZM741.373 410h-17.78v-49.42h17.78V410Zm-80.15-49.42h17.78v16.59h17.43c7.046 0 12.273 1.237 15.68 3.71 3.453 2.427 5.18 6.604 5.18 12.53 0 5.787-1.75 10.01-5.25 12.67-3.454 2.614-8.167 3.92-14.14 3.92h-36.68v-49.42Zm17.78 27.79v10.43h14.91c2.146 0 3.616-.443 4.41-1.33.793-.933 1.19-2.333 1.19-4.2 0-1.353-.537-2.496-1.61-3.43-1.074-.98-2.334-1.47-3.78-1.47h-15.12ZM802.528 410h-52.78v-49.42h52.15v11.06h-34.44v8.12h31.85v11.13h-31.85v7.91h35.07V410Zm84.071-49.42V410h-17.78v-17.71c-4.247.934-8.914 1.4-14 1.4-8.494 0-14.397-1.236-17.71-3.71-3.267-2.52-4.9-6.743-4.9-12.67v-16.73h17.78v12.81c0 3.407.84 5.694 2.52 6.86 1.68 1.167 4.036 1.75 7.07 1.75 3.36 0 6.44-.466 9.24-1.4v-20.02h17.78ZM953.672 410h-19.25l-2.66-8.05h-18.9l-2.66 8.05h-19.46l21.35-49.42h20.16l21.42 49.42Zm-25.62-18.97-5.81-16.73-5.67 16.73h11.48Zm90.198-16.94-16.38 2.87c-2.431-4.806-6.561-7.21-12.394-7.21-4.807 0-8.634 1.494-11.48 4.48-2.567 2.707-3.85 6.37-3.85 10.99 0 4.014 1.073 7.374 3.22 10.08 2.706 3.454 6.486 5.18 11.34 5.18 3.453 0 6.393-.793 8.82-2.38 2.426-1.586 4.014-3.546 4.764-5.88l16.87 1.75c-1.17 3.827-3.04 7.047-5.6 9.66-5.32 5.367-13.748 8.05-25.274 8.05-7.28 0-13.394-1.166-18.34-3.5a47.855 47.855 0 0 1-3.43-1.82c-1.074-.7-2.31-1.703-3.71-3.01a25 25 0 0 1-3.64-4.41c-.98-1.586-1.82-3.57-2.52-5.95-.7-2.38-1.05-4.946-1.05-7.7 0-1.026.046-2.076.14-3.15.14-1.073.443-2.543.91-4.41a25.464 25.464 0 0 1 2.03-5.18c.886-1.633 2.17-3.336 3.85-5.11 1.68-1.773 3.64-3.29 5.88-4.55 2.24-1.26 5.11-2.31 8.61-3.15 3.546-.84 7.49-1.26 11.83-1.26 11.944 0 20.344 2.684 25.204 8.05 1.82 1.96 3.22 4.48 4.2 7.56Zm85.36 35.91h-17.78v-49.42h17.78V410Zm-80.15-49.42h17.78v16.59h17.43c7.05 0 12.27 1.237 15.68 3.71 3.45 2.427 5.18 6.604 5.18 12.53 0 5.787-1.75 10.01-5.25 12.67-3.45 2.614-8.17 3.92-14.14 3.92h-36.68v-49.42Zm17.78 27.79v10.43h14.91c2.15 0 3.62-.443 4.41-1.33.79-.933 1.19-2.333 1.19-4.2 0-1.353-.54-2.496-1.61-3.43-1.07-.98-2.33-1.47-3.78-1.47h-15.12Zm-703.344 62.72-16.38 2.87c-2.427-4.806-6.557-7.21-12.39-7.21-4.807 0-8.633 1.494-11.48 4.48-2.567 2.707-3.85 6.37-3.85 10.99 0 4.014 1.073 7.374 3.22 10.08 2.707 3.454 6.487 5.18 11.34 5.18 3.453 0 6.393-.793 8.82-2.38 2.427-1.586 4.013-3.546 4.76-5.88l16.87 1.75c-1.167 3.827-3.033 7.047-5.6 9.66-5.32 5.367-13.743 8.05-25.27 8.05-7.28 0-13.393-1.166-18.34-3.5a47.855 47.855 0 0 1-3.43-1.82c-1.073-.7-2.31-1.703-3.71-3.01a25.043 25.043 0 0 1-3.64-4.41c-.98-1.586-1.82-3.57-2.52-5.95-.7-2.38-1.05-4.946-1.05-7.7 0-1.026.047-2.076.14-3.15.14-1.073.443-2.543.91-4.41a25.464 25.464 0 0 1 2.03-5.18c.887-1.633 2.17-3.336 3.85-5.11 1.68-1.773 3.64-3.29 5.88-4.55 2.24-1.26 5.11-2.31 8.61-3.15 3.547-.84 7.49-1.26 11.83-1.26 11.947 0 20.347 2.684 25.2 8.05 1.82 1.96 3.22 4.48 4.2 7.56Zm57.503-13.51V487h-17.78v-17.71c-4.246.934-8.913 1.4-14 1.4-8.493 0-14.396-1.236-17.71-3.71-3.266-2.52-4.9-6.743-4.9-12.67v-16.73h17.78v12.81c0 3.407.84 5.694 2.52 6.86 1.68 1.167 4.037 1.75 7.07 1.75 3.36 0 6.44-.466 9.24-1.4v-20.02h17.78ZM462.473 487h-19.25l-2.66-8.05h-18.9l-2.66 8.05h-19.46l21.35-49.42h20.16l21.42 49.42Zm-25.62-18.97-5.81-16.73-5.67 16.73h11.48Zm90.194-16.94-16.381 2.87c-2.426-4.806-6.556-7.21-12.39-7.21-4.806 0-8.633 1.494-11.48 4.48-2.566 2.707-3.85 6.37-3.85 10.99 0 4.014 1.074 7.374 3.22 10.08 2.707 3.454 6.487 5.18 11.341 5.18 3.453 0 6.393-.793 8.819-2.38 2.427-1.586 4.014-3.546 4.76-5.88l16.87 1.75c-1.166 3.827-3.033 7.047-5.599 9.66-5.321 5.367-13.744 8.05-25.271 8.05-7.28 0-13.393-1.166-18.34-3.5a48.069 48.069 0 0 1-3.43-1.82c-1.073-.7-2.31-1.703-3.71-3.01a25.043 25.043 0 0 1-3.64-4.41c-.98-1.586-1.82-3.57-2.52-5.95-.7-2.38-1.05-4.946-1.05-7.7 0-1.026.047-2.076.14-3.15.141-1.073.444-2.543.91-4.41a25.522 25.522 0 0 1 2.03-5.18c.887-1.633 2.17-3.336 3.85-5.11 1.68-1.773 3.64-3.29 5.88-4.55 2.24-1.26 5.11-2.31 8.61-3.15 3.547-.84 7.49-1.26 11.83-1.26 11.947 0 20.347 2.684 25.2 8.05 1.821 1.96 3.221 4.48 4.201 7.56Zm54.423-2.45h-17.5V487h-17.78v-38.36h-17.57v-11.06h52.85v11.06ZM647.094 487h-17.78v-36.82h-18.2v3.22c0 4.387-.14 8.144-.42 11.27-.234 3.08-.7 5.95-1.4 8.61-.654 2.614-1.564 4.737-2.73 6.37-1.12 1.634-2.614 3.034-4.48 4.2-1.82 1.167-3.99 1.984-6.51 2.45-2.474.467-5.437.7-8.89.7h-3.22v-12.6h2.24c2.473 0 4.246-.49 5.32-1.47 1.12-.98 1.936-3.173 2.45-6.58.56-3.406.84-8.866.84-16.38v-12.39h52.78V487Zm8.418 0v-49.42h17.78v26.53l24.08-20.16v-6.37h17.78V487h-17.78v-26.46l-24.08 20.16v6.3h-17.78Zm68.087-49.42h42.07c10.08 0 15.12 3.85 15.12 11.55 0 5.74-3.15 9.45-9.45 11.13 3.874.607 6.65 1.634 8.33 3.08 2.427 2.007 3.64 5.04 3.64 9.1 0 3.407-.956 6.277-2.87 8.61-2.006 2.427-4.62 4.037-7.84 4.83-3.173.747-6.836 1.12-10.99 1.12h-38.01v-49.42Zm17.85 18.83h17.5c3.267 0 4.9-1.306 4.9-3.92 0-2.52-1.516-3.78-4.55-3.78h-17.85v7.7Zm-.14 10.71v8.61h18.69c3.827 0 5.74-1.516 5.74-4.55 0-2.706-1.493-4.06-4.48-4.06h-19.95ZM869.373 487h-17.78v-49.42h17.78V487Zm-80.15-49.42h17.78v16.59h17.43c7.046 0 12.273 1.237 15.68 3.71 3.453 2.427 5.18 6.604 5.18 12.53 0 5.787-1.75 10.01-5.25 12.67-3.454 2.614-8.167 3.92-14.14 3.92h-36.68v-49.42Zm17.78 27.79v10.43h14.91c2.146 0 3.616-.443 4.41-1.33.793-.933 1.19-2.333 1.19-4.2 0-1.353-.537-2.496-1.61-3.43-1.074-.98-2.334-1.47-3.78-1.47h-15.12ZM930.528 487h-52.78v-49.42h52.15v11.06h-34.44v8.12h31.85v11.13h-31.85v7.91h35.07V487Zm84.072-49.42V487h-17.781v-17.71c-4.247.934-8.914 1.4-14 1.4-8.494 0-14.397-1.236-17.71-3.71-3.267-2.52-4.9-6.743-4.9-12.67v-16.73h17.78v12.81c0 3.407.84 5.694 2.52 6.86 1.68 1.167 4.036 1.75 7.07 1.75 3.36 0 6.44-.466 9.24-1.4v-20.02h17.781Zm67.07 49.42h-19.25l-2.66-8.05h-18.9l-2.66 8.05h-19.46l21.35-49.42h20.16l21.42 49.42Zm-25.62-18.97-5.81-16.73-5.67 16.73h11.48Zm90.2-16.94-16.38 2.87c-2.43-4.806-6.56-7.21-12.39-7.21-4.81 0-8.64 1.494-11.48 4.48-2.57 2.707-3.85 6.37-3.85 10.99 0 4.014 1.07 7.374 3.22 10.08 2.7 3.454 6.48 5.18 11.34 5.18 3.45 0 6.39-.793 8.82-2.38 2.42-1.586 4.01-3.546 4.76-5.88l16.87 1.75c-1.17 3.827-3.04 7.047-5.6 9.66-5.32 5.367-13.75 8.05-25.27 8.05-7.28 0-13.4-1.166-18.34-3.5a47.223 47.223 0 0 1-3.43-1.82c-1.08-.7-2.31-1.703-3.71-3.01a24.739 24.739 0 0 1-3.64-4.41c-.98-1.586-1.82-3.57-2.52-5.95-.7-2.38-1.05-4.946-1.05-7.7 0-1.026.04-2.076.14-3.15.14-1.073.44-2.543.91-4.41a25.292 25.292 0 0 1 2.03-5.18c.88-1.633 2.17-3.336 3.85-5.11 1.68-1.773 3.64-3.29 5.88-4.55 2.24-1.26 5.11-2.31 8.61-3.15 3.54-.84 7.49-1.26 11.83-1.26 11.94 0 20.34 2.684 25.2 8.05 1.82 1.96 3.22 4.48 4.2 7.56Zm85.36 35.91h-17.78v-49.42h17.78V487Zm-80.15-49.42h17.78v16.59h17.43c7.05 0 12.27 1.237 15.68 3.71 3.45 2.427 5.18 6.604 5.18 12.53 0 5.787-1.75 10.01-5.25 12.67-3.45 2.614-8.17 3.92-14.14 3.92h-36.68v-49.42Zm17.78 27.79v10.43h14.91c2.15 0 3.62-.443 4.41-1.33.79-.933 1.19-2.333 1.19-4.2 0-1.353-.54-2.496-1.61-3.43-1.07-.98-2.33-1.47-3.78-1.47h-15.12Zm-863.344 60.72-16.38 2.87c-2.427-4.806-6.557-7.21-12.39-7.21-4.807 0-8.633 1.494-11.48 4.48-2.567 2.707-3.85 6.37-3.85 10.99 0 4.014 1.073 7.374 3.22 10.08 2.707 3.454 6.487 5.18 11.34 5.18 3.453 0 6.393-.793 8.82-2.38 2.427-1.586 4.013-3.546 4.76-5.88l16.87 1.75c-1.167 3.827-3.033 7.047-5.6 9.66-5.32 5.367-13.743 8.05-25.27 8.05-7.28 0-13.393-1.166-18.34-3.5a47.855 47.855 0 0 1-3.43-1.82c-1.073-.7-2.31-1.703-3.71-3.01a25.043 25.043 0 0 1-3.64-4.41c-.98-1.586-1.82-3.57-2.52-5.95-.7-2.38-1.05-4.946-1.05-7.7 0-1.026.047-2.076.14-3.15.14-1.073.443-2.543.91-4.41a25.464 25.464 0 0 1 2.03-5.18c.887-1.633 2.17-3.336 3.85-5.11 1.68-1.773 3.64-3.29 5.88-4.55 2.24-1.26 5.11-2.31 8.61-3.15 3.547-.84 7.49-1.26 11.83-1.26 11.947 0 20.347 2.684 25.2 8.05 1.82 1.96 3.22 4.48 4.2 7.56Zm57.503-13.51V562h-17.78v-17.71c-4.246.934-8.913 1.4-14 1.4-8.493 0-14.396-1.236-17.71-3.71-3.266-2.52-4.9-6.743-4.9-12.67v-16.73h17.78v12.81c0 3.407.84 5.694 2.52 6.86 1.68 1.167 4.037 1.75 7.07 1.75 3.36 0 6.44-.466 9.24-1.4v-20.02h17.78ZM430.473 562h-19.25l-2.66-8.05h-18.9l-2.66 8.05h-19.46l21.35-49.42h20.16l21.42 49.42Zm-25.62-18.97-5.81-16.73-5.67 16.73h11.48Zm90.193-16.94-16.38 2.87c-2.426-4.806-6.556-7.21-12.39-7.21-4.806 0-8.633 1.494-11.48 4.48-2.566 2.707-3.85 6.37-3.85 10.99 0 4.014 1.074 7.374 3.22 10.08 2.707 3.454 6.487 5.18 11.341 5.18 3.453 0 6.393-.793 8.819-2.38 2.427-1.586 4.014-3.546 4.76-5.88l16.87 1.75c-1.166 3.827-3.033 7.047-5.6 9.66-5.32 5.367-13.743 8.05-25.27 8.05-7.28 0-13.393-1.166-18.34-3.5a48.069 48.069 0 0 1-3.43-1.82c-1.073-.7-2.31-1.703-3.71-3.01a25.043 25.043 0 0 1-3.64-4.41c-.98-1.586-1.82-3.57-2.52-5.95-.7-2.38-1.05-4.946-1.05-7.7 0-1.026.047-2.076.14-3.15.141-1.073.444-2.543.91-4.41a25.522 25.522 0 0 1 2.03-5.18c.887-1.633 2.17-3.336 3.85-5.11 1.68-1.773 3.64-3.29 5.88-4.55 2.24-1.26 5.11-2.31 8.61-3.15 3.547-.84 7.49-1.26 11.83-1.26 11.947 0 20.347 2.684 25.2 8.05 1.821 1.96 3.22 4.48 4.2 7.56Zm54.424-2.45h-17.5V562h-17.78v-38.36h-17.57v-11.06h52.85v11.06ZM615.094 562h-17.78v-36.82h-18.2v3.22c0 4.387-.14 8.144-.42 11.27-.234 3.08-.7 5.95-1.4 8.61-.654 2.614-1.564 4.737-2.73 6.37-1.12 1.634-2.614 3.034-4.48 4.2-1.82 1.167-3.99 1.984-6.51 2.45-2.474.467-5.437.7-8.89.7h-3.22v-12.6h2.24c2.473 0 4.246-.49 5.32-1.47 1.12-.98 1.936-3.173 2.45-6.58.56-3.406.84-8.866.84-16.38v-12.39h52.78V562Zm8.418 0v-49.42h17.78v26.53l24.08-20.16v-6.37h17.78V562h-17.78v-26.46l-24.08 20.16v6.3h-17.78Zm68.087-49.42h42.07c10.08 0 15.12 3.85 15.12 11.55 0 5.74-3.15 9.45-9.45 11.13 3.874.607 6.65 1.634 8.33 3.08 2.427 2.007 3.64 5.04 3.64 9.1 0 3.407-.956 6.277-2.87 8.61-2.006 2.427-4.62 4.037-7.84 4.83-3.173.747-6.836 1.12-10.99 1.12h-38.01v-49.42Zm17.85 18.83h17.5c3.267 0 4.9-1.306 4.9-3.92 0-2.52-1.516-3.78-4.55-3.78h-17.85v7.7Zm-.14 10.71v8.61h18.69c3.827 0 5.74-1.516 5.74-4.55 0-2.706-1.493-4.06-4.48-4.06h-19.95ZM837.373 562h-17.78v-49.42h17.78V562Zm-80.15-49.42h17.78v16.59h17.43c7.046 0 12.273 1.237 15.68 3.71 3.453 2.427 5.18 6.604 5.18 12.53 0 5.787-1.75 10.01-5.25 12.67-3.454 2.614-8.167 3.92-14.14 3.92h-36.68v-49.42Zm17.78 27.79v10.43h14.91c2.146 0 3.616-.443 4.41-1.33.793-.933 1.19-2.333 1.19-4.2 0-1.353-.537-2.496-1.61-3.43-1.074-.98-2.334-1.47-3.78-1.47h-15.12ZM898.528 562h-52.78v-49.42h52.15v11.06h-34.44v8.12h31.85v11.13h-31.85v7.91h35.07V562Zm84.071-49.42V562h-17.78v-17.71c-4.247.934-8.914 1.4-14 1.4-8.494 0-14.397-1.236-17.71-3.71-3.267-2.52-4.9-6.743-4.9-12.67v-16.73h17.78v12.81c0 3.407.84 5.694 2.52 6.86 1.68 1.167 4.036 1.75 7.07 1.75 3.36 0 6.44-.466 9.24-1.4v-20.02h17.78ZM1049.67 562h-19.25l-2.66-8.05h-18.9l-2.66 8.05h-19.458l21.348-49.42h20.16l21.42 49.42Zm-25.62-18.97-5.81-16.73-5.67 16.73h11.48Zm90.2-16.94-16.38 2.87c-2.43-4.806-6.56-7.21-12.39-7.21-4.81 0-8.64 1.494-11.48 4.48-2.57 2.707-3.85 6.37-3.85 10.99 0 4.014 1.07 7.374 3.22 10.08 2.7 3.454 6.48 5.18 11.34 5.18 3.45 0 6.39-.793 8.82-2.38 2.42-1.586 4.01-3.546 4.76-5.88l16.87 1.75c-1.17 3.827-3.04 7.047-5.6 9.66-5.32 5.367-13.75 8.05-25.27 8.05-7.28 0-13.4-1.166-18.34-3.5a47.223 47.223 0 0 1-3.43-1.82c-1.08-.7-2.31-1.703-3.71-3.01a24.739 24.739 0 0 1-3.64-4.41c-.98-1.586-1.82-3.57-2.52-5.95-.7-2.38-1.05-4.946-1.05-7.7 0-1.026.04-2.076.14-3.15.14-1.073.44-2.543.91-4.41a25.292 25.292 0 0 1 2.03-5.18c.88-1.633 2.17-3.336 3.85-5.11 1.68-1.773 3.64-3.29 5.88-4.55 2.24-1.26 5.11-2.31 8.61-3.15 3.54-.84 7.49-1.26 11.83-1.26 11.94 0 20.34 2.684 25.2 8.05 1.82 1.96 3.22 4.48 4.2 7.56Zm85.36 35.91h-17.78v-49.42h17.78V562Zm-80.15-49.42h17.78v16.59h17.43c7.05 0 12.27 1.237 15.68 3.71 3.45 2.427 5.18 6.604 5.18 12.53 0 5.787-1.75 10.01-5.25 12.67-3.45 2.614-8.17 3.92-14.14 3.92h-36.68v-49.42Zm17.78 27.79v10.43h14.91c2.15 0 3.62-.443 4.41-1.33.79-.933 1.19-2.333 1.19-4.2 0-1.353-.54-2.496-1.61-3.43-1.07-.98-2.33-1.47-3.78-1.47h-15.12Zm-703.344 62.72-16.38 2.87c-2.427-4.806-6.557-7.21-12.39-7.21-4.807 0-8.633 1.494-11.48 4.48-2.567 2.707-3.85 6.37-3.85 10.99 0 4.014 1.073 7.374 3.22 10.08 2.707 3.454 6.487 5.18 11.34 5.18 3.453 0 6.393-.793 8.82-2.38 2.427-1.586 4.013-3.546 4.76-5.88l16.87 1.75c-1.167 3.827-3.033 7.047-5.6 9.66-5.32 5.367-13.743 8.05-25.27 8.05-7.28 0-13.393-1.166-18.34-3.5a47.855 47.855 0 0 1-3.43-1.82c-1.073-.7-2.31-1.703-3.71-3.01a25.043 25.043 0 0 1-3.64-4.41c-.98-1.586-1.82-3.57-2.52-5.95-.7-2.38-1.05-4.946-1.05-7.7 0-1.026.047-2.076.14-3.15.14-1.073.443-2.543.91-4.41a25.464 25.464 0 0 1 2.03-5.18c.887-1.633 2.17-3.336 3.85-5.11 1.68-1.773 3.64-3.29 5.88-4.55 2.24-1.26 5.11-2.31 8.61-3.15 3.547-.84 7.49-1.26 11.83-1.26 11.947 0 20.347 2.684 25.2 8.05 1.82 1.96 3.22 4.48 4.2 7.56Zm57.503-13.51V639h-17.78v-17.71c-4.246.934-8.913 1.4-14 1.4-8.493 0-14.396-1.236-17.71-3.71-3.266-2.52-4.9-6.743-4.9-12.67v-16.73h17.78v12.81c0 3.407.84 5.694 2.52 6.86 1.68 1.167 4.037 1.75 7.07 1.75 3.36 0 6.44-.466 9.24-1.4v-20.02h17.78ZM558.473 639h-19.25l-2.66-8.05h-18.9l-2.66 8.05h-19.46l21.35-49.42h20.16l21.42 49.42Zm-25.62-18.97-5.81-16.73-5.67 16.73h11.48Zm90.194-16.94-16.38 2.87c-2.427-4.806-6.557-7.21-12.391-7.21-4.806 0-8.633 1.494-11.479 4.48-2.567 2.707-3.851 6.37-3.851 10.99 0 4.014 1.074 7.374 3.221 10.08 2.706 3.454 6.486 5.18 11.339 5.18 3.454 0 6.394-.793 8.82-2.38 2.427-1.586 4.014-3.546 4.76-5.88l16.87 1.75c-1.166 3.827-3.033 7.047-5.599 9.66-5.321 5.367-13.744 8.05-25.271 8.05-7.28 0-13.393-1.166-18.34-3.5a48.069 48.069 0 0 1-3.43-1.82c-1.073-.7-2.309-1.703-3.709-3.01a25.005 25.005 0 0 1-3.641-4.41c-.979-1.586-1.82-3.57-2.52-5.95-.7-2.38-1.05-4.946-1.05-7.7 0-1.026.047-2.076.14-3.15.141-1.073.444-2.543.91-4.41a25.466 25.466 0 0 1 2.031-5.18c.886-1.633 2.169-3.336 3.849-5.11 1.68-1.773 3.64-3.29 5.88-4.55 2.24-1.26 5.11-2.31 8.61-3.15 3.547-.84 7.49-1.26 11.83-1.26 11.947 0 20.347 2.684 25.2 8.05 1.821 1.96 3.221 4.48 4.201 7.56Zm54.423-2.45h-17.5V639h-17.78v-38.36h-17.57v-11.06h52.85v11.06ZM743.094 639h-17.78v-36.82h-18.2v3.22c0 4.387-.14 8.144-.42 11.27-.234 3.08-.7 5.95-1.4 8.61-.654 2.614-1.564 4.737-2.73 6.37-1.12 1.634-2.614 3.034-4.48 4.2-1.82 1.167-3.99 1.984-6.51 2.45-2.474.467-5.437.7-8.89.7h-3.22v-12.6h2.24c2.473 0 4.246-.49 5.32-1.47 1.12-.98 1.936-3.173 2.45-6.58.56-3.406.84-8.866.84-16.38v-12.39h52.78V639Zm8.418 0v-49.42h17.78v26.53l24.08-20.16v-6.37h17.78V639h-17.78v-26.46l-24.08 20.16v6.3h-17.78Zm68.087-49.42h42.07c10.08 0 15.12 3.85 15.12 11.55 0 5.74-3.15 9.45-9.45 11.13 3.874.607 6.65 1.634 8.33 3.08 2.427 2.007 3.64 5.04 3.64 9.1 0 3.407-.956 6.277-2.87 8.61-2.006 2.427-4.62 4.037-7.84 4.83-3.173.747-6.836 1.12-10.99 1.12h-38.01v-49.42Zm17.85 18.83h17.5c3.267 0 4.9-1.306 4.9-3.92 0-2.52-1.516-3.78-4.55-3.78h-17.85v7.7Zm-.14 10.71v8.61h18.69c3.827 0 5.74-1.516 5.74-4.55 0-2.706-1.493-4.06-4.48-4.06h-19.95ZM965.373 639h-17.78v-49.42h17.78V639Zm-80.15-49.42h17.78v16.59h17.43c7.046 0 12.273 1.237 15.68 3.71 3.453 2.427 5.18 6.604 5.18 12.53 0 5.787-1.75 10.01-5.25 12.67-3.454 2.614-8.167 3.92-14.14 3.92h-36.68v-49.42Zm17.78 27.79v10.43h14.91c2.146 0 3.616-.443 4.41-1.33.793-.933 1.19-2.333 1.19-4.2 0-1.353-.537-2.496-1.61-3.43-1.074-.98-2.334-1.47-3.78-1.47h-15.12ZM1026.53 639h-52.782v-49.42h52.152v11.06h-34.442v8.12h31.852v11.13h-31.852v7.91h35.072V639Zm84.07-49.42V639h-17.78v-17.71c-4.25.934-8.91 1.4-14 1.4-8.49 0-14.4-1.236-17.71-3.71-3.27-2.52-4.9-6.743-4.9-12.67v-16.73h17.78v12.81c0 3.407.84 5.694 2.52 6.86 1.68 1.167 4.04 1.75 7.07 1.75 3.36 0 6.44-.466 9.24-1.4v-20.02h17.78Zm67.07 49.42h-19.25l-2.66-8.05h-18.9l-2.66 8.05h-19.46l21.35-49.42h20.16l21.42 49.42Zm-25.62-18.97-5.81-16.73-5.67 16.73h11.48Zm90.2-16.94-16.38 2.87c-2.43-4.806-6.56-7.21-12.39-7.21-4.81 0-8.64 1.494-11.48 4.48-2.57 2.707-3.85 6.37-3.85 10.99 0 4.014 1.07 7.374 3.22 10.08 2.7 3.454 6.48 5.18 11.34 5.18 3.45 0 6.39-.793 8.82-2.38 2.42-1.586 4.01-3.546 4.76-5.88l16.87 1.75c-1.17 3.827-3.04 7.047-5.6 9.66-5.32 5.367-13.75 8.05-25.27 8.05-7.28 0-13.4-1.166-18.34-3.5a47.223 47.223 0 0 1-3.43-1.82c-1.08-.7-2.31-1.703-3.71-3.01a24.739 24.739 0 0 1-3.64-4.41c-.98-1.586-1.82-3.57-2.52-5.95-.7-2.38-1.05-4.946-1.05-7.7 0-1.026.04-2.076.14-3.15.14-1.073.44-2.543.91-4.41a25.292 25.292 0 0 1 2.03-5.18c.88-1.633 2.17-3.336 3.85-5.11 1.68-1.773 3.64-3.29 5.88-4.55 2.24-1.26 5.11-2.31 8.61-3.15 3.54-.84 7.49-1.26 11.83-1.26 11.94 0 20.34 2.684 25.2 8.05 1.82 1.96 3.22 4.48 4.2 7.56Zm85.36 35.91h-17.78v-49.42h17.78V639Zm-80.15-49.42h17.78v16.59h17.43c7.05 0 12.27 1.237 15.68 3.71 3.45 2.427 5.18 6.604 5.18 12.53 0 5.787-1.75 10.01-5.25 12.67-3.45 2.614-8.17 3.92-14.14 3.92h-36.68v-49.42Zm17.78 27.79v10.43h14.91c2.15 0 3.62-.443 4.41-1.33.79-.933 1.19-2.333 1.19-4.2 0-1.353-.54-2.496-1.61-3.43-1.07-.98-2.33-1.47-3.78-1.47h-15.12ZM162.896 675.09l-16.38 2.87c-2.427-4.806-6.557-7.21-12.39-7.21-4.807 0-8.633 1.494-11.48 4.48-2.567 2.707-3.85 6.37-3.85 10.99 0 4.014 1.073 7.374 3.22 10.08 2.707 3.454 6.487 5.18 11.34 5.18 3.453 0 6.393-.793 8.82-2.38 2.427-1.586 4.013-3.546 4.76-5.88l16.87 1.75c-1.167 3.827-3.033 7.047-5.6 9.66-5.32 5.367-13.743 8.05-25.27 8.05-7.28 0-13.393-1.166-18.34-3.5a47.855 47.855 0 0 1-3.43-1.82c-1.073-.7-2.31-1.703-3.71-3.01a25.043 25.043 0 0 1-3.64-4.41c-.98-1.586-1.82-3.57-2.52-5.95-.7-2.38-1.05-4.946-1.05-7.7 0-1.026.047-2.076.14-3.15.14-1.073.443-2.543.91-4.41a25.464 25.464 0 0 1 2.03-5.18c.887-1.633 2.17-3.336 3.85-5.11 1.68-1.773 3.64-3.29 5.88-4.55 2.24-1.26 5.11-2.31 8.61-3.15 3.547-.84 7.49-1.26 11.83-1.26 11.947 0 20.347 2.684 25.2 8.05 1.82 1.96 3.22 4.48 4.2 7.56Zm57.503-13.51V711h-17.78v-17.71c-4.246.934-8.913 1.4-14 1.4-8.493 0-14.396-1.236-17.71-3.71-3.266-2.52-4.9-6.743-4.9-12.67v-16.73h17.78v12.81c0 3.407.84 5.694 2.52 6.86 1.68 1.167 4.037 1.75 7.07 1.75 3.36 0 6.44-.466 9.24-1.4v-20.02h17.78ZM287.473 711h-19.25l-2.66-8.05h-18.9l-2.66 8.05h-19.46l21.35-49.42h20.16l21.42 49.42Zm-25.62-18.97-5.81-16.73-5.67 16.73h11.48Zm90.193-16.94-16.38 2.87c-2.426-4.806-6.556-7.21-12.39-7.21-4.806 0-8.633 1.494-11.48 4.48-2.566 2.707-3.85 6.37-3.85 10.99 0 4.014 1.074 7.374 3.22 10.08 2.707 3.454 6.487 5.18 11.341 5.18 3.453 0 6.393-.793 8.819-2.38 2.427-1.586 4.014-3.546 4.76-5.88l16.87 1.75c-1.166 3.827-3.033 7.047-5.6 9.66-5.32 5.367-13.743 8.05-25.27 8.05-7.28 0-13.393-1.166-18.34-3.5a48.069 48.069 0 0 1-3.43-1.82c-1.073-.7-2.31-1.703-3.71-3.01a25.043 25.043 0 0 1-3.64-4.41c-.98-1.586-1.82-3.57-2.52-5.95-.7-2.38-1.05-4.946-1.05-7.7 0-1.026.047-2.076.14-3.15.141-1.073.444-2.543.91-4.41a25.522 25.522 0 0 1 2.03-5.18c.887-1.633 2.17-3.336 3.85-5.11 1.68-1.773 3.64-3.29 5.88-4.55 2.24-1.26 5.11-2.31 8.61-3.15 3.547-.84 7.49-1.26 11.83-1.26 11.947 0 20.347 2.684 25.2 8.05 1.821 1.96 3.22 4.48 4.2 7.56Zm54.424-2.45h-17.5V711h-17.78v-38.36h-17.57v-11.06h52.85v11.06ZM472.094 711h-17.78v-36.82h-18.2v3.22c0 4.387-.14 8.144-.42 11.27-.234 3.08-.7 5.95-1.4 8.61-.654 2.614-1.564 4.737-2.73 6.37-1.12 1.634-2.614 3.034-4.48 4.2-1.82 1.167-3.99 1.984-6.51 2.45-2.474.467-5.437.7-8.89.7h-3.22v-12.6h2.24c2.473 0 4.246-.49 5.32-1.47 1.12-.98 1.936-3.173 2.45-6.58.56-3.406.84-8.866.84-16.38v-12.39h52.78V711Zm8.418 0v-49.42h17.78v26.53l24.08-20.16v-6.37h17.78V711h-17.78v-26.46l-24.08 20.16v6.3h-17.78Zm68.087-49.42h42.07c10.08 0 15.12 3.85 15.12 11.55 0 5.74-3.15 9.45-9.45 11.13 3.874.607 6.65 1.634 8.33 3.08 2.427 2.007 3.64 5.04 3.64 9.1 0 3.407-.956 6.277-2.87 8.61-2.006 2.427-4.62 4.037-7.84 4.83-3.173.747-6.836 1.12-10.99 1.12h-38.01v-49.42Zm17.85 18.83h17.5c3.267 0 4.9-1.306 4.9-3.92 0-2.52-1.516-3.78-4.55-3.78h-17.85v7.7Zm-.14 10.71v8.61h18.69c3.827 0 5.74-1.516 5.74-4.55 0-2.706-1.493-4.06-4.48-4.06h-19.95ZM694.373 711h-17.78v-49.42h17.78V711Zm-80.15-49.42h17.78v16.59h17.43c7.046 0 12.273 1.237 15.68 3.71 3.453 2.427 5.18 6.604 5.18 12.53 0 5.787-1.75 10.01-5.25 12.67-3.454 2.614-8.167 3.92-14.14 3.92h-36.68v-49.42Zm17.78 27.79v10.43h14.91c2.146 0 3.616-.443 4.41-1.33.793-.933 1.19-2.333 1.19-4.2 0-1.353-.537-2.496-1.61-3.43-1.074-.98-2.334-1.47-3.78-1.47h-15.12ZM755.528 711h-52.78v-49.42h52.15v11.06h-34.44v8.12h31.85v11.13h-31.85v7.91h35.07V711Zm84.071-49.42V711h-17.78v-17.71c-4.247.934-8.914 1.4-14 1.4-8.494 0-14.397-1.236-17.71-3.71-3.267-2.52-4.9-6.743-4.9-12.67v-16.73h17.78v12.81c0 3.407.84 5.694 2.52 6.86 1.68 1.167 4.036 1.75 7.07 1.75 3.36 0 6.44-.466 9.24-1.4v-20.02h17.78ZM906.672 711h-19.25l-2.66-8.05h-18.9l-2.66 8.05h-19.46l21.35-49.42h20.16l21.42 49.42Zm-25.62-18.97-5.81-16.73-5.67 16.73h11.48Zm90.194-16.94-16.38 2.87c-2.427-4.806-6.557-7.21-12.39-7.21-4.807 0-8.634 1.494-11.48 4.48-2.567 2.707-3.85 6.37-3.85 10.99 0 4.014 1.073 7.374 3.22 10.08 2.706 3.454 6.486 5.18 11.34 5.18 3.453 0 6.393-.793 8.82-2.38 2.426-1.586 4.013-3.546 4.76-5.88l16.87 1.75c-1.167 3.827-3.034 7.047-5.6 9.66-5.32 5.367-13.744 8.05-25.27 8.05-7.28 0-13.394-1.166-18.34-3.5a47.855 47.855 0 0 1-3.43-1.82c-1.074-.7-2.31-1.703-3.71-3.01a25 25 0 0 1-3.64-4.41c-.98-1.586-1.82-3.57-2.52-5.95-.7-2.38-1.05-4.946-1.05-7.7 0-1.026.046-2.076.14-3.15.14-1.073.443-2.543.91-4.41a25.464 25.464 0 0 1 2.03-5.18c.886-1.633 2.17-3.336 3.85-5.11 1.68-1.773 3.64-3.29 5.88-4.55 2.24-1.26 5.11-2.31 8.61-3.15 3.546-.84 7.49-1.26 11.83-1.26 11.946 0 20.346 2.684 25.2 8.05 1.82 1.96 3.22 4.48 4.2 7.56ZM1056.61 711h-17.78v-49.42h17.78V711Zm-80.151-49.42h17.78v16.59h17.431c7.05 0 12.27 1.237 15.68 3.71 3.45 2.427 5.18 6.604 5.18 12.53 0 5.787-1.75 10.01-5.25 12.67-3.45 2.614-8.17 3.92-14.14 3.92h-36.681v-49.42Zm17.78 27.79v10.43h14.911c2.15 0 3.62-.443 4.41-1.33.79-.933 1.19-2.333 1.19-4.2 0-1.353-.54-2.496-1.61-3.43-1.07-.98-2.33-1.47-3.78-1.47h-15.121Zm-703.343 62.72-16.38 2.87c-2.427-4.806-6.557-7.21-12.39-7.21-4.807 0-8.633 1.494-11.48 4.48-2.567 2.707-3.85 6.37-3.85 10.99 0 4.014 1.073 7.374 3.22 10.08 2.707 3.454 6.487 5.18 11.34 5.18 3.453 0 6.393-.793 8.82-2.38 2.427-1.586 4.013-3.546 4.76-5.88l16.87 1.75c-1.167 3.827-3.033 7.047-5.6 9.66-5.32 5.367-13.743 8.05-25.27 8.05-7.28 0-13.393-1.166-18.34-3.5a47.855 47.855 0 0 1-3.43-1.82c-1.073-.7-2.31-1.703-3.71-3.01a25.043 25.043 0 0 1-3.64-4.41c-.98-1.586-1.82-3.57-2.52-5.95-.7-2.38-1.05-4.946-1.05-7.7 0-1.026.047-2.076.14-3.15.14-1.073.443-2.543.91-4.41a25.464 25.464 0 0 1 2.03-5.18c.887-1.633 2.17-3.336 3.85-5.11 1.68-1.773 3.64-3.29 5.88-4.55 2.24-1.26 5.11-2.309 8.61-3.15 3.547-.84 7.49-1.26 11.83-1.26 11.947 0 20.347 2.684 25.2 8.05 1.82 1.96 3.22 4.48 4.2 7.56Zm57.503-13.51V788h-17.78v-17.71c-4.246.934-8.913 1.4-14 1.4-8.493 0-14.396-1.236-17.71-3.71-3.266-2.52-4.9-6.743-4.9-12.67v-16.73h17.78v12.811c0 3.406.84 5.693 2.52 6.859 1.68 1.167 4.037 1.75 7.07 1.75 3.36 0 6.44-.466 9.24-1.4v-20.02h17.78ZM415.473 788h-19.25l-2.66-8.049h-18.9l-2.66 8.049h-19.46l21.35-49.42h20.16l21.42 49.42Zm-25.62-18.97-5.81-16.73-5.67 16.73h11.48Zm90.193-16.94-16.38 2.87c-2.426-4.806-6.556-7.21-12.39-7.21-4.806 0-8.633 1.494-11.48 4.48-2.566 2.707-3.85 6.37-3.85 10.99 0 4.014 1.074 7.374 3.22 10.08 2.707 3.454 6.487 5.18 11.341 5.18 3.453 0 6.393-.793 8.819-2.38 2.427-1.586 4.014-3.546 4.76-5.88l16.87 1.75c-1.166 3.827-3.033 7.047-5.6 9.66-5.32 5.367-13.743 8.05-25.27 8.05-7.28 0-13.393-1.166-18.34-3.5a48.069 48.069 0 0 1-3.43-1.82c-1.073-.7-2.31-1.703-3.71-3.01a25.043 25.043 0 0 1-3.64-4.41c-.98-1.586-1.82-3.57-2.52-5.95-.7-2.38-1.05-4.946-1.05-7.7 0-1.026.047-2.076.14-3.15.141-1.073.444-2.543.91-4.41a25.522 25.522 0 0 1 2.03-5.18c.887-1.633 2.17-3.336 3.85-5.11 1.68-1.773 3.64-3.29 5.88-4.55 2.24-1.26 5.11-2.309 8.61-3.15 3.547-.84 7.49-1.26 11.83-1.26 11.947 0 20.347 2.684 25.2 8.05 1.821 1.96 3.22 4.48 4.2 7.56Zm54.424-2.45h-17.5V788h-17.78v-38.36h-17.57v-11.06h52.85v11.06ZM600.094 788h-17.78v-36.82h-18.2v3.22c0 4.387-.14 8.144-.42 11.27-.234 3.08-.7 5.95-1.4 8.61-.654 2.614-1.564 4.737-2.73 6.37-1.12 1.634-2.614 3.034-4.48 4.2-1.82 1.167-3.99 1.984-6.51 2.45-2.474.467-5.437.7-8.89.7h-3.22v-12.6h2.24c2.473 0 4.246-.49 5.32-1.47 1.12-.979 1.936-3.173 2.45-6.58.56-3.406.84-8.866.84-16.38v-12.39h52.78V788Zm8.418 0v-49.42h17.78v26.53l24.08-20.159v-6.371h17.78V788h-17.78v-26.46l-24.08 20.161V788h-17.78Zm68.087-49.42h42.07c10.08 0 15.12 3.85 15.12 11.55 0 5.74-3.15 9.451-9.45 11.13 3.874.607 6.65 1.634 8.33 3.08 2.427 2.007 3.64 5.04 3.64 9.1 0 3.407-.956 6.277-2.87 8.61-2.006 2.427-4.62 4.037-7.84 4.83-3.173.747-6.836 1.12-10.99 1.12h-38.01v-49.42Zm17.85 18.83h17.5c3.267 0 4.9-1.306 4.9-3.92 0-2.52-1.516-3.78-4.55-3.78h-17.85v7.7Zm-.14 10.71v8.61h18.69c3.827 0 5.74-1.516 5.74-4.55 0-2.706-1.493-4.06-4.48-4.06h-19.95ZM822.373 788h-17.78v-49.42h17.78V788Zm-80.15-49.42h17.78v16.59h17.43c7.046 0 12.273 1.237 15.68 3.71 3.453 2.427 5.18 6.604 5.18 12.53 0 5.787-1.75 10.01-5.25 12.67-3.454 2.614-8.167 3.92-14.14 3.92h-36.68v-49.42Zm17.78 27.79v10.43h14.91c2.146 0 3.616-.443 4.41-1.33.793-.933 1.19-2.333 1.19-4.2 0-1.353-.537-2.496-1.61-3.43-1.074-.98-2.334-1.47-3.78-1.47h-15.12ZM883.528 788h-52.78v-49.42h52.15v11.06h-34.44v8.12h31.85v11.131h-31.85v7.909h35.07V788Zm84.071-49.42V788h-17.78v-17.71c-4.247.934-8.914 1.4-14 1.4-8.494 0-14.397-1.236-17.71-3.71-3.267-2.52-4.9-6.743-4.9-12.67v-16.73h17.78v12.811c0 3.406.84 5.693 2.52 6.859 1.68 1.167 4.036 1.75 7.07 1.75 3.36 0 6.44-.466 9.24-1.4v-20.02h17.78ZM1034.67 788h-19.25l-2.66-8.049h-18.898l-2.66 8.049h-19.46l21.35-49.42h20.158l21.42 49.42Zm-25.62-18.97-5.81-16.73-5.668 16.73h11.478Zm90.2-16.94-16.38 2.87c-2.43-4.806-6.56-7.21-12.39-7.21-4.81 0-8.64 1.494-11.48 4.48-2.57 2.707-3.85 6.37-3.85 10.99 0 4.014 1.07 7.374 3.22 10.08 2.7 3.454 6.48 5.18 11.34 5.18 3.45 0 6.39-.793 8.82-2.38 2.42-1.586 4.01-3.546 4.76-5.88l16.87 1.75c-1.17 3.827-3.04 7.047-5.6 9.66-5.32 5.367-13.75 8.05-25.27 8.05-7.28 0-13.4-1.166-18.34-3.5a47.223 47.223 0 0 1-3.43-1.82c-1.08-.7-2.31-1.703-3.71-3.01a24.739 24.739 0 0 1-3.64-4.41c-.98-1.586-1.82-3.57-2.52-5.95-.7-2.38-1.05-4.946-1.05-7.7 0-1.026.04-2.076.14-3.15.14-1.073.44-2.543.91-4.41a25.292 25.292 0 0 1 2.03-5.18c.88-1.633 2.17-3.336 3.85-5.11 1.68-1.773 3.64-3.29 5.88-4.55 2.24-1.26 5.11-2.309 8.61-3.15 3.54-.84 7.49-1.26 11.83-1.26 11.94 0 20.34 2.684 25.2 8.05 1.82 1.96 3.22 4.48 4.2 7.56Zm85.36 35.91h-17.78v-49.42h17.78V788Zm-80.15-49.42h17.78v16.59h17.43c7.05 0 12.27 1.237 15.68 3.71 3.45 2.427 5.18 6.604 5.18 12.53 0 5.787-1.75 10.01-5.25 12.67-3.45 2.614-8.17 3.92-14.14 3.92h-36.68v-49.42Zm17.78 27.79v10.43h14.91c2.15 0 3.62-.443 4.41-1.33.79-.933 1.19-2.333 1.19-4.2 0-1.353-.54-2.496-1.61-3.43-1.07-.98-2.33-1.47-3.78-1.47h-15.12ZM63.896 827.09l-16.38 2.87c-2.427-4.806-6.557-7.21-12.39-7.21-4.807 0-8.633 1.494-11.48 4.48-2.567 2.707-3.85 6.37-3.85 10.99 0 4.014 1.073 7.374 3.22 10.08 2.707 3.454 6.487 5.18 11.34 5.18 3.453 0 6.393-.793 8.82-2.38 2.427-1.586 4.013-3.546 4.76-5.88l16.87 1.75c-1.167 3.827-3.033 7.047-5.6 9.66-5.32 5.367-13.743 8.05-25.27 8.05-7.28 0-13.393-1.166-18.34-3.5a47.919 47.919 0 0 1-3.43-1.82c-1.073-.7-2.31-1.703-3.71-3.01a25.029 25.029 0 0 1-3.64-4.41c-.98-1.586-1.82-3.57-2.52-5.95-.7-2.38-1.05-4.946-1.05-7.7 0-1.026.047-2.076.14-3.15.14-1.073.443-2.543.91-4.41a25.484 25.484 0 0 1 2.03-5.18c.887-1.633 2.17-3.336 3.85-5.11 1.68-1.773 3.64-3.29 5.88-4.55 2.24-1.26 5.11-2.309 8.61-3.15 3.547-.84 7.49-1.26 11.83-1.26 11.947 0 20.347 2.684 25.2 8.05 1.82 1.96 3.22 4.48 4.2 7.56Zm57.503-13.51V863h-17.78v-17.71c-4.246.934-8.913 1.4-14 1.4-8.493 0-14.396-1.236-17.71-3.71-3.266-2.52-4.9-6.743-4.9-12.67v-16.73h17.78v12.811c0 3.406.84 5.693 2.52 6.859 1.68 1.167 4.037 1.75 7.07 1.75 3.36 0 6.44-.466 9.24-1.4v-20.02h17.78ZM188.473 863h-19.25l-2.66-8.049h-18.9l-2.66 8.049h-19.46l21.35-49.42h20.16l21.42 49.42Zm-25.62-18.97-5.81-16.73-5.67 16.73h11.48Zm90.193-16.94-16.38 2.87c-2.426-4.806-6.556-7.21-12.39-7.21-4.806 0-8.633 1.494-11.48 4.48-2.566 2.707-3.85 6.37-3.85 10.99 0 4.014 1.074 7.374 3.22 10.08 2.707 3.454 6.487 5.18 11.34 5.18 3.454 0 6.394-.793 8.82-2.38 2.427-1.586 4.014-3.546 4.76-5.88l16.87 1.75c-1.166 3.827-3.033 7.047-5.6 9.66-5.32 5.367-13.743 8.05-25.27 8.05-7.28 0-13.393-1.166-18.34-3.5a48.069 48.069 0 0 1-3.43-1.82c-1.073-.7-2.31-1.703-3.71-3.01a25.043 25.043 0 0 1-3.64-4.41c-.98-1.586-1.82-3.57-2.52-5.95-.7-2.38-1.05-4.946-1.05-7.7 0-1.026.047-2.076.14-3.15.14-1.073.444-2.543.91-4.41a25.522 25.522 0 0 1 2.03-5.18c.887-1.633 2.17-3.336 3.85-5.11 1.68-1.773 3.64-3.29 5.88-4.55 2.24-1.26 5.11-2.309 8.61-3.15 3.547-.84 7.49-1.26 11.83-1.26 11.947 0 20.347 2.684 25.2 8.05 1.82 1.96 3.22 4.48 4.2 7.56Zm54.424-2.45h-17.5V863h-17.78v-38.36h-17.57v-11.06h52.85v11.06ZM373.094 863h-17.78v-36.82h-18.2v3.22c0 4.387-.14 8.144-.42 11.27-.234 3.08-.7 5.95-1.4 8.61-.654 2.614-1.564 4.737-2.73 6.37-1.12 1.634-2.614 3.034-4.48 4.2-1.82 1.167-3.99 1.984-6.51 2.45-2.474.467-5.437.7-8.89.7h-3.22v-12.6h2.24c2.473 0 4.246-.49 5.32-1.47 1.12-.979 1.936-3.173 2.45-6.58.56-3.406.84-8.866.84-16.38v-12.39h52.78V863Zm8.418 0v-49.42h17.78v26.53l24.08-20.159v-6.371h17.78V863h-17.78v-26.46l-24.08 20.161V863h-17.78Zm68.087-49.42h42.07c10.08 0 15.12 3.85 15.12 11.55 0 5.74-3.15 9.451-9.45 11.13 3.874.607 6.65 1.634 8.33 3.08 2.427 2.007 3.64 5.04 3.64 9.1 0 3.407-.956 6.277-2.87 8.61-2.006 2.427-4.62 4.037-7.84 4.83-3.173.747-6.836 1.12-10.99 1.12h-38.01v-49.42Zm17.85 18.83h17.5c3.267 0 4.9-1.306 4.9-3.92 0-2.52-1.516-3.78-4.55-3.78h-17.85v7.7Zm-.14 10.71v8.61h18.69c3.827 0 5.74-1.516 5.74-4.55 0-2.706-1.493-4.06-4.48-4.06h-19.95ZM595.373 863h-17.78v-49.42h17.78V863Zm-80.15-49.42h17.78v16.59h17.43c7.046 0 12.273 1.237 15.68 3.71 3.453 2.427 5.18 6.604 5.18 12.53 0 5.787-1.75 10.01-5.25 12.67-3.454 2.614-8.167 3.92-14.14 3.92h-36.68v-49.42Zm17.78 27.79v10.43h14.91c2.146 0 3.616-.443 4.41-1.33.793-.933 1.19-2.333 1.19-4.2 0-1.353-.537-2.496-1.61-3.43-1.074-.98-2.334-1.47-3.78-1.47h-15.12ZM656.528 863h-52.78v-49.42h52.15v11.06h-34.44v8.12h31.85v11.131h-31.85v7.909h35.07V863Zm84.071-49.42V863h-17.78v-17.71c-4.247.934-8.914 1.4-14 1.4-8.494 0-14.397-1.236-17.71-3.71-3.267-2.52-4.9-6.743-4.9-12.67v-16.73h17.78v12.811c0 3.406.84 5.693 2.52 6.859 1.68 1.167 4.036 1.75 7.07 1.75 3.36 0 6.44-.466 9.24-1.4v-20.02h17.78ZM807.672 863h-19.25l-2.66-8.049h-18.9l-2.66 8.049h-19.46l21.35-49.42h20.16l21.42 49.42Zm-25.62-18.97-5.81-16.73-5.67 16.73h11.48Zm90.194-16.94-16.38 2.87c-2.427-4.806-6.557-7.21-12.39-7.21-4.807 0-8.634 1.494-11.48 4.48-2.567 2.707-3.85 6.37-3.85 10.99 0 4.014 1.073 7.374 3.22 10.08 2.706 3.454 6.486 5.18 11.34 5.18 3.453 0 6.393-.793 8.82-2.38 2.426-1.586 4.013-3.546 4.76-5.88l16.87 1.75c-1.167 3.827-3.034 7.047-5.6 9.66-5.32 5.367-13.744 8.05-25.27 8.05-7.28 0-13.394-1.166-18.34-3.5a47.855 47.855 0 0 1-3.43-1.82c-1.074-.7-2.31-1.703-3.71-3.01a25 25 0 0 1-3.64-4.41c-.98-1.586-1.82-3.57-2.52-5.95-.7-2.38-1.05-4.946-1.05-7.7 0-1.026.046-2.076.14-3.15.14-1.073.443-2.543.91-4.41a25.464 25.464 0 0 1 2.03-5.18c.886-1.633 2.17-3.336 3.85-5.11 1.68-1.773 3.64-3.29 5.88-4.55 2.24-1.26 5.11-2.309 8.61-3.15 3.546-.84 7.49-1.26 11.83-1.26 11.946 0 20.346 2.684 25.2 8.05 1.82 1.96 3.22 4.48 4.2 7.56ZM957.609 863h-17.78v-49.42h17.78V863Zm-80.15-49.42h17.78v16.59h17.43c7.047 0 12.273 1.237 15.68 3.71 3.453 2.427 5.18 6.604 5.18 12.53 0 5.787-1.75 10.01-5.25 12.67-3.453 2.614-8.167 3.92-14.14 3.92h-36.68v-49.42Zm17.78 27.79v10.43h14.91c2.147 0 3.617-.443 4.41-1.33.793-.933 1.19-2.333 1.19-4.2 0-1.353-.537-2.496-1.61-3.43-1.073-.98-2.333-1.47-3.78-1.47h-15.12Zm-703.343 62.72-16.38 2.87c-2.427-4.806-6.557-7.21-12.39-7.21-4.807 0-8.633 1.494-11.48 4.48-2.567 2.707-3.85 6.37-3.85 10.99 0 4.014 1.073 7.374 3.22 10.08 2.707 3.454 6.487 5.18 11.34 5.18 3.453 0 6.393-.793 8.82-2.38 2.427-1.586 4.013-3.546 4.76-5.88l16.87 1.75c-1.167 3.827-3.033 7.047-5.6 9.66-5.32 5.367-13.743 8.05-25.27 8.05-7.28 0-13.393-1.166-18.34-3.5a47.855 47.855 0 0 1-3.43-1.82c-1.073-.7-2.31-1.703-3.71-3.01a25.043 25.043 0 0 1-3.64-4.41c-.98-1.586-1.82-3.57-2.52-5.95-.7-2.38-1.05-4.946-1.05-7.7 0-1.026.047-2.076.14-3.15.14-1.073.443-2.543.91-4.41a25.464 25.464 0 0 1 2.03-5.18c.887-1.633 2.17-3.336 3.85-5.11 1.68-1.773 3.64-3.29 5.88-4.55 2.24-1.26 5.11-2.309 8.61-3.15 3.547-.84 7.49-1.26 11.83-1.26 11.947 0 20.347 2.684 25.2 8.05 1.82 1.96 3.22 4.48 4.2 7.56Zm57.503-13.51V940h-17.78v-17.71c-4.246.934-8.913 1.4-14 1.4-8.493 0-14.396-1.236-17.71-3.71-3.266-2.52-4.9-6.743-4.9-12.67v-16.73h17.78v12.811c0 3.406.84 5.693 2.52 6.859 1.68 1.167 4.037 1.75 7.07 1.75 3.36 0 6.44-.466 9.24-1.4v-20.02h17.78ZM316.473 940h-19.25l-2.66-8.049h-18.9l-2.66 8.049h-19.46l21.35-49.42h20.16l21.42 49.42Zm-25.62-18.97-5.81-16.73-5.67 16.73h11.48Zm90.193-16.94-16.38 2.87c-2.426-4.806-6.556-7.21-12.39-7.21-4.806 0-8.633 1.494-11.48 4.48-2.566 2.707-3.85 6.37-3.85 10.99 0 4.014 1.074 7.374 3.22 10.08 2.707 3.454 6.487 5.18 11.341 5.18 3.453 0 6.393-.793 8.819-2.38 2.427-1.586 4.014-3.546 4.76-5.88l16.87 1.75c-1.166 3.827-3.033 7.047-5.6 9.66-5.32 5.367-13.743 8.05-25.27 8.05-7.28 0-13.393-1.166-18.34-3.5a48.069 48.069 0 0 1-3.43-1.82c-1.073-.7-2.31-1.703-3.71-3.01a25.043 25.043 0 0 1-3.64-4.41c-.98-1.586-1.82-3.57-2.52-5.95-.7-2.38-1.05-4.946-1.05-7.7 0-1.026.047-2.076.14-3.15.141-1.073.444-2.543.91-4.41a25.522 25.522 0 0 1 2.03-5.18c.887-1.633 2.17-3.336 3.85-5.11 1.68-1.773 3.64-3.29 5.88-4.55 2.24-1.26 5.11-2.309 8.61-3.15 3.547-.84 7.49-1.26 11.83-1.26 11.947 0 20.347 2.684 25.2 8.05 1.821 1.96 3.22 4.48 4.2 7.56Zm54.424-2.45h-17.5V940h-17.78v-38.36h-17.57v-11.06h52.85v11.06ZM501.094 940h-17.78v-36.82h-18.2v3.22c0 4.387-.14 8.144-.42 11.27-.234 3.08-.7 5.95-1.4 8.61-.654 2.614-1.564 4.737-2.73 6.37-1.12 1.634-2.614 3.034-4.48 4.2-1.82 1.167-3.99 1.984-6.51 2.45-2.474.467-5.437.7-8.89.7h-3.22v-12.6h2.24c2.473 0 4.246-.49 5.32-1.47 1.12-.979 1.936-3.173 2.45-6.58.56-3.406.84-8.866.84-16.38v-12.39h52.78V940Zm8.418 0v-49.42h17.78v26.53l24.08-20.159v-6.371h17.78V940h-17.78v-26.46l-24.08 20.161V940h-17.78Zm68.087-49.42h42.07c10.08 0 15.12 3.85 15.12 11.55 0 5.74-3.15 9.451-9.45 11.13 3.874.607 6.65 1.634 8.33 3.08 2.427 2.007 3.64 5.04 3.64 9.1 0 3.407-.956 6.277-2.87 8.61-2.006 2.427-4.62 4.037-7.84 4.83-3.173.747-6.836 1.12-10.99 1.12h-38.01v-49.42Zm17.85 18.83h17.5c3.267 0 4.9-1.306 4.9-3.92 0-2.52-1.516-3.78-4.55-3.78h-17.85v7.7Zm-.14 10.71v8.61h18.69c3.827 0 5.74-1.516 5.74-4.55 0-2.706-1.493-4.06-4.48-4.06h-19.95ZM723.373 940h-17.78v-49.42h17.78V940Zm-80.15-49.42h17.78v16.59h17.43c7.046 0 12.273 1.237 15.68 3.71 3.453 2.427 5.18 6.604 5.18 12.53 0 5.787-1.75 10.01-5.25 12.67-3.454 2.614-8.167 3.92-14.14 3.92h-36.68v-49.42Zm17.78 27.79v10.43h14.91c2.146 0 3.616-.443 4.41-1.33.793-.933 1.19-2.333 1.19-4.2 0-1.353-.537-2.496-1.61-3.43-1.074-.98-2.334-1.47-3.78-1.47h-15.12ZM784.528 940h-52.78v-49.42h52.15v11.06h-34.44v8.12h31.85v11.131h-31.85v7.909h35.07V940Zm84.071-49.42V940h-17.78v-17.71c-4.247.934-8.914 1.4-14 1.4-8.494 0-14.397-1.236-17.71-3.71-3.267-2.52-4.9-6.743-4.9-12.67v-16.73h17.78v12.811c0 3.406.84 5.693 2.52 6.859 1.68 1.167 4.036 1.75 7.07 1.75 3.36 0 6.44-.466 9.24-1.4v-20.02h17.78ZM935.672 940h-19.25l-2.66-8.049h-18.9l-2.66 8.049h-19.46l21.35-49.42h20.16l21.42 49.42Zm-25.62-18.97-5.81-16.73-5.67 16.73h11.48Zm90.198-16.94-16.384 2.87c-2.427-4.806-6.557-7.21-12.39-7.21-4.807 0-8.634 1.494-11.48 4.48-2.567 2.707-3.85 6.37-3.85 10.99 0 4.014 1.073 7.374 3.22 10.08 2.706 3.454 6.486 5.18 11.34 5.18 3.453 0 6.393-.793 8.82-2.38 2.426-1.586 4.013-3.546 4.76-5.88l16.874 1.75c-1.171 3.827-3.038 7.047-5.604 9.66-5.32 5.367-13.744 8.05-25.27 8.05-7.28 0-13.394-1.166-18.34-3.5a47.855 47.855 0 0 1-3.43-1.82c-1.074-.7-2.31-1.703-3.71-3.01a25 25 0 0 1-3.64-4.41c-.98-1.586-1.82-3.57-2.52-5.95-.7-2.38-1.05-4.946-1.05-7.7 0-1.026.046-2.076.14-3.15.14-1.073.443-2.543.91-4.41a25.464 25.464 0 0 1 2.03-5.18c.886-1.633 2.17-3.336 3.85-5.11 1.68-1.773 3.64-3.29 5.88-4.55 2.24-1.26 5.11-2.309 8.61-3.15 3.546-.84 7.49-1.26 11.83-1.26 11.946 0 20.346 2.684 25.2 8.05 1.82 1.96 3.22 4.48 4.204 7.56Zm85.36 35.91h-17.78v-49.42h17.78V940Zm-80.15-49.42h17.78v16.59h17.43c7.05 0 12.27 1.237 15.68 3.71 3.45 2.427 5.18 6.604 5.18 12.53 0 5.787-1.75 10.01-5.25 12.67-3.45 2.614-8.17 3.92-14.14 3.92h-36.68v-49.42Zm17.78 27.79v10.43h14.91c2.15 0 3.62-.443 4.41-1.33.79-.933 1.19-2.333 1.19-4.2 0-1.353-.54-2.496-1.61-3.43-1.07-.98-2.33-1.47-3.78-1.47h-15.12Z"/></mask><path d="m290.896 222.09-16.38 2.87c-2.427-4.806-6.557-7.21-12.39-7.21-4.807 0-8.633 1.494-11.48 4.48-2.567 2.707-3.85 6.37-3.85 10.99 0 4.014 1.073 7.374 3.22 10.08 2.707 3.454 6.487 5.18 11.34 5.18 3.453 0 6.393-.793 8.82-2.38 2.427-1.586 4.013-3.546 4.76-5.88l16.87 1.75c-1.167 3.827-3.033 7.047-5.6 9.66-5.32 5.367-13.743 8.05-25.27 8.05-7.28 0-13.393-1.166-18.34-3.5a47.855 47.855 0 0 1-3.43-1.82c-1.073-.7-2.31-1.703-3.71-3.01a25.043 25.043 0 0 1-3.64-4.41c-.98-1.586-1.82-3.57-2.52-5.95-.7-2.38-1.05-4.946-1.05-7.7 0-1.026.047-2.076.14-3.15.14-1.073.443-2.543.91-4.41a25.464 25.464 0 0 1 2.03-5.18c.887-1.633 2.17-3.336 3.85-5.11 1.68-1.773 3.64-3.29 5.88-4.55 2.24-1.26 5.11-2.31 8.61-3.15 3.547-.84 7.49-1.26 11.83-1.26 11.947 0 20.347 2.684 25.2 8.05 1.82 1.96 3.22 4.48 4.2 7.56Zm57.503-13.51V258h-17.78v-17.71c-4.246.934-8.913 1.4-14 1.4-8.493 0-14.396-1.236-17.71-3.71-3.266-2.52-4.9-6.743-4.9-12.67v-16.73h17.78v12.81c0 3.407.84 5.694 2.52 6.86 1.68 1.167 4.037 1.75 7.07 1.75 3.36 0 6.44-.466 9.24-1.4v-20.02h17.78ZM415.473 258h-19.25l-2.66-8.05h-18.9l-2.66 8.05h-19.46l21.35-49.42h20.16l21.42 49.42Zm-25.62-18.97-5.81-16.73-5.67 16.73h11.48Zm90.193-16.94-16.38 2.87c-2.426-4.806-6.556-7.21-12.39-7.21-4.806 0-8.633 1.494-11.48 4.48-2.566 2.707-3.85 6.37-3.85 10.99 0 4.014 1.074 7.374 3.22 10.08 2.707 3.454 6.487 5.18 11.341 5.18 3.453 0 6.393-.793 8.819-2.38 2.427-1.586 4.014-3.546 4.76-5.88l16.87 1.75c-1.166 3.827-3.033 7.047-5.6 9.66-5.32 5.367-13.743 8.05-25.27 8.05-7.28 0-13.393-1.166-18.34-3.5a48.069 48.069 0 0 1-3.43-1.82c-1.073-.7-2.31-1.703-3.71-3.01a25.043 25.043 0 0 1-3.64-4.41c-.98-1.586-1.82-3.57-2.52-5.95-.7-2.38-1.05-4.946-1.05-7.7 0-1.026.047-2.076.14-3.15.141-1.073.444-2.543.91-4.41a25.522 25.522 0 0 1 2.03-5.18c.887-1.633 2.17-3.336 3.85-5.11 1.68-1.773 3.64-3.29 5.88-4.55 2.24-1.26 5.11-2.31 8.61-3.15 3.547-.84 7.49-1.26 11.83-1.26 11.947 0 20.347 2.684 25.2 8.05 1.821 1.96 3.22 4.48 4.2 7.56Zm54.424-2.45h-17.5V258h-17.78v-38.36h-17.57v-11.06h52.85v11.06ZM600.094 258h-17.78v-36.82h-18.2v3.22c0 4.387-.14 8.144-.42 11.27-.234 3.08-.7 5.95-1.4 8.61-.654 2.614-1.564 4.737-2.73 6.37-1.12 1.634-2.614 3.034-4.48 4.2-1.82 1.167-3.99 1.984-6.51 2.45-2.474.467-5.437.7-8.89.7h-3.22v-12.6h2.24c2.473 0 4.246-.49 5.32-1.47 1.12-.98 1.936-3.173 2.45-6.58.56-3.406.84-8.866.84-16.38v-12.39h52.78V258Zm8.418 0v-49.42h17.78v26.53l24.08-20.16v-6.37h17.78V258h-17.78v-26.46l-24.08 20.16v6.3h-17.78Zm68.087-49.42h42.07c10.08 0 15.12 3.85 15.12 11.55 0 5.74-3.15 9.45-9.45 11.13 3.874.607 6.65 1.634 8.33 3.08 2.427 2.007 3.64 5.04 3.64 9.1 0 3.407-.956 6.277-2.87 8.61-2.006 2.427-4.62 4.037-7.84 4.83-3.173.747-6.836 1.12-10.99 1.12h-38.01v-49.42Zm17.85 18.83h17.5c3.267 0 4.9-1.306 4.9-3.92 0-2.52-1.516-3.78-4.55-3.78h-17.85v7.7Zm-.14 10.71v8.61h18.69c3.827 0 5.74-1.516 5.74-4.55 0-2.706-1.493-4.06-4.48-4.06h-19.95ZM822.373 258h-17.78v-49.42h17.78V258Zm-80.15-49.42h17.78v16.59h17.43c7.046 0 12.273 1.237 15.68 3.71 3.453 2.427 5.18 6.604 5.18 12.53 0 5.787-1.75 10.01-5.25 12.67-3.454 2.614-8.167 3.92-14.14 3.92h-36.68v-49.42Zm17.78 27.79v10.43h14.91c2.146 0 3.616-.443 4.41-1.33.793-.933 1.19-2.333 1.19-4.2 0-1.353-.537-2.496-1.61-3.43-1.074-.98-2.334-1.47-3.78-1.47h-15.12ZM883.528 258h-52.78v-49.42h52.15v11.06h-34.44v8.12h31.85v11.13h-31.85v7.91h35.07V258Zm84.071-49.42V258h-17.78v-17.71c-4.247.934-8.914 1.4-14 1.4-8.494 0-14.397-1.236-17.71-3.71-3.267-2.52-4.9-6.743-4.9-12.67v-16.73h17.78v12.81c0 3.407.84 5.694 2.52 6.86 1.68 1.167 4.036 1.75 7.07 1.75 3.36 0 6.44-.466 9.24-1.4v-20.02h17.78ZM1034.67 258h-19.25l-2.66-8.05h-18.898l-2.66 8.05h-19.46l21.35-49.42h20.158l21.42 49.42Zm-25.62-18.97-5.81-16.73-5.668 16.73h11.478Zm90.2-16.94-16.38 2.87c-2.43-4.806-6.56-7.21-12.39-7.21-4.81 0-8.64 1.494-11.48 4.48-2.57 2.707-3.85 6.37-3.85 10.99 0 4.014 1.07 7.374 3.22 10.08 2.7 3.454 6.48 5.18 11.34 5.18 3.45 0 6.39-.793 8.82-2.38 2.42-1.586 4.01-3.546 4.76-5.88l16.87 1.75c-1.17 3.827-3.04 7.047-5.6 9.66-5.32 5.367-13.75 8.05-25.27 8.05-7.28 0-13.4-1.166-18.34-3.5a47.223 47.223 0 0 1-3.43-1.82c-1.08-.7-2.31-1.703-3.71-3.01a24.739 24.739 0 0 1-3.64-4.41c-.98-1.586-1.82-3.57-2.52-5.95-.7-2.38-1.05-4.946-1.05-7.7 0-1.026.04-2.076.14-3.15.14-1.073.44-2.543.91-4.41a25.292 25.292 0 0 1 2.03-5.18c.88-1.633 2.17-3.336 3.85-5.11 1.68-1.773 3.64-3.29 5.88-4.55 2.24-1.26 5.11-2.31 8.61-3.15 3.54-.84 7.49-1.26 11.83-1.26 11.94 0 20.34 2.684 25.2 8.05 1.82 1.96 3.22 4.48 4.2 7.56Zm85.36 35.91h-17.78v-49.42h17.78V258Zm-80.15-49.42h17.78v16.59h17.43c7.05 0 12.27 1.237 15.68 3.71 3.45 2.427 5.18 6.604 5.18 12.53 0 5.787-1.75 10.01-5.25 12.67-3.45 2.614-8.17 3.92-14.14 3.92h-36.68v-49.42Zm17.78 27.79v10.43h14.91c2.15 0 3.62-.443 4.41-1.33.79-.933 1.19-2.333 1.19-4.2 0-1.353-.54-2.496-1.61-3.43-1.07-.98-2.33-1.47-3.78-1.47h-15.12Z" stroke="url(#c)" stroke-width="2" mask="url(#d)"/><path d="m418.896 299.09-16.38 2.87c-2.427-4.806-6.557-7.21-12.39-7.21-4.807 0-8.633 1.494-11.48 4.48-2.567 2.707-3.85 6.37-3.85 10.99 0 4.014 1.073 7.374 3.22 10.08 2.707 3.454 6.487 5.18 11.34 5.18 3.453 0 6.393-.793 8.82-2.38 2.427-1.586 4.013-3.546 4.76-5.88l16.87 1.75c-1.167 3.827-3.033 7.047-5.6 9.66-5.32 5.367-13.743 8.05-25.27 8.05-7.28 0-13.393-1.166-18.34-3.5a47.855 47.855 0 0 1-3.43-1.82c-1.073-.7-2.31-1.703-3.71-3.01a25.043 25.043 0 0 1-3.64-4.41c-.98-1.586-1.82-3.57-2.52-5.95-.7-2.38-1.05-4.946-1.05-7.7 0-1.026.047-2.076.14-3.15.14-1.073.443-2.543.91-4.41a25.464 25.464 0 0 1 2.03-5.18c.887-1.633 2.17-3.336 3.85-5.11 1.68-1.773 3.64-3.29 5.88-4.55 2.24-1.26 5.11-2.31 8.61-3.15 3.547-.84 7.49-1.26 11.83-1.26 11.947 0 20.347 2.684 25.2 8.05 1.82 1.96 3.22 4.48 4.2 7.56Zm57.503-13.51V335h-17.78v-17.71c-4.246.934-8.913 1.4-14 1.4-8.493 0-14.396-1.236-17.71-3.71-3.266-2.52-4.9-6.743-4.9-12.67v-16.73h17.78v12.81c0 3.407.84 5.694 2.52 6.86 1.68 1.167 4.037 1.75 7.07 1.75 3.36 0 6.44-.466 9.24-1.4v-20.02h17.78ZM543.473 335h-19.25l-2.66-8.05h-18.9l-2.66 8.05h-19.46l21.35-49.42h20.16l21.42 49.42Zm-25.62-18.97-5.81-16.73-5.67 16.73h11.48Zm90.194-16.94-16.38 2.87c-2.427-4.806-6.557-7.21-12.391-7.21-4.806 0-8.633 1.494-11.479 4.48-2.567 2.707-3.851 6.37-3.851 10.99 0 4.014 1.074 7.374 3.221 10.08 2.706 3.454 6.486 5.18 11.339 5.18 3.454 0 6.394-.793 8.82-2.38 2.427-1.586 4.014-3.546 4.76-5.88l16.87 1.75c-1.166 3.827-3.033 7.047-5.599 9.66-5.321 5.367-13.744 8.05-25.271 8.05-7.28 0-13.393-1.166-18.34-3.5a48.069 48.069 0 0 1-3.43-1.82c-1.073-.7-2.309-1.703-3.709-3.01a25.005 25.005 0 0 1-3.641-4.41c-.979-1.586-1.82-3.57-2.52-5.95-.7-2.38-1.05-4.946-1.05-7.7 0-1.026.047-2.076.14-3.15.141-1.073.444-2.543.91-4.41a25.466 25.466 0 0 1 2.031-5.18c.886-1.633 2.169-3.336 3.849-5.11 1.68-1.773 3.64-3.29 5.88-4.55 2.24-1.26 5.11-2.31 8.61-3.15 3.547-.84 7.49-1.26 11.83-1.26 11.947 0 20.347 2.684 25.2 8.05 1.821 1.96 3.221 4.48 4.201 7.56Zm54.423-2.45h-17.5V335h-17.78v-38.36h-17.57v-11.06h52.85v11.06ZM728.094 335h-17.78v-36.82h-18.2v3.22c0 4.387-.14 8.144-.42 11.27-.234 3.08-.7 5.95-1.4 8.61-.654 2.614-1.564 4.737-2.73 6.37-1.12 1.634-2.614 3.034-4.48 4.2-1.82 1.167-3.99 1.984-6.51 2.45-2.474.467-5.437.7-8.89.7h-3.22v-12.6h2.24c2.473 0 4.246-.49 5.32-1.47 1.12-.98 1.936-3.173 2.45-6.58.56-3.406.84-8.866.84-16.38v-12.39h52.78V335Zm8.418 0v-49.42h17.78v26.53l24.08-20.16v-6.37h17.78V335h-17.78v-26.46l-24.08 20.16v6.3h-17.78Zm68.087-49.42h42.07c10.08 0 15.12 3.85 15.12 11.55 0 5.74-3.15 9.45-9.45 11.13 3.874.607 6.65 1.634 8.33 3.08 2.427 2.007 3.64 5.04 3.64 9.1 0 3.407-.956 6.277-2.87 8.61-2.006 2.427-4.62 4.037-7.84 4.83-3.173.747-6.836 1.12-10.99 1.12h-38.01v-49.42Zm17.85 18.83h17.5c3.267 0 4.9-1.306 4.9-3.92 0-2.52-1.516-3.78-4.55-3.78h-17.85v7.7Zm-.14 10.71v8.61h18.69c3.827 0 5.74-1.516 5.74-4.55 0-2.706-1.493-4.06-4.48-4.06h-19.95ZM950.373 335h-17.78v-49.42h17.78V335Zm-80.15-49.42h17.78v16.59h17.43c7.046 0 12.273 1.237 15.68 3.71 3.453 2.427 5.18 6.604 5.18 12.53 0 5.787-1.75 10.01-5.25 12.67-3.454 2.614-8.167 3.92-14.14 3.92h-36.68v-49.42Zm17.78 27.79v10.43h14.91c2.146 0 3.616-.443 4.41-1.33.793-.933 1.19-2.333 1.19-4.2 0-1.353-.537-2.496-1.61-3.43-1.074-.98-2.334-1.47-3.78-1.47h-15.12ZM1011.53 335h-52.782v-49.42h52.152v11.06h-34.442v8.12h31.852v11.13h-31.852v7.91h35.072V335Zm84.07-49.42V335h-17.78v-17.71c-4.25.934-8.91 1.4-14 1.4-8.49 0-14.4-1.236-17.71-3.71-3.27-2.52-4.9-6.743-4.9-12.67v-16.73h17.78v12.81c0 3.407.84 5.694 2.52 6.86 1.68 1.167 4.04 1.75 7.07 1.75 3.36 0 6.44-.466 9.24-1.4v-20.02h17.78Zm67.07 49.42h-19.25l-2.66-8.05h-18.9l-2.66 8.05h-19.46l21.35-49.42h20.16l21.42 49.42Zm-25.62-18.97-5.81-16.73-5.67 16.73h11.48Zm90.2-16.94-16.38 2.87c-2.43-4.806-6.56-7.21-12.39-7.21-4.81 0-8.64 1.494-11.48 4.48-2.57 2.707-3.85 6.37-3.85 10.99 0 4.014 1.07 7.374 3.22 10.08 2.7 3.454 6.48 5.18 11.34 5.18 3.45 0 6.39-.793 8.82-2.38 2.42-1.586 4.01-3.546 4.76-5.88l16.87 1.75c-1.17 3.827-3.04 7.047-5.6 9.66-5.32 5.367-13.75 8.05-25.27 8.05-7.28 0-13.4-1.166-18.34-3.5a47.223 47.223 0 0 1-3.43-1.82c-1.08-.7-2.31-1.703-3.71-3.01a24.739 24.739 0 0 1-3.64-4.41c-.98-1.586-1.82-3.57-2.52-5.95-.7-2.38-1.05-4.946-1.05-7.7 0-1.026.04-2.076.14-3.15.14-1.073.44-2.543.91-4.41a25.292 25.292 0 0 1 2.03-5.18c.88-1.633 2.17-3.336 3.85-5.11 1.68-1.773 3.64-3.29 5.88-4.55 2.24-1.26 5.11-2.31 8.61-3.15 3.54-.84 7.49-1.26 11.83-1.26 11.94 0 20.34 2.684 25.2 8.05 1.82 1.96 3.22 4.48 4.2 7.56Zm85.36 35.91h-17.78v-49.42h17.78V335Zm-80.15-49.42h17.78v16.59h17.43c7.05 0 12.27 1.237 15.68 3.71 3.45 2.427 5.18 6.604 5.18 12.53 0 5.787-1.75 10.01-5.25 12.67-3.45 2.614-8.17 3.92-14.14 3.92h-36.68v-49.42Zm17.78 27.79v10.43h14.91c2.15 0 3.62-.443 4.41-1.33.79-.933 1.19-2.333 1.19-4.2 0-1.353-.54-2.496-1.61-3.43-1.07-.98-2.33-1.47-3.78-1.47h-15.12Z" stroke="url(#e)" stroke-width="2" mask="url(#d)"/><path d="m209.896 374.09-16.38 2.87c-2.427-4.806-6.557-7.21-12.39-7.21-4.807 0-8.633 1.494-11.48 4.48-2.567 2.707-3.85 6.37-3.85 10.99 0 4.014 1.073 7.374 3.22 10.08 2.707 3.454 6.487 5.18 11.34 5.18 3.453 0 6.393-.793 8.82-2.38 2.427-1.586 4.013-3.546 4.76-5.88l16.87 1.75c-1.167 3.827-3.033 7.047-5.6 9.66-5.32 5.367-13.743 8.05-25.27 8.05-7.28 0-13.393-1.166-18.34-3.5a47.855 47.855 0 0 1-3.43-1.82c-1.073-.7-2.31-1.703-3.71-3.01a25.043 25.043 0 0 1-3.64-4.41c-.98-1.586-1.82-3.57-2.52-5.95-.7-2.38-1.05-4.946-1.05-7.7 0-1.026.047-2.076.14-3.15.14-1.073.443-2.543.91-4.41a25.464 25.464 0 0 1 2.03-5.18c.887-1.633 2.17-3.336 3.85-5.11 1.68-1.773 3.64-3.29 5.88-4.55 2.24-1.26 5.11-2.31 8.61-3.15 3.547-.84 7.49-1.26 11.83-1.26 11.947 0 20.347 2.684 25.2 8.05 1.82 1.96 3.22 4.48 4.2 7.56Zm57.503-13.51V410h-17.78v-17.71c-4.246.934-8.913 1.4-14 1.4-8.493 0-14.396-1.236-17.71-3.71-3.266-2.52-4.9-6.743-4.9-12.67v-16.73h17.78v12.81c0 3.407.84 5.694 2.52 6.86 1.68 1.167 4.037 1.75 7.07 1.75 3.36 0 6.44-.466 9.24-1.4v-20.02h17.78ZM334.473 410h-19.25l-2.66-8.05h-18.9l-2.66 8.05h-19.46l21.35-49.42h20.16l21.42 49.42Zm-25.62-18.97-5.81-16.73-5.67 16.73h11.48Zm90.193-16.94-16.38 2.87c-2.426-4.806-6.556-7.21-12.39-7.21-4.806 0-8.633 1.494-11.48 4.48-2.566 2.707-3.85 6.37-3.85 10.99 0 4.014 1.074 7.374 3.22 10.08 2.707 3.454 6.487 5.18 11.341 5.18 3.453 0 6.393-.793 8.819-2.38 2.427-1.586 4.014-3.546 4.76-5.88l16.87 1.75c-1.166 3.827-3.033 7.047-5.6 9.66-5.32 5.367-13.743 8.05-25.27 8.05-7.28 0-13.393-1.166-18.34-3.5a48.069 48.069 0 0 1-3.43-1.82c-1.073-.7-2.31-1.703-3.71-3.01a25.043 25.043 0 0 1-3.64-4.41c-.98-1.586-1.82-3.57-2.52-5.95-.7-2.38-1.05-4.946-1.05-7.7 0-1.026.047-2.076.14-3.15.141-1.073.444-2.543.91-4.41a25.522 25.522 0 0 1 2.03-5.18c.887-1.633 2.17-3.336 3.85-5.11 1.68-1.773 3.64-3.29 5.88-4.55 2.24-1.26 5.11-2.31 8.61-3.15 3.547-.84 7.49-1.26 11.83-1.26 11.947 0 20.347 2.684 25.2 8.05 1.821 1.96 3.22 4.48 4.2 7.56Zm54.424-2.45h-17.5V410h-17.78v-38.36h-17.57v-11.06h52.85v11.06ZM519.094 410h-17.78v-36.82h-18.2v3.22c0 4.387-.14 8.144-.42 11.27-.234 3.08-.7 5.95-1.4 8.61-.654 2.614-1.564 4.737-2.73 6.37-1.12 1.634-2.614 3.034-4.48 4.2-1.82 1.167-3.99 1.984-6.51 2.45-2.474.467-5.437.7-8.89.7h-3.22v-12.6h2.24c2.473 0 4.246-.49 5.32-1.47 1.12-.98 1.936-3.173 2.45-6.58.56-3.406.84-8.866.84-16.38v-12.39h52.78V410Zm8.418 0v-49.42h17.78v26.53l24.08-20.16v-6.37h17.78V410h-17.78v-26.46l-24.08 20.16v6.3h-17.78Zm68.087-49.42h42.07c10.08 0 15.12 3.85 15.12 11.55 0 5.74-3.15 9.45-9.45 11.13 3.874.607 6.65 1.634 8.33 3.08 2.427 2.007 3.64 5.04 3.64 9.1 0 3.407-.956 6.277-2.87 8.61-2.006 2.427-4.62 4.037-7.84 4.83-3.173.747-6.836 1.12-10.99 1.12h-38.01v-49.42Zm17.85 18.83h17.5c3.267 0 4.9-1.306 4.9-3.92 0-2.52-1.516-3.78-4.55-3.78h-17.85v7.7Zm-.14 10.71v8.61h18.69c3.827 0 5.74-1.516 5.74-4.55 0-2.706-1.493-4.06-4.48-4.06h-19.95ZM741.373 410h-17.78v-49.42h17.78V410Zm-80.15-49.42h17.78v16.59h17.43c7.046 0 12.273 1.237 15.68 3.71 3.453 2.427 5.18 6.604 5.18 12.53 0 5.787-1.75 10.01-5.25 12.67-3.454 2.614-8.167 3.92-14.14 3.92h-36.68v-49.42Zm17.78 27.79v10.43h14.91c2.146 0 3.616-.443 4.41-1.33.793-.933 1.19-2.333 1.19-4.2 0-1.353-.537-2.496-1.61-3.43-1.074-.98-2.334-1.47-3.78-1.47h-15.12ZM802.528 410h-52.78v-49.42h52.15v11.06h-34.44v8.12h31.85v11.13h-31.85v7.91h35.07V410Zm84.071-49.42V410h-17.78v-17.71c-4.247.934-8.914 1.4-14 1.4-8.494 0-14.397-1.236-17.71-3.71-3.267-2.52-4.9-6.743-4.9-12.67v-16.73h17.78v12.81c0 3.407.84 5.694 2.52 6.86 1.68 1.167 4.036 1.75 7.07 1.75 3.36 0 6.44-.466 9.24-1.4v-20.02h17.78ZM953.672 410h-19.25l-2.66-8.05h-18.9l-2.66 8.05h-19.46l21.35-49.42h20.16l21.42 49.42Zm-25.62-18.97-5.81-16.73-5.67 16.73h11.48Zm90.198-16.94-16.38 2.87c-2.431-4.806-6.561-7.21-12.394-7.21-4.807 0-8.634 1.494-11.48 4.48-2.567 2.707-3.85 6.37-3.85 10.99 0 4.014 1.073 7.374 3.22 10.08 2.706 3.454 6.486 5.18 11.34 5.18 3.453 0 6.393-.793 8.82-2.38 2.426-1.586 4.014-3.546 4.764-5.88l16.87 1.75c-1.17 3.827-3.04 7.047-5.6 9.66-5.32 5.367-13.748 8.05-25.274 8.05-7.28 0-13.394-1.166-18.34-3.5a47.855 47.855 0 0 1-3.43-1.82c-1.074-.7-2.31-1.703-3.71-3.01a25 25 0 0 1-3.64-4.41c-.98-1.586-1.82-3.57-2.52-5.95-.7-2.38-1.05-4.946-1.05-7.7 0-1.026.046-2.076.14-3.15.14-1.073.443-2.543.91-4.41a25.464 25.464 0 0 1 2.03-5.18c.886-1.633 2.17-3.336 3.85-5.11 1.68-1.773 3.64-3.29 5.88-4.55 2.24-1.26 5.11-2.31 8.61-3.15 3.546-.84 7.49-1.26 11.83-1.26 11.944 0 20.344 2.684 25.204 8.05 1.82 1.96 3.22 4.48 4.2 7.56Zm85.36 35.91h-17.78v-49.42h17.78V410Zm-80.15-49.42h17.78v16.59h17.43c7.05 0 12.27 1.237 15.68 3.71 3.45 2.427 5.18 6.604 5.18 12.53 0 5.787-1.75 10.01-5.25 12.67-3.45 2.614-8.17 3.92-14.14 3.92h-36.68v-49.42Zm17.78 27.79v10.43h14.91c2.15 0 3.62-.443 4.41-1.33.79-.933 1.19-2.333 1.19-4.2 0-1.353-.54-2.496-1.61-3.43-1.07-.98-2.33-1.47-3.78-1.47h-15.12Z" stroke="url(#f)" stroke-width="2" mask="url(#d)"/><path d="m337.896 451.09-16.38 2.87c-2.427-4.806-6.557-7.21-12.39-7.21-4.807 0-8.633 1.494-11.48 4.48-2.567 2.707-3.85 6.37-3.85 10.99 0 4.014 1.073 7.374 3.22 10.08 2.707 3.454 6.487 5.18 11.34 5.18 3.453 0 6.393-.793 8.82-2.38 2.427-1.586 4.013-3.546 4.76-5.88l16.87 1.75c-1.167 3.827-3.033 7.047-5.6 9.66-5.32 5.367-13.743 8.05-25.27 8.05-7.28 0-13.393-1.166-18.34-3.5a47.855 47.855 0 0 1-3.43-1.82c-1.073-.7-2.31-1.703-3.71-3.01a25.043 25.043 0 0 1-3.64-4.41c-.98-1.586-1.82-3.57-2.52-5.95-.7-2.38-1.05-4.946-1.05-7.7 0-1.026.047-2.076.14-3.15.14-1.073.443-2.543.91-4.41a25.464 25.464 0 0 1 2.03-5.18c.887-1.633 2.17-3.336 3.85-5.11 1.68-1.773 3.64-3.29 5.88-4.55 2.24-1.26 5.11-2.31 8.61-3.15 3.547-.84 7.49-1.26 11.83-1.26 11.947 0 20.347 2.684 25.2 8.05 1.82 1.96 3.22 4.48 4.2 7.56Zm57.503-13.51V487h-17.78v-17.71c-4.246.934-8.913 1.4-14 1.4-8.493 0-14.396-1.236-17.71-3.71-3.266-2.52-4.9-6.743-4.9-12.67v-16.73h17.78v12.81c0 3.407.84 5.694 2.52 6.86 1.68 1.167 4.037 1.75 7.07 1.75 3.36 0 6.44-.466 9.24-1.4v-20.02h17.78ZM462.473 487h-19.25l-2.66-8.05h-18.9l-2.66 8.05h-19.46l21.35-49.42h20.16l21.42 49.42Zm-25.62-18.97-5.81-16.73-5.67 16.73h11.48Zm90.194-16.94-16.381 2.87c-2.426-4.806-6.556-7.21-12.39-7.21-4.806 0-8.633 1.494-11.48 4.48-2.566 2.707-3.85 6.37-3.85 10.99 0 4.014 1.074 7.374 3.22 10.08 2.707 3.454 6.487 5.18 11.341 5.18 3.453 0 6.393-.793 8.819-2.38 2.427-1.586 4.014-3.546 4.76-5.88l16.87 1.75c-1.166 3.827-3.033 7.047-5.599 9.66-5.321 5.367-13.744 8.05-25.271 8.05-7.28 0-13.393-1.166-18.34-3.5a48.069 48.069 0 0 1-3.43-1.82c-1.073-.7-2.31-1.703-3.71-3.01a25.043 25.043 0 0 1-3.64-4.41c-.98-1.586-1.82-3.57-2.52-5.95-.7-2.38-1.05-4.946-1.05-7.7 0-1.026.047-2.076.14-3.15.141-1.073.444-2.543.91-4.41a25.522 25.522 0 0 1 2.03-5.18c.887-1.633 2.17-3.336 3.85-5.11 1.68-1.773 3.64-3.29 5.88-4.55 2.24-1.26 5.11-2.31 8.61-3.15 3.547-.84 7.49-1.26 11.83-1.26 11.947 0 20.347 2.684 25.2 8.05 1.821 1.96 3.221 4.48 4.201 7.56Zm54.423-2.45h-17.5V487h-17.78v-38.36h-17.57v-11.06h52.85v11.06ZM647.094 487h-17.78v-36.82h-18.2v3.22c0 4.387-.14 8.144-.42 11.27-.234 3.08-.7 5.95-1.4 8.61-.654 2.614-1.564 4.737-2.73 6.37-1.12 1.634-2.614 3.034-4.48 4.2-1.82 1.167-3.99 1.984-6.51 2.45-2.474.467-5.437.7-8.89.7h-3.22v-12.6h2.24c2.473 0 4.246-.49 5.32-1.47 1.12-.98 1.936-3.173 2.45-6.58.56-3.406.84-8.866.84-16.38v-12.39h52.78V487Zm8.418 0v-49.42h17.78v26.53l24.08-20.16v-6.37h17.78V487h-17.78v-26.46l-24.08 20.16v6.3h-17.78Zm68.087-49.42h42.07c10.08 0 15.12 3.85 15.12 11.55 0 5.74-3.15 9.45-9.45 11.13 3.874.607 6.65 1.634 8.33 3.08 2.427 2.007 3.64 5.04 3.64 9.1 0 3.407-.956 6.277-2.87 8.61-2.006 2.427-4.62 4.037-7.84 4.83-3.173.747-6.836 1.12-10.99 1.12h-38.01v-49.42Zm17.85 18.83h17.5c3.267 0 4.9-1.306 4.9-3.92 0-2.52-1.516-3.78-4.55-3.78h-17.85v7.7Zm-.14 10.71v8.61h18.69c3.827 0 5.74-1.516 5.74-4.55 0-2.706-1.493-4.06-4.48-4.06h-19.95ZM869.373 487h-17.78v-49.42h17.78V487Zm-80.15-49.42h17.78v16.59h17.43c7.046 0 12.273 1.237 15.68 3.71 3.453 2.427 5.18 6.604 5.18 12.53 0 5.787-1.75 10.01-5.25 12.67-3.454 2.614-8.167 3.92-14.14 3.92h-36.68v-49.42Zm17.78 27.79v10.43h14.91c2.146 0 3.616-.443 4.41-1.33.793-.933 1.19-2.333 1.19-4.2 0-1.353-.537-2.496-1.61-3.43-1.074-.98-2.334-1.47-3.78-1.47h-15.12ZM930.528 487h-52.78v-49.42h52.15v11.06h-34.44v8.12h31.85v11.13h-31.85v7.91h35.07V487Zm84.072-49.42V487h-17.781v-17.71c-4.247.934-8.914 1.4-14 1.4-8.494 0-14.397-1.236-17.71-3.71-3.267-2.52-4.9-6.743-4.9-12.67v-16.73h17.78v12.81c0 3.407.84 5.694 2.52 6.86 1.68 1.167 4.036 1.75 7.07 1.75 3.36 0 6.44-.466 9.24-1.4v-20.02h17.781Zm67.07 49.42h-19.25l-2.66-8.05h-18.9l-2.66 8.05h-19.46l21.35-49.42h20.16l21.42 49.42Zm-25.62-18.97-5.81-16.73-5.67 16.73h11.48Zm90.2-16.94-16.38 2.87c-2.43-4.806-6.56-7.21-12.39-7.21-4.81 0-8.64 1.494-11.48 4.48-2.57 2.707-3.85 6.37-3.85 10.99 0 4.014 1.07 7.374 3.22 10.08 2.7 3.454 6.48 5.18 11.34 5.18 3.45 0 6.39-.793 8.82-2.38 2.42-1.586 4.01-3.546 4.76-5.88l16.87 1.75c-1.17 3.827-3.04 7.047-5.6 9.66-5.32 5.367-13.75 8.05-25.27 8.05-7.28 0-13.4-1.166-18.34-3.5a47.223 47.223 0 0 1-3.43-1.82c-1.08-.7-2.31-1.703-3.71-3.01a24.739 24.739 0 0 1-3.64-4.41c-.98-1.586-1.82-3.57-2.52-5.95-.7-2.38-1.05-4.946-1.05-7.7 0-1.026.04-2.076.14-3.15.14-1.073.44-2.543.91-4.41a25.292 25.292 0 0 1 2.03-5.18c.88-1.633 2.17-3.336 3.85-5.11 1.68-1.773 3.64-3.29 5.88-4.55 2.24-1.26 5.11-2.31 8.61-3.15 3.54-.84 7.49-1.26 11.83-1.26 11.94 0 20.34 2.684 25.2 8.05 1.82 1.96 3.22 4.48 4.2 7.56Zm85.36 35.91h-17.78v-49.42h17.78V487Zm-80.15-49.42h17.78v16.59h17.43c7.05 0 12.27 1.237 15.68 3.71 3.45 2.427 5.18 6.604 5.18 12.53 0 5.787-1.75 10.01-5.25 12.67-3.45 2.614-8.17 3.92-14.14 3.92h-36.68v-49.42Zm17.78 27.79v10.43h14.91c2.15 0 3.62-.443 4.41-1.33.79-.933 1.19-2.333 1.19-4.2 0-1.353-.54-2.496-1.61-3.43-1.07-.98-2.33-1.47-3.78-1.47h-15.12Z" stroke="url(#g)" stroke-width="2" mask="url(#d)"/><path d="m305.896 526.09-16.38 2.87c-2.427-4.806-6.557-7.21-12.39-7.21-4.807 0-8.633 1.494-11.48 4.48-2.567 2.707-3.85 6.37-3.85 10.99 0 4.014 1.073 7.374 3.22 10.08 2.707 3.454 6.487 5.18 11.34 5.18 3.453 0 6.393-.793 8.82-2.38 2.427-1.586 4.013-3.546 4.76-5.88l16.87 1.75c-1.167 3.827-3.033 7.047-5.6 9.66-5.32 5.367-13.743 8.05-25.27 8.05-7.28 0-13.393-1.166-18.34-3.5a47.855 47.855 0 0 1-3.43-1.82c-1.073-.7-2.31-1.703-3.71-3.01a25.043 25.043 0 0 1-3.64-4.41c-.98-1.586-1.82-3.57-2.52-5.95-.7-2.38-1.05-4.946-1.05-7.7 0-1.026.047-2.076.14-3.15.14-1.073.443-2.543.91-4.41a25.464 25.464 0 0 1 2.03-5.18c.887-1.633 2.17-3.336 3.85-5.11 1.68-1.773 3.64-3.29 5.88-4.55 2.24-1.26 5.11-2.31 8.61-3.15 3.547-.84 7.49-1.26 11.83-1.26 11.947 0 20.347 2.684 25.2 8.05 1.82 1.96 3.22 4.48 4.2 7.56Zm57.503-13.51V562h-17.78v-17.71c-4.246.934-8.913 1.4-14 1.4-8.493 0-14.396-1.236-17.71-3.71-3.266-2.52-4.9-6.743-4.9-12.67v-16.73h17.78v12.81c0 3.407.84 5.694 2.52 6.86 1.68 1.167 4.037 1.75 7.07 1.75 3.36 0 6.44-.466 9.24-1.4v-20.02h17.78ZM430.473 562h-19.25l-2.66-8.05h-18.9l-2.66 8.05h-19.46l21.35-49.42h20.16l21.42 49.42Zm-25.62-18.97-5.81-16.73-5.67 16.73h11.48Zm90.193-16.94-16.38 2.87c-2.426-4.806-6.556-7.21-12.39-7.21-4.806 0-8.633 1.494-11.48 4.48-2.566 2.707-3.85 6.37-3.85 10.99 0 4.014 1.074 7.374 3.22 10.08 2.707 3.454 6.487 5.18 11.341 5.18 3.453 0 6.393-.793 8.819-2.38 2.427-1.586 4.014-3.546 4.76-5.88l16.87 1.75c-1.166 3.827-3.033 7.047-5.6 9.66-5.32 5.367-13.743 8.05-25.27 8.05-7.28 0-13.393-1.166-18.34-3.5a48.069 48.069 0 0 1-3.43-1.82c-1.073-.7-2.31-1.703-3.71-3.01a25.043 25.043 0 0 1-3.64-4.41c-.98-1.586-1.82-3.57-2.52-5.95-.7-2.38-1.05-4.946-1.05-7.7 0-1.026.047-2.076.14-3.15.141-1.073.444-2.543.91-4.41a25.522 25.522 0 0 1 2.03-5.18c.887-1.633 2.17-3.336 3.85-5.11 1.68-1.773 3.64-3.29 5.88-4.55 2.24-1.26 5.11-2.31 8.61-3.15 3.547-.84 7.49-1.26 11.83-1.26 11.947 0 20.347 2.684 25.2 8.05 1.821 1.96 3.22 4.48 4.2 7.56Zm54.424-2.45h-17.5V562h-17.78v-38.36h-17.57v-11.06h52.85v11.06ZM615.094 562h-17.78v-36.82h-18.2v3.22c0 4.387-.14 8.144-.42 11.27-.234 3.08-.7 5.95-1.4 8.61-.654 2.614-1.564 4.737-2.73 6.37-1.12 1.634-2.614 3.034-4.48 4.2-1.82 1.167-3.99 1.984-6.51 2.45-2.474.467-5.437.7-8.89.7h-3.22v-12.6h2.24c2.473 0 4.246-.49 5.32-1.47 1.12-.98 1.936-3.173 2.45-6.58.56-3.406.84-8.866.84-16.38v-12.39h52.78V562Zm8.418 0v-49.42h17.78v26.53l24.08-20.16v-6.37h17.78V562h-17.78v-26.46l-24.08 20.16v6.3h-17.78Zm68.087-49.42h42.07c10.08 0 15.12 3.85 15.12 11.55 0 5.74-3.15 9.45-9.45 11.13 3.874.607 6.65 1.634 8.33 3.08 2.427 2.007 3.64 5.04 3.64 9.1 0 3.407-.956 6.277-2.87 8.61-2.006 2.427-4.62 4.037-7.84 4.83-3.173.747-6.836 1.12-10.99 1.12h-38.01v-49.42Zm17.85 18.83h17.5c3.267 0 4.9-1.306 4.9-3.92 0-2.52-1.516-3.78-4.55-3.78h-17.85v7.7Zm-.14 10.71v8.61h18.69c3.827 0 5.74-1.516 5.74-4.55 0-2.706-1.493-4.06-4.48-4.06h-19.95ZM837.373 562h-17.78v-49.42h17.78V562Zm-80.15-49.42h17.78v16.59h17.43c7.046 0 12.273 1.237 15.68 3.71 3.453 2.427 5.18 6.604 5.18 12.53 0 5.787-1.75 10.01-5.25 12.67-3.454 2.614-8.167 3.92-14.14 3.92h-36.68v-49.42Zm17.78 27.79v10.43h14.91c2.146 0 3.616-.443 4.41-1.33.793-.933 1.19-2.333 1.19-4.2 0-1.353-.537-2.496-1.61-3.43-1.074-.98-2.334-1.47-3.78-1.47h-15.12ZM898.528 562h-52.78v-49.42h52.15v11.06h-34.44v8.12h31.85v11.13h-31.85v7.91h35.07V562Zm84.071-49.42V562h-17.78v-17.71c-4.247.934-8.914 1.4-14 1.4-8.494 0-14.397-1.236-17.71-3.71-3.267-2.52-4.9-6.743-4.9-12.67v-16.73h17.78v12.81c0 3.407.84 5.694 2.52 6.86 1.68 1.167 4.036 1.75 7.07 1.75 3.36 0 6.44-.466 9.24-1.4v-20.02h17.78ZM1049.67 562h-19.25l-2.66-8.05h-18.9l-2.66 8.05h-19.458l21.348-49.42h20.16l21.42 49.42Zm-25.62-18.97-5.81-16.73-5.67 16.73h11.48Zm90.2-16.94-16.38 2.87c-2.43-4.806-6.56-7.21-12.39-7.21-4.81 0-8.64 1.494-11.48 4.48-2.57 2.707-3.85 6.37-3.85 10.99 0 4.014 1.07 7.374 3.22 10.08 2.7 3.454 6.48 5.18 11.34 5.18 3.45 0 6.39-.793 8.82-2.38 2.42-1.586 4.01-3.546 4.76-5.88l16.87 1.75c-1.17 3.827-3.04 7.047-5.6 9.66-5.32 5.367-13.75 8.05-25.27 8.05-7.28 0-13.4-1.166-18.34-3.5a47.223 47.223 0 0 1-3.43-1.82c-1.08-.7-2.31-1.703-3.71-3.01a24.739 24.739 0 0 1-3.64-4.41c-.98-1.586-1.82-3.57-2.52-5.95-.7-2.38-1.05-4.946-1.05-7.7 0-1.026.04-2.076.14-3.15.14-1.073.44-2.543.91-4.41a25.292 25.292 0 0 1 2.03-5.18c.88-1.633 2.17-3.336 3.85-5.11 1.68-1.773 3.64-3.29 5.88-4.55 2.24-1.26 5.11-2.31 8.61-3.15 3.54-.84 7.49-1.26 11.83-1.26 11.94 0 20.34 2.684 25.2 8.05 1.82 1.96 3.22 4.48 4.2 7.56Zm85.36 35.91h-17.78v-49.42h17.78V562Zm-80.15-49.42h17.78v16.59h17.43c7.05 0 12.27 1.237 15.68 3.71 3.45 2.427 5.18 6.604 5.18 12.53 0 5.787-1.75 10.01-5.25 12.67-3.45 2.614-8.17 3.92-14.14 3.92h-36.68v-49.42Zm17.78 27.79v10.43h14.91c2.15 0 3.62-.443 4.41-1.33.79-.933 1.19-2.333 1.19-4.2 0-1.353-.54-2.496-1.61-3.43-1.07-.98-2.33-1.47-3.78-1.47h-15.12Z" stroke="url(#h)" stroke-width="2" mask="url(#d)"/><path d="m433.896 603.09-16.38 2.87c-2.427-4.806-6.557-7.21-12.39-7.21-4.807 0-8.633 1.494-11.48 4.48-2.567 2.707-3.85 6.37-3.85 10.99 0 4.014 1.073 7.374 3.22 10.08 2.707 3.454 6.487 5.18 11.34 5.18 3.453 0 6.393-.793 8.82-2.38 2.427-1.586 4.013-3.546 4.76-5.88l16.87 1.75c-1.167 3.827-3.033 7.047-5.6 9.66-5.32 5.367-13.743 8.05-25.27 8.05-7.28 0-13.393-1.166-18.34-3.5a47.855 47.855 0 0 1-3.43-1.82c-1.073-.7-2.31-1.703-3.71-3.01a25.043 25.043 0 0 1-3.64-4.41c-.98-1.586-1.82-3.57-2.52-5.95-.7-2.38-1.05-4.946-1.05-7.7 0-1.026.047-2.076.14-3.15.14-1.073.443-2.543.91-4.41a25.464 25.464 0 0 1 2.03-5.18c.887-1.633 2.17-3.336 3.85-5.11 1.68-1.773 3.64-3.29 5.88-4.55 2.24-1.26 5.11-2.31 8.61-3.15 3.547-.84 7.49-1.26 11.83-1.26 11.947 0 20.347 2.684 25.2 8.05 1.82 1.96 3.22 4.48 4.2 7.56Zm57.503-13.51V639h-17.78v-17.71c-4.246.934-8.913 1.4-14 1.4-8.493 0-14.396-1.236-17.71-3.71-3.266-2.52-4.9-6.743-4.9-12.67v-16.73h17.78v12.81c0 3.407.84 5.694 2.52 6.86 1.68 1.167 4.037 1.75 7.07 1.75 3.36 0 6.44-.466 9.24-1.4v-20.02h17.78ZM558.473 639h-19.25l-2.66-8.05h-18.9l-2.66 8.05h-19.46l21.35-49.42h20.16l21.42 49.42Zm-25.62-18.97-5.81-16.73-5.67 16.73h11.48Zm90.194-16.94-16.38 2.87c-2.427-4.806-6.557-7.21-12.391-7.21-4.806 0-8.633 1.494-11.479 4.48-2.567 2.707-3.851 6.37-3.851 10.99 0 4.014 1.074 7.374 3.221 10.08 2.706 3.454 6.486 5.18 11.339 5.18 3.454 0 6.394-.793 8.82-2.38 2.427-1.586 4.014-3.546 4.76-5.88l16.87 1.75c-1.166 3.827-3.033 7.047-5.599 9.66-5.321 5.367-13.744 8.05-25.271 8.05-7.28 0-13.393-1.166-18.34-3.5a48.069 48.069 0 0 1-3.43-1.82c-1.073-.7-2.309-1.703-3.709-3.01a25.005 25.005 0 0 1-3.641-4.41c-.979-1.586-1.82-3.57-2.52-5.95-.7-2.38-1.05-4.946-1.05-7.7 0-1.026.047-2.076.14-3.15.141-1.073.444-2.543.91-4.41a25.466 25.466 0 0 1 2.031-5.18c.886-1.633 2.169-3.336 3.849-5.11 1.68-1.773 3.64-3.29 5.88-4.55 2.24-1.26 5.11-2.31 8.61-3.15 3.547-.84 7.49-1.26 11.83-1.26 11.947 0 20.347 2.684 25.2 8.05 1.821 1.96 3.221 4.48 4.201 7.56Zm54.423-2.45h-17.5V639h-17.78v-38.36h-17.57v-11.06h52.85v11.06ZM743.094 639h-17.78v-36.82h-18.2v3.22c0 4.387-.14 8.144-.42 11.27-.234 3.08-.7 5.95-1.4 8.61-.654 2.614-1.564 4.737-2.73 6.37-1.12 1.634-2.614 3.034-4.48 4.2-1.82 1.167-3.99 1.984-6.51 2.45-2.474.467-5.437.7-8.89.7h-3.22v-12.6h2.24c2.473 0 4.246-.49 5.32-1.47 1.12-.98 1.936-3.173 2.45-6.58.56-3.406.84-8.866.84-16.38v-12.39h52.78V639Zm8.418 0v-49.42h17.78v26.53l24.08-20.16v-6.37h17.78V639h-17.78v-26.46l-24.08 20.16v6.3h-17.78Zm68.087-49.42h42.07c10.08 0 15.12 3.85 15.12 11.55 0 5.74-3.15 9.45-9.45 11.13 3.874.607 6.65 1.634 8.33 3.08 2.427 2.007 3.64 5.04 3.64 9.1 0 3.407-.956 6.277-2.87 8.61-2.006 2.427-4.62 4.037-7.84 4.83-3.173.747-6.836 1.12-10.99 1.12h-38.01v-49.42Zm17.85 18.83h17.5c3.267 0 4.9-1.306 4.9-3.92 0-2.52-1.516-3.78-4.55-3.78h-17.85v7.7Zm-.14 10.71v8.61h18.69c3.827 0 5.74-1.516 5.74-4.55 0-2.706-1.493-4.06-4.48-4.06h-19.95ZM965.373 639h-17.78v-49.42h17.78V639Zm-80.15-49.42h17.78v16.59h17.43c7.046 0 12.273 1.237 15.68 3.71 3.453 2.427 5.18 6.604 5.18 12.53 0 5.787-1.75 10.01-5.25 12.67-3.454 2.614-8.167 3.92-14.14 3.92h-36.68v-49.42Zm17.78 27.79v10.43h14.91c2.146 0 3.616-.443 4.41-1.33.793-.933 1.19-2.333 1.19-4.2 0-1.353-.537-2.496-1.61-3.43-1.074-.98-2.334-1.47-3.78-1.47h-15.12ZM1026.53 639h-52.782v-49.42h52.152v11.06h-34.442v8.12h31.852v11.13h-31.852v7.91h35.072V639Zm84.07-49.42V639h-17.78v-17.71c-4.25.934-8.91 1.4-14 1.4-8.49 0-14.4-1.236-17.71-3.71-3.27-2.52-4.9-6.743-4.9-12.67v-16.73h17.78v12.81c0 3.407.84 5.694 2.52 6.86 1.68 1.167 4.04 1.75 7.07 1.75 3.36 0 6.44-.466 9.24-1.4v-20.02h17.78Zm67.07 49.42h-19.25l-2.66-8.05h-18.9l-2.66 8.05h-19.46l21.35-49.42h20.16l21.42 49.42Zm-25.62-18.97-5.81-16.73-5.67 16.73h11.48Zm90.2-16.94-16.38 2.87c-2.43-4.806-6.56-7.21-12.39-7.21-4.81 0-8.64 1.494-11.48 4.48-2.57 2.707-3.85 6.37-3.85 10.99 0 4.014 1.07 7.374 3.22 10.08 2.7 3.454 6.48 5.18 11.34 5.18 3.45 0 6.39-.793 8.82-2.38 2.42-1.586 4.01-3.546 4.76-5.88l16.87 1.75c-1.17 3.827-3.04 7.047-5.6 9.66-5.32 5.367-13.75 8.05-25.27 8.05-7.28 0-13.4-1.166-18.34-3.5a47.223 47.223 0 0 1-3.43-1.82c-1.08-.7-2.31-1.703-3.71-3.01a24.739 24.739 0 0 1-3.64-4.41c-.98-1.586-1.82-3.57-2.52-5.95-.7-2.38-1.05-4.946-1.05-7.7 0-1.026.04-2.076.14-3.15.14-1.073.44-2.543.91-4.41a25.292 25.292 0 0 1 2.03-5.18c.88-1.633 2.17-3.336 3.85-5.11 1.68-1.773 3.64-3.29 5.88-4.55 2.24-1.26 5.11-2.31 8.61-3.15 3.54-.84 7.49-1.26 11.83-1.26 11.94 0 20.34 2.684 25.2 8.05 1.82 1.96 3.22 4.48 4.2 7.56Zm85.36 35.91h-17.78v-49.42h17.78V639Zm-80.15-49.42h17.78v16.59h17.43c7.05 0 12.27 1.237 15.68 3.71 3.45 2.427 5.18 6.604 5.18 12.53 0 5.787-1.75 10.01-5.25 12.67-3.45 2.614-8.17 3.92-14.14 3.92h-36.68v-49.42Zm17.78 27.79v10.43h14.91c2.15 0 3.62-.443 4.41-1.33.79-.933 1.19-2.333 1.19-4.2 0-1.353-.54-2.496-1.61-3.43-1.07-.98-2.33-1.47-3.78-1.47h-15.12Z" stroke="url(#i)" stroke-width="2" mask="url(#d)"/><path d="m162.896 675.09-16.38 2.87c-2.427-4.806-6.557-7.21-12.39-7.21-4.807 0-8.633 1.494-11.48 4.48-2.567 2.707-3.85 6.37-3.85 10.99 0 4.014 1.073 7.374 3.22 10.08 2.707 3.454 6.487 5.18 11.34 5.18 3.453 0 6.393-.793 8.82-2.38 2.427-1.586 4.013-3.546 4.76-5.88l16.87 1.75c-1.167 3.827-3.033 7.047-5.6 9.66-5.32 5.367-13.743 8.05-25.27 8.05-7.28 0-13.393-1.166-18.34-3.5a47.855 47.855 0 0 1-3.43-1.82c-1.073-.7-2.31-1.703-3.71-3.01a25.043 25.043 0 0 1-3.64-4.41c-.98-1.586-1.82-3.57-2.52-5.95-.7-2.38-1.05-4.946-1.05-7.7 0-1.026.047-2.076.14-3.15.14-1.073.443-2.543.91-4.41a25.464 25.464 0 0 1 2.03-5.18c.887-1.633 2.17-3.336 3.85-5.11 1.68-1.773 3.64-3.29 5.88-4.55 2.24-1.26 5.11-2.31 8.61-3.15 3.547-.84 7.49-1.26 11.83-1.26 11.947 0 20.347 2.684 25.2 8.05 1.82 1.96 3.22 4.48 4.2 7.56Zm57.503-13.51V711h-17.78v-17.71c-4.246.934-8.913 1.4-14 1.4-8.493 0-14.396-1.236-17.71-3.71-3.266-2.52-4.9-6.743-4.9-12.67v-16.73h17.78v12.81c0 3.407.84 5.694 2.52 6.86 1.68 1.167 4.037 1.75 7.07 1.75 3.36 0 6.44-.466 9.24-1.4v-20.02h17.78ZM287.473 711h-19.25l-2.66-8.05h-18.9l-2.66 8.05h-19.46l21.35-49.42h20.16l21.42 49.42Zm-25.62-18.97-5.81-16.73-5.67 16.73h11.48Zm90.193-16.94-16.38 2.87c-2.426-4.806-6.556-7.21-12.39-7.21-4.806 0-8.633 1.494-11.48 4.48-2.566 2.707-3.85 6.37-3.85 10.99 0 4.014 1.074 7.374 3.22 10.08 2.707 3.454 6.487 5.18 11.341 5.18 3.453 0 6.393-.793 8.819-2.38 2.427-1.586 4.014-3.546 4.76-5.88l16.87 1.75c-1.166 3.827-3.033 7.047-5.6 9.66-5.32 5.367-13.743 8.05-25.27 8.05-7.28 0-13.393-1.166-18.34-3.5a48.069 48.069 0 0 1-3.43-1.82c-1.073-.7-2.31-1.703-3.71-3.01a25.043 25.043 0 0 1-3.64-4.41c-.98-1.586-1.82-3.57-2.52-5.95-.7-2.38-1.05-4.946-1.05-7.7 0-1.026.047-2.076.14-3.15.141-1.073.444-2.543.91-4.41a25.522 25.522 0 0 1 2.03-5.18c.887-1.633 2.17-3.336 3.85-5.11 1.68-1.773 3.64-3.29 5.88-4.55 2.24-1.26 5.11-2.31 8.61-3.15 3.547-.84 7.49-1.26 11.83-1.26 11.947 0 20.347 2.684 25.2 8.05 1.821 1.96 3.22 4.48 4.2 7.56Zm54.424-2.45h-17.5V711h-17.78v-38.36h-17.57v-11.06h52.85v11.06ZM472.094 711h-17.78v-36.82h-18.2v3.22c0 4.387-.14 8.144-.42 11.27-.234 3.08-.7 5.95-1.4 8.61-.654 2.614-1.564 4.737-2.73 6.37-1.12 1.634-2.614 3.034-4.48 4.2-1.82 1.167-3.99 1.984-6.51 2.45-2.474.467-5.437.7-8.89.7h-3.22v-12.6h2.24c2.473 0 4.246-.49 5.32-1.47 1.12-.98 1.936-3.173 2.45-6.58.56-3.406.84-8.866.84-16.38v-12.39h52.78V711Zm8.418 0v-49.42h17.78v26.53l24.08-20.16v-6.37h17.78V711h-17.78v-26.46l-24.08 20.16v6.3h-17.78Zm68.087-49.42h42.07c10.08 0 15.12 3.85 15.12 11.55 0 5.74-3.15 9.45-9.45 11.13 3.874.607 6.65 1.634 8.33 3.08 2.427 2.007 3.64 5.04 3.64 9.1 0 3.407-.956 6.277-2.87 8.61-2.006 2.427-4.62 4.037-7.84 4.83-3.173.747-6.836 1.12-10.99 1.12h-38.01v-49.42Zm17.85 18.83h17.5c3.267 0 4.9-1.306 4.9-3.92 0-2.52-1.516-3.78-4.55-3.78h-17.85v7.7Zm-.14 10.71v8.61h18.69c3.827 0 5.74-1.516 5.74-4.55 0-2.706-1.493-4.06-4.48-4.06h-19.95ZM694.373 711h-17.78v-49.42h17.78V711Zm-80.15-49.42h17.78v16.59h17.43c7.046 0 12.273 1.237 15.68 3.71 3.453 2.427 5.18 6.604 5.18 12.53 0 5.787-1.75 10.01-5.25 12.67-3.454 2.614-8.167 3.92-14.14 3.92h-36.68v-49.42Zm17.78 27.79v10.43h14.91c2.146 0 3.616-.443 4.41-1.33.793-.933 1.19-2.333 1.19-4.2 0-1.353-.537-2.496-1.61-3.43-1.074-.98-2.334-1.47-3.78-1.47h-15.12ZM755.528 711h-52.78v-49.42h52.15v11.06h-34.44v8.12h31.85v11.13h-31.85v7.91h35.07V711Zm84.071-49.42V711h-17.78v-17.71c-4.247.934-8.914 1.4-14 1.4-8.494 0-14.397-1.236-17.71-3.71-3.267-2.52-4.9-6.743-4.9-12.67v-16.73h17.78v12.81c0 3.407.84 5.694 2.52 6.86 1.68 1.167 4.036 1.75 7.07 1.75 3.36 0 6.44-.466 9.24-1.4v-20.02h17.78ZM906.672 711h-19.25l-2.66-8.05h-18.9l-2.66 8.05h-19.46l21.35-49.42h20.16l21.42 49.42Zm-25.62-18.97-5.81-16.73-5.67 16.73h11.48Zm90.194-16.94-16.38 2.87c-2.427-4.806-6.557-7.21-12.39-7.21-4.807 0-8.634 1.494-11.48 4.48-2.567 2.707-3.85 6.37-3.85 10.99 0 4.014 1.073 7.374 3.22 10.08 2.706 3.454 6.486 5.18 11.34 5.18 3.453 0 6.393-.793 8.82-2.38 2.426-1.586 4.013-3.546 4.76-5.88l16.87 1.75c-1.167 3.827-3.034 7.047-5.6 9.66-5.32 5.367-13.744 8.05-25.27 8.05-7.28 0-13.394-1.166-18.34-3.5a47.855 47.855 0 0 1-3.43-1.82c-1.074-.7-2.31-1.703-3.71-3.01a25 25 0 0 1-3.64-4.41c-.98-1.586-1.82-3.57-2.52-5.95-.7-2.38-1.05-4.946-1.05-7.7 0-1.026.046-2.076.14-3.15.14-1.073.443-2.543.91-4.41a25.464 25.464 0 0 1 2.03-5.18c.886-1.633 2.17-3.336 3.85-5.11 1.68-1.773 3.64-3.29 5.88-4.55 2.24-1.26 5.11-2.31 8.61-3.15 3.546-.84 7.49-1.26 11.83-1.26 11.946 0 20.346 2.684 25.2 8.05 1.82 1.96 3.22 4.48 4.2 7.56ZM1056.61 711h-17.78v-49.42h17.78V711Zm-80.151-49.42h17.78v16.59h17.431c7.05 0 12.27 1.237 15.68 3.71 3.45 2.427 5.18 6.604 5.18 12.53 0 5.787-1.75 10.01-5.25 12.67-3.45 2.614-8.17 3.92-14.14 3.92h-36.681v-49.42Zm17.78 27.79v10.43h14.911c2.15 0 3.62-.443 4.41-1.33.79-.933 1.19-2.333 1.19-4.2 0-1.353-.54-2.496-1.61-3.43-1.07-.98-2.33-1.47-3.78-1.47h-15.121Z" stroke="url(#j)" stroke-width="2" mask="url(#d)"/><path d="m290.896 752.09-16.38 2.87c-2.427-4.806-6.557-7.21-12.39-7.21-4.807 0-8.633 1.494-11.48 4.48-2.567 2.707-3.85 6.37-3.85 10.99 0 4.014 1.073 7.374 3.22 10.08 2.707 3.454 6.487 5.18 11.34 5.18 3.453 0 6.393-.793 8.82-2.38 2.427-1.586 4.013-3.546 4.76-5.88l16.87 1.75c-1.167 3.827-3.033 7.047-5.6 9.66-5.32 5.367-13.743 8.05-25.27 8.05-7.28 0-13.393-1.166-18.34-3.5a47.855 47.855 0 0 1-3.43-1.82c-1.073-.7-2.31-1.703-3.71-3.01a25.043 25.043 0 0 1-3.64-4.41c-.98-1.586-1.82-3.57-2.52-5.95-.7-2.38-1.05-4.946-1.05-7.7 0-1.026.047-2.076.14-3.15.14-1.073.443-2.543.91-4.41a25.464 25.464 0 0 1 2.03-5.18c.887-1.633 2.17-3.336 3.85-5.11 1.68-1.773 3.64-3.29 5.88-4.55 2.24-1.26 5.11-2.309 8.61-3.15 3.547-.84 7.49-1.26 11.83-1.26 11.947 0 20.347 2.684 25.2 8.05 1.82 1.96 3.22 4.48 4.2 7.56Zm57.503-13.51V788h-17.78v-17.71c-4.246.934-8.913 1.4-14 1.4-8.493 0-14.396-1.236-17.71-3.71-3.266-2.52-4.9-6.743-4.9-12.67v-16.73h17.78v12.811c0 3.406.84 5.693 2.52 6.859 1.68 1.167 4.037 1.75 7.07 1.75 3.36 0 6.44-.466 9.24-1.4v-20.02h17.78ZM415.473 788h-19.25l-2.66-8.049h-18.9l-2.66 8.049h-19.46l21.35-49.42h20.16l21.42 49.42Zm-25.62-18.97-5.81-16.73-5.67 16.73h11.48Zm90.193-16.94-16.38 2.87c-2.426-4.806-6.556-7.21-12.39-7.21-4.806 0-8.633 1.494-11.48 4.48-2.566 2.707-3.85 6.37-3.85 10.99 0 4.014 1.074 7.374 3.22 10.08 2.707 3.454 6.487 5.18 11.341 5.18 3.453 0 6.393-.793 8.819-2.38 2.427-1.586 4.014-3.546 4.76-5.88l16.87 1.75c-1.166 3.827-3.033 7.047-5.6 9.66-5.32 5.367-13.743 8.05-25.27 8.05-7.28 0-13.393-1.166-18.34-3.5a48.069 48.069 0 0 1-3.43-1.82c-1.073-.7-2.31-1.703-3.71-3.01a25.043 25.043 0 0 1-3.64-4.41c-.98-1.586-1.82-3.57-2.52-5.95-.7-2.38-1.05-4.946-1.05-7.7 0-1.026.047-2.076.14-3.15.141-1.073.444-2.543.91-4.41a25.522 25.522 0 0 1 2.03-5.18c.887-1.633 2.17-3.336 3.85-5.11 1.68-1.773 3.64-3.29 5.88-4.55 2.24-1.26 5.11-2.309 8.61-3.15 3.547-.84 7.49-1.26 11.83-1.26 11.947 0 20.347 2.684 25.2 8.05 1.821 1.96 3.22 4.48 4.2 7.56Zm54.424-2.45h-17.5V788h-17.78v-38.36h-17.57v-11.06h52.85v11.06ZM600.094 788h-17.78v-36.82h-18.2v3.22c0 4.387-.14 8.144-.42 11.27-.234 3.08-.7 5.95-1.4 8.61-.654 2.614-1.564 4.737-2.73 6.37-1.12 1.634-2.614 3.034-4.48 4.2-1.82 1.167-3.99 1.984-6.51 2.45-2.474.467-5.437.7-8.89.7h-3.22v-12.6h2.24c2.473 0 4.246-.49 5.32-1.47 1.12-.979 1.936-3.173 2.45-6.58.56-3.406.84-8.866.84-16.38v-12.39h52.78V788Zm8.418 0v-49.42h17.78v26.53l24.08-20.159v-6.371h17.78V788h-17.78v-26.46l-24.08 20.161V788h-17.78Zm68.087-49.42h42.07c10.08 0 15.12 3.85 15.12 11.55 0 5.74-3.15 9.451-9.45 11.13 3.874.607 6.65 1.634 8.33 3.08 2.427 2.007 3.64 5.04 3.64 9.1 0 3.407-.956 6.277-2.87 8.61-2.006 2.427-4.62 4.037-7.84 4.83-3.173.747-6.836 1.12-10.99 1.12h-38.01v-49.42Zm17.85 18.83h17.5c3.267 0 4.9-1.306 4.9-3.92 0-2.52-1.516-3.78-4.55-3.78h-17.85v7.7Zm-.14 10.71v8.61h18.69c3.827 0 5.74-1.516 5.74-4.55 0-2.706-1.493-4.06-4.48-4.06h-19.95ZM822.373 788h-17.78v-49.42h17.78V788Zm-80.15-49.42h17.78v16.59h17.43c7.046 0 12.273 1.237 15.68 3.71 3.453 2.427 5.18 6.604 5.18 12.53 0 5.787-1.75 10.01-5.25 12.67-3.454 2.614-8.167 3.92-14.14 3.92h-36.68v-49.42Zm17.78 27.79v10.43h14.91c2.146 0 3.616-.443 4.41-1.33.793-.933 1.19-2.333 1.19-4.2 0-1.353-.537-2.496-1.61-3.43-1.074-.98-2.334-1.47-3.78-1.47h-15.12ZM883.528 788h-52.78v-49.42h52.15v11.06h-34.44v8.12h31.85v11.131h-31.85v7.909h35.07V788Zm84.071-49.42V788h-17.78v-17.71c-4.247.934-8.914 1.4-14 1.4-8.494 0-14.397-1.236-17.71-3.71-3.267-2.52-4.9-6.743-4.9-12.67v-16.73h17.78v12.811c0 3.406.84 5.693 2.52 6.859 1.68 1.167 4.036 1.75 7.07 1.75 3.36 0 6.44-.466 9.24-1.4v-20.02h17.78ZM1034.67 788h-19.25l-2.66-8.049h-18.898l-2.66 8.049h-19.46l21.35-49.42h20.158l21.42 49.42Zm-25.62-18.97-5.81-16.73-5.668 16.73h11.478Zm90.2-16.94-16.38 2.87c-2.43-4.806-6.56-7.21-12.39-7.21-4.81 0-8.64 1.494-11.48 4.48-2.57 2.707-3.85 6.37-3.85 10.99 0 4.014 1.07 7.374 3.22 10.08 2.7 3.454 6.48 5.18 11.34 5.18 3.45 0 6.39-.793 8.82-2.38 2.42-1.586 4.01-3.546 4.76-5.88l16.87 1.75c-1.17 3.827-3.04 7.047-5.6 9.66-5.32 5.367-13.75 8.05-25.27 8.05-7.28 0-13.4-1.166-18.34-3.5a47.223 47.223 0 0 1-3.43-1.82c-1.08-.7-2.31-1.703-3.71-3.01a24.739 24.739 0 0 1-3.64-4.41c-.98-1.586-1.82-3.57-2.52-5.95-.7-2.38-1.05-4.946-1.05-7.7 0-1.026.04-2.076.14-3.15.14-1.073.44-2.543.91-4.41a25.292 25.292 0 0 1 2.03-5.18c.88-1.633 2.17-3.336 3.85-5.11 1.68-1.773 3.64-3.29 5.88-4.55 2.24-1.26 5.11-2.309 8.61-3.15 3.54-.84 7.49-1.26 11.83-1.26 11.94 0 20.34 2.684 25.2 8.05 1.82 1.96 3.22 4.48 4.2 7.56Zm85.36 35.91h-17.78v-49.42h17.78V788Zm-80.15-49.42h17.78v16.59h17.43c7.05 0 12.27 1.237 15.68 3.71 3.45 2.427 5.18 6.604 5.18 12.53 0 5.787-1.75 10.01-5.25 12.67-3.45 2.614-8.17 3.92-14.14 3.92h-36.68v-49.42Zm17.78 27.79v10.43h14.91c2.15 0 3.62-.443 4.41-1.33.79-.933 1.19-2.333 1.19-4.2 0-1.353-.54-2.496-1.61-3.43-1.07-.98-2.33-1.47-3.78-1.47h-15.12Z" stroke="url(#k)" stroke-width="2" mask="url(#d)"/><path d="m63.896 827.09-16.38 2.87c-2.427-4.806-6.557-7.21-12.39-7.21-4.807 0-8.633 1.494-11.48 4.48-2.567 2.707-3.85 6.37-3.85 10.99 0 4.014 1.073 7.374 3.22 10.08 2.707 3.454 6.487 5.18 11.34 5.18 3.453 0 6.393-.793 8.82-2.38 2.427-1.586 4.013-3.546 4.76-5.88l16.87 1.75c-1.167 3.827-3.033 7.047-5.6 9.66-5.32 5.367-13.743 8.05-25.27 8.05-7.28 0-13.393-1.166-18.34-3.5a47.919 47.919 0 0 1-3.43-1.82c-1.073-.7-2.31-1.703-3.71-3.01a25.029 25.029 0 0 1-3.64-4.41c-.98-1.586-1.82-3.57-2.52-5.95-.7-2.38-1.05-4.946-1.05-7.7 0-1.026.047-2.076.14-3.15.14-1.073.443-2.543.91-4.41a25.484 25.484 0 0 1 2.03-5.18c.887-1.633 2.17-3.336 3.85-5.11 1.68-1.773 3.64-3.29 5.88-4.55 2.24-1.26 5.11-2.309 8.61-3.15 3.547-.84 7.49-1.26 11.83-1.26 11.947 0 20.347 2.684 25.2 8.05 1.82 1.96 3.22 4.48 4.2 7.56Zm57.503-13.51V863h-17.78v-17.71c-4.246.934-8.913 1.4-14 1.4-8.493 0-14.396-1.236-17.71-3.71-3.266-2.52-4.9-6.743-4.9-12.67v-16.73h17.78v12.811c0 3.406.84 5.693 2.52 6.859 1.68 1.167 4.037 1.75 7.07 1.75 3.36 0 6.44-.466 9.24-1.4v-20.02h17.78ZM188.473 863h-19.25l-2.66-8.049h-18.9l-2.66 8.049h-19.46l21.35-49.42h20.16l21.42 49.42Zm-25.62-18.97-5.81-16.73-5.67 16.73h11.48Zm90.193-16.94-16.38 2.87c-2.426-4.806-6.556-7.21-12.39-7.21-4.806 0-8.633 1.494-11.48 4.48-2.566 2.707-3.85 6.37-3.85 10.99 0 4.014 1.074 7.374 3.22 10.08 2.707 3.454 6.487 5.18 11.34 5.18 3.454 0 6.394-.793 8.82-2.38 2.427-1.586 4.014-3.546 4.76-5.88l16.87 1.75c-1.166 3.827-3.033 7.047-5.6 9.66-5.32 5.367-13.743 8.05-25.27 8.05-7.28 0-13.393-1.166-18.34-3.5a48.069 48.069 0 0 1-3.43-1.82c-1.073-.7-2.31-1.703-3.71-3.01a25.043 25.043 0 0 1-3.64-4.41c-.98-1.586-1.82-3.57-2.52-5.95-.7-2.38-1.05-4.946-1.05-7.7 0-1.026.047-2.076.14-3.15.14-1.073.444-2.543.91-4.41a25.522 25.522 0 0 1 2.03-5.18c.887-1.633 2.17-3.336 3.85-5.11 1.68-1.773 3.64-3.29 5.88-4.55 2.24-1.26 5.11-2.309 8.61-3.15 3.547-.84 7.49-1.26 11.83-1.26 11.947 0 20.347 2.684 25.2 8.05 1.82 1.96 3.22 4.48 4.2 7.56Zm54.424-2.45h-17.5V863h-17.78v-38.36h-17.57v-11.06h52.85v11.06ZM373.094 863h-17.78v-36.82h-18.2v3.22c0 4.387-.14 8.144-.42 11.27-.234 3.08-.7 5.95-1.4 8.61-.654 2.614-1.564 4.737-2.73 6.37-1.12 1.634-2.614 3.034-4.48 4.2-1.82 1.167-3.99 1.984-6.51 2.45-2.474.467-5.437.7-8.89.7h-3.22v-12.6h2.24c2.473 0 4.246-.49 5.32-1.47 1.12-.979 1.936-3.173 2.45-6.58.56-3.406.84-8.866.84-16.38v-12.39h52.78V863Zm8.418 0v-49.42h17.78v26.53l24.08-20.159v-6.371h17.78V863h-17.78v-26.46l-24.08 20.161V863h-17.78Zm68.087-49.42h42.07c10.08 0 15.12 3.85 15.12 11.55 0 5.74-3.15 9.451-9.45 11.13 3.874.607 6.65 1.634 8.33 3.08 2.427 2.007 3.64 5.04 3.64 9.1 0 3.407-.956 6.277-2.87 8.61-2.006 2.427-4.62 4.037-7.84 4.83-3.173.747-6.836 1.12-10.99 1.12h-38.01v-49.42Zm17.85 18.83h17.5c3.267 0 4.9-1.306 4.9-3.92 0-2.52-1.516-3.78-4.55-3.78h-17.85v7.7Zm-.14 10.71v8.61h18.69c3.827 0 5.74-1.516 5.74-4.55 0-2.706-1.493-4.06-4.48-4.06h-19.95ZM595.373 863h-17.78v-49.42h17.78V863Zm-80.15-49.42h17.78v16.59h17.43c7.046 0 12.273 1.237 15.68 3.71 3.453 2.427 5.18 6.604 5.18 12.53 0 5.787-1.75 10.01-5.25 12.67-3.454 2.614-8.167 3.92-14.14 3.92h-36.68v-49.42Zm17.78 27.79v10.43h14.91c2.146 0 3.616-.443 4.41-1.33.793-.933 1.19-2.333 1.19-4.2 0-1.353-.537-2.496-1.61-3.43-1.074-.98-2.334-1.47-3.78-1.47h-15.12ZM656.528 863h-52.78v-49.42h52.15v11.06h-34.44v8.12h31.85v11.131h-31.85v7.909h35.07V863Zm84.071-49.42V863h-17.78v-17.71c-4.247.934-8.914 1.4-14 1.4-8.494 0-14.397-1.236-17.71-3.71-3.267-2.52-4.9-6.743-4.9-12.67v-16.73h17.78v12.811c0 3.406.84 5.693 2.52 6.859 1.68 1.167 4.036 1.75 7.07 1.75 3.36 0 6.44-.466 9.24-1.4v-20.02h17.78ZM807.672 863h-19.25l-2.66-8.049h-18.9l-2.66 8.049h-19.46l21.35-49.42h20.16l21.42 49.42Zm-25.62-18.97-5.81-16.73-5.67 16.73h11.48Zm90.194-16.94-16.38 2.87c-2.427-4.806-6.557-7.21-12.39-7.21-4.807 0-8.634 1.494-11.48 4.48-2.567 2.707-3.85 6.37-3.85 10.99 0 4.014 1.073 7.374 3.22 10.08 2.706 3.454 6.486 5.18 11.34 5.18 3.453 0 6.393-.793 8.82-2.38 2.426-1.586 4.013-3.546 4.76-5.88l16.87 1.75c-1.167 3.827-3.034 7.047-5.6 9.66-5.32 5.367-13.744 8.05-25.27 8.05-7.28 0-13.394-1.166-18.34-3.5a47.855 47.855 0 0 1-3.43-1.82c-1.074-.7-2.31-1.703-3.71-3.01a25 25 0 0 1-3.64-4.41c-.98-1.586-1.82-3.57-2.52-5.95-.7-2.38-1.05-4.946-1.05-7.7 0-1.026.046-2.076.14-3.15.14-1.073.443-2.543.91-4.41a25.464 25.464 0 0 1 2.03-5.18c.886-1.633 2.17-3.336 3.85-5.11 1.68-1.773 3.64-3.29 5.88-4.55 2.24-1.26 5.11-2.309 8.61-3.15 3.546-.84 7.49-1.26 11.83-1.26 11.946 0 20.346 2.684 25.2 8.05 1.82 1.96 3.22 4.48 4.2 7.56ZM957.609 863h-17.78v-49.42h17.78V863Zm-80.15-49.42h17.78v16.59h17.43c7.047 0 12.273 1.237 15.68 3.71 3.453 2.427 5.18 6.604 5.18 12.53 0 5.787-1.75 10.01-5.25 12.67-3.453 2.614-8.167 3.92-14.14 3.92h-36.68v-49.42Zm17.78 27.79v10.43h14.91c2.147 0 3.617-.443 4.41-1.33.793-.933 1.19-2.333 1.19-4.2 0-1.353-.537-2.496-1.61-3.43-1.073-.98-2.333-1.47-3.78-1.47h-15.12Z" stroke="url(#l)" stroke-width="2" mask="url(#d)"/><path d="m191.896 904.09-16.38 2.87c-2.427-4.806-6.557-7.21-12.39-7.21-4.807 0-8.633 1.494-11.48 4.48-2.567 2.707-3.85 6.37-3.85 10.99 0 4.014 1.073 7.374 3.22 10.08 2.707 3.454 6.487 5.18 11.34 5.18 3.453 0 6.393-.793 8.82-2.38 2.427-1.586 4.013-3.546 4.76-5.88l16.87 1.75c-1.167 3.827-3.033 7.047-5.6 9.66-5.32 5.367-13.743 8.05-25.27 8.05-7.28 0-13.393-1.166-18.34-3.5a47.855 47.855 0 0 1-3.43-1.82c-1.073-.7-2.31-1.703-3.71-3.01a25.043 25.043 0 0 1-3.64-4.41c-.98-1.586-1.82-3.57-2.52-5.95-.7-2.38-1.05-4.946-1.05-7.7 0-1.026.047-2.076.14-3.15.14-1.073.443-2.543.91-4.41a25.464 25.464 0 0 1 2.03-5.18c.887-1.633 2.17-3.336 3.85-5.11 1.68-1.773 3.64-3.29 5.88-4.55 2.24-1.26 5.11-2.309 8.61-3.15 3.547-.84 7.49-1.26 11.83-1.26 11.947 0 20.347 2.684 25.2 8.05 1.82 1.96 3.22 4.48 4.2 7.56Zm57.503-13.51V940h-17.78v-17.71c-4.246.934-8.913 1.4-14 1.4-8.493 0-14.396-1.236-17.71-3.71-3.266-2.52-4.9-6.743-4.9-12.67v-16.73h17.78v12.811c0 3.406.84 5.693 2.52 6.859 1.68 1.167 4.037 1.75 7.07 1.75 3.36 0 6.44-.466 9.24-1.4v-20.02h17.78ZM316.473 940h-19.25l-2.66-8.049h-18.9l-2.66 8.049h-19.46l21.35-49.42h20.16l21.42 49.42Zm-25.62-18.97-5.81-16.73-5.67 16.73h11.48Zm90.193-16.94-16.38 2.87c-2.426-4.806-6.556-7.21-12.39-7.21-4.806 0-8.633 1.494-11.48 4.48-2.566 2.707-3.85 6.37-3.85 10.99 0 4.014 1.074 7.374 3.22 10.08 2.707 3.454 6.487 5.18 11.341 5.18 3.453 0 6.393-.793 8.819-2.38 2.427-1.586 4.014-3.546 4.76-5.88l16.87 1.75c-1.166 3.827-3.033 7.047-5.6 9.66-5.32 5.367-13.743 8.05-25.27 8.05-7.28 0-13.393-1.166-18.34-3.5a48.069 48.069 0 0 1-3.43-1.82c-1.073-.7-2.31-1.703-3.71-3.01a25.043 25.043 0 0 1-3.64-4.41c-.98-1.586-1.82-3.57-2.52-5.95-.7-2.38-1.05-4.946-1.05-7.7 0-1.026.047-2.076.14-3.15.141-1.073.444-2.543.91-4.41a25.522 25.522 0 0 1 2.03-5.18c.887-1.633 2.17-3.336 3.85-5.11 1.68-1.773 3.64-3.29 5.88-4.55 2.24-1.26 5.11-2.309 8.61-3.15 3.547-.84 7.49-1.26 11.83-1.26 11.947 0 20.347 2.684 25.2 8.05 1.821 1.96 3.22 4.48 4.2 7.56Zm54.424-2.45h-17.5V940h-17.78v-38.36h-17.57v-11.06h52.85v11.06ZM501.094 940h-17.78v-36.82h-18.2v3.22c0 4.387-.14 8.144-.42 11.27-.234 3.08-.7 5.95-1.4 8.61-.654 2.614-1.564 4.737-2.73 6.37-1.12 1.634-2.614 3.034-4.48 4.2-1.82 1.167-3.99 1.984-6.51 2.45-2.474.467-5.437.7-8.89.7h-3.22v-12.6h2.24c2.473 0 4.246-.49 5.32-1.47 1.12-.979 1.936-3.173 2.45-6.58.56-3.406.84-8.866.84-16.38v-12.39h52.78V940Zm8.418 0v-49.42h17.78v26.53l24.08-20.159v-6.371h17.78V940h-17.78v-26.46l-24.08 20.161V940h-17.78Zm68.087-49.42h42.07c10.08 0 15.12 3.85 15.12 11.55 0 5.74-3.15 9.451-9.45 11.13 3.874.607 6.65 1.634 8.33 3.08 2.427 2.007 3.64 5.04 3.64 9.1 0 3.407-.956 6.277-2.87 8.61-2.006 2.427-4.62 4.037-7.84 4.83-3.173.747-6.836 1.12-10.99 1.12h-38.01v-49.42Zm17.85 18.83h17.5c3.267 0 4.9-1.306 4.9-3.92 0-2.52-1.516-3.78-4.55-3.78h-17.85v7.7Zm-.14 10.71v8.61h18.69c3.827 0 5.74-1.516 5.74-4.55 0-2.706-1.493-4.06-4.48-4.06h-19.95ZM723.373 940h-17.78v-49.42h17.78V940Zm-80.15-49.42h17.78v16.59h17.43c7.046 0 12.273 1.237 15.68 3.71 3.453 2.427 5.18 6.604 5.18 12.53 0 5.787-1.75 10.01-5.25 12.67-3.454 2.614-8.167 3.92-14.14 3.92h-36.68v-49.42Zm17.78 27.79v10.43h14.91c2.146 0 3.616-.443 4.41-1.33.793-.933 1.19-2.333 1.19-4.2 0-1.353-.537-2.496-1.61-3.43-1.074-.98-2.334-1.47-3.78-1.47h-15.12ZM784.528 940h-52.78v-49.42h52.15v11.06h-34.44v8.12h31.85v11.131h-31.85v7.909h35.07V940Zm84.071-49.42V940h-17.78v-17.71c-4.247.934-8.914 1.4-14 1.4-8.494 0-14.397-1.236-17.71-3.71-3.267-2.52-4.9-6.743-4.9-12.67v-16.73h17.78v12.811c0 3.406.84 5.693 2.52 6.859 1.68 1.167 4.036 1.75 7.07 1.75 3.36 0 6.44-.466 9.24-1.4v-20.02h17.78ZM935.672 940h-19.25l-2.66-8.049h-18.9l-2.66 8.049h-19.46l21.35-49.42h20.16l21.42 49.42Zm-25.62-18.97-5.81-16.73-5.67 16.73h11.48Zm90.198-16.94-16.384 2.87c-2.427-4.806-6.557-7.21-12.39-7.21-4.807 0-8.634 1.494-11.48 4.48-2.567 2.707-3.85 6.37-3.85 10.99 0 4.014 1.073 7.374 3.22 10.08 2.706 3.454 6.486 5.18 11.34 5.18 3.453 0 6.393-.793 8.82-2.38 2.426-1.586 4.013-3.546 4.76-5.88l16.874 1.75c-1.171 3.827-3.038 7.047-5.604 9.66-5.32 5.367-13.744 8.05-25.27 8.05-7.28 0-13.394-1.166-18.34-3.5a47.855 47.855 0 0 1-3.43-1.82c-1.074-.7-2.31-1.703-3.71-3.01a25 25 0 0 1-3.64-4.41c-.98-1.586-1.82-3.57-2.52-5.95-.7-2.38-1.05-4.946-1.05-7.7 0-1.026.046-2.076.14-3.15.14-1.073.443-2.543.91-4.41a25.464 25.464 0 0 1 2.03-5.18c.886-1.633 2.17-3.336 3.85-5.11 1.68-1.773 3.64-3.29 5.88-4.55 2.24-1.26 5.11-2.309 8.61-3.15 3.546-.84 7.49-1.26 11.83-1.26 11.946 0 20.346 2.684 25.2 8.05 1.82 1.96 3.22 4.48 4.204 7.56Zm85.36 35.91h-17.78v-49.42h17.78V940Zm-80.15-49.42h17.78v16.59h17.43c7.05 0 12.27 1.237 15.68 3.71 3.45 2.427 5.18 6.604 5.18 12.53 0 5.787-1.75 10.01-5.25 12.67-3.45 2.614-8.17 3.92-14.14 3.92h-36.68v-49.42Zm17.78 27.79v10.43h14.91c2.15 0 3.62-.443 4.41-1.33.79-.933 1.19-2.333 1.19-4.2 0-1.353-.54-2.496-1.61-3.43-1.07-.98-2.33-1.47-3.78-1.47h-15.12Z" stroke="url(#m)" stroke-width="2" mask="url(#d)"/></g><defs><linearGradient id="b" x1="962.027" y1="1077.61" x2="528.078" y2="149.716" gradientUnits="userSpaceOnUse"><stop stop-color="#14FF00"/><stop offset=".542" stop-color="#A6CE39"/><stop offset="1" stop-color="#FFEBA4"/></linearGradient><linearGradient id="c" x1="877.5" y1="927.5" x2="875" y2="225.5" gradientUnits="userSpaceOnUse"><stop stop-color="#fff"/><stop offset="1" stop-color="#fff" stop-opacity="0"/></linearGradient><linearGradient id="e" x1="877.5" y1="927.5" x2="875" y2="225.5" gradientUnits="userSpaceOnUse"><stop stop-color="#fff"/><stop offset="1" stop-color="#fff" stop-opacity="0"/></linearGradient><linearGradient id="f" x1="877.5" y1="927.5" x2="875" y2="225.5" gradientUnits="userSpaceOnUse"><stop stop-color="#fff"/><stop offset="1" stop-color="#fff" stop-opacity="0"/></linearGradient><linearGradient id="g" x1="877.5" y1="927.5" x2="875" y2="225.5" gradientUnits="userSpaceOnUse"><stop stop-color="#fff"/><stop offset="1" stop-color="#fff" stop-opacity="0"/></linearGradient><linearGradient id="h" x1="877.5" y1="927.5" x2="875" y2="225.5" gradientUnits="userSpaceOnUse"><stop stop-color="#fff"/><stop offset="1" stop-color="#fff" stop-opacity="0"/></linearGradient><linearGradient id="i" x1="877.5" y1="927.5" x2="875" y2="225.5" gradientUnits="userSpaceOnUse"><stop stop-color="#fff"/><stop offset="1" stop-color="#fff" stop-opacity="0"/></linearGradient><linearGradient id="j" x1="877.5" y1="927.5" x2="875" y2="225.5" gradientUnits="userSpaceOnUse"><stop stop-color="#fff"/><stop offset="1" stop-color="#fff" stop-opacity="0"/></linearGradient><linearGradient id="k" x1="877.5" y1="927.5" x2="875" y2="225.5" gradientUnits="userSpaceOnUse"><stop stop-color="#fff"/><stop offset="1" stop-color="#fff" stop-opacity="0"/></linearGradient><linearGradient id="l" x1="877.5" y1="927.5" x2="875" y2="225.5" gradientUnits="userSpaceOnUse"><stop stop-color="#fff"/><stop offset="1" stop-color="#fff" stop-opacity="0"/></linearGradient><linearGradient id="m" x1="877.5" y1="927.5" x2="875" y2="225.5" gradientUnits="userSpaceOnUse"><stop stop-color="#fff"/><stop offset="1" stop-color="#fff" stop-opacity="0"/></linearGradient><filter id="a" x="75.424" y=".085" width="1342.78" height="1260.4" filterUnits="userSpaceOnUse" color-interpolation-filters="sRGB"><feFlood flood-opacity="0" result="BackgroundImageFix"/><feBlend in="SourceGraphic" in2="BackgroundImageFix" result="shape"/><feGaussianBlur stdDeviation="150" result="effect1_foregroundBlur_2015_348"/></filter></defs></svg>